<?xml version="1.0" encoding="UTF-8" standalone="no"?>
<svg
   xmlns:dc="http://purl.org/dc/elements/1.1/"
   xmlns:cc="http://creativecommons.org/ns#"
   xmlns:rdf="http://www.w3.org/1999/02/22-rdf-syntax-ns#"
   xmlns:svg="http://www.w3.org/2000/svg"
   xmlns="http://www.w3.org/2000/svg"
   xmlns:sodipodi="http://sodipodi.sourceforge.net/DTD/sodipodi-0.dtd"
   xmlns:inkscape="http://www.inkscape.org/namespaces/inkscape"
   version="1.1"
   id="svg8387"
   width="512"
   height="512"
   viewBox="0 0 512 512"
   sodipodi:docname="bug.svg"
   inkscape:version="1.0.1 (3bc2e813f5, 2020-09-07)">
  <metadata
     id="metadata8393">
    <rdf:RDF>
      <cc:Work
         rdf:about="">
        <dc:format>image/svg+xml</dc:format>
        <dc:type
           rdf:resource="http://purl.org/dc/dcmitype/StillImage" />
        <dc:title></dc:title>
      </cc:Work>
    </rdf:RDF>
  </metadata>
  <defs
     id="defs8391">
    <inkscape:path-effect
       effect="bspline"
       id="path-effect9042"
       is_visible="true"
       lpeversion="1"
       weight="33.333333"
       steps="2"
       helper_size="0"
       apply_no_weight="true"
       apply_with_weight="true"
       only_selected="false" />
    <inkscape:path-effect
       effect="bspline"
       id="path-effect9038"
       is_visible="true"
       lpeversion="1"
       weight="33.333333"
       steps="2"
       helper_size="0"
       apply_no_weight="true"
       apply_with_weight="true"
       only_selected="false" />
    <inkscape:path-effect
       effect="bspline"
       id="path-effect9034"
       is_visible="true"
       lpeversion="1"
       weight="33.333333"
       steps="2"
       helper_size="0"
       apply_no_weight="true"
       apply_with_weight="true"
       only_selected="false" />
    <inkscape:path-effect
       effect="bspline"
       id="path-effect9030"
       is_visible="true"
       lpeversion="1"
       weight="33.333333"
       steps="2"
       helper_size="0"
       apply_no_weight="true"
       apply_with_weight="true"
       only_selected="false" />
    <inkscape:path-effect
       effect="bspline"
       id="path-effect9021"
       is_visible="true"
       lpeversion="1"
       weight="33.333333"
       steps="2"
       helper_size="0"
       apply_no_weight="true"
       apply_with_weight="true"
       only_selected="false" />
    <inkscape:path-effect
       effect="bspline"
       id="path-effect9002"
       is_visible="true"
       lpeversion="1"
       weight="33.333333"
       steps="2"
       helper_size="0"
       apply_no_weight="true"
       apply_with_weight="true"
       only_selected="false" />
    <inkscape:path-effect
       effect="bspline"
       id="path-effect8998"
       is_visible="true"
       lpeversion="1"
       weight="33.333333"
       steps="2"
       helper_size="0"
       apply_no_weight="true"
       apply_with_weight="true"
       only_selected="false" />
    <inkscape:path-effect
       effect="bspline"
       id="path-effect8994"
       is_visible="true"
       lpeversion="1"
       weight="33.333333"
       steps="2"
       helper_size="0"
       apply_no_weight="true"
       apply_with_weight="true"
       only_selected="false" />
    <inkscape:path-effect
       effect="bspline"
       id="path-effect8985"
       is_visible="true"
       lpeversion="1"
       weight="33.333333"
       steps="2"
       helper_size="0"
       apply_no_weight="true"
       apply_with_weight="true"
       only_selected="false" />
    <inkscape:path-effect
       effect="bspline"
       id="path-effect8966"
       is_visible="true"
       lpeversion="1"
       weight="33.333333"
       steps="2"
       helper_size="0"
       apply_no_weight="true"
       apply_with_weight="true"
       only_selected="false" />
    <inkscape:path-effect
       effect="bspline"
       id="path-effect8962"
       is_visible="true"
       lpeversion="1"
       weight="33.333333"
       steps="2"
       helper_size="0"
       apply_no_weight="true"
       apply_with_weight="true"
       only_selected="false" />
  </defs>
  <sodipodi:namedview
     pagecolor="#ffffff"
     bordercolor="#666666"
     borderopacity="1"
     objecttolerance="10"
     gridtolerance="10"
     guidetolerance="10"
     inkscape:pageopacity="0"
     inkscape:pageshadow="2"
     inkscape:window-width="1366"
     inkscape:window-height="705"
     id="namedview8389"
     showgrid="false"
     inkscape:zoom="0.52539063"
     inkscape:cx="-86.050526"
     inkscape:cy="162.44286"
     inkscape:window-x="-8"
     inkscape:window-y="-8"
     inkscape:window-maximized="1"
     inkscape:current-layer="g8395" />
  <g
     inkscape:groupmode="layer"
     inkscape:label="Image"
     id="g8395">
    <path
       style="fill:#000000;stroke:#000000;stroke-width:1px;stroke-linecap:butt;stroke-linejoin:miter;stroke-opacity:1"
       d="m 104.04296,162.65388 c -9.506197,3.9261 -15.941869,-3.85346 -18.997074,-14.41066 -3.055206,-10.55719 -2.72903,-23.89146 2.387299,-35.29067 5.116328,-11.3992 15.022425,-20.861704 24.937425,-26.030211 9.91499,-5.168507 19.8374,-6.042674 29.64446,-3.10813 9.80707,2.934544 19.4979,9.676694 24.60237,13.861916 5.10446,4.185225 5.62309,5.812865 0.20653,10.351165 -5.41657,4.5383 -16.76765,11.98827 -28.73247,23.52908 -11.96483,11.54081 -24.54235,27.1714 -34.04854,31.09751 z"
       id="path8996"
       inkscape:path-effect="#path-effect8998"
       inkscape:original-d="m 100.97154,174.35846 c -6.43475,-7.7785 -12.870424,-15.55806 -19.307023,-23.33869 0.327113,-13.33372 0.65329,-26.66799 0.978547,-40.00358 9.907421,-9.46182 19.813526,-18.924322 29.718896,-28.388083 9.92374,-0.873133 19.84615,-1.7473 29.76784,-2.622555 9.69214,6.743488 19.38297,13.485638 29.07306,20.226848 0.51957,1.62878 1.0382,3.25642 1.55592,4.88303 -11.35061,7.45134 -22.70169,14.90131 -34.05393,22.35035 -12.57709,15.63227 -25.15462,31.26286 -37.73331,46.89268 z" />
    <path
       style="fill:#000000;stroke:#000000;stroke-width:1px;stroke-linecap:butt;stroke-linejoin:miter;stroke-opacity:1"
       d="m 168.89591,365.74469 c 2.6961,2.37979 4.28222,7.13815 4.75805,9.67525 0.47583,2.53709 -0.1586,2.85431 -3.48924,3.17162 -3.33065,0.3173 -9.3578,0.63452 -15.2266,1.42753 -5.86881,0.79302 -11.57873,2.06189 -15.06866,5.55186 -3.48994,3.48998 -4.75881,9.19991 -5.86909,14.75141 -1.11028,5.55151 -2.06194,10.94422 -4.59911,13.16451 -2.53718,2.2203 -6.66102,1.26864 -8.56494,0.63406 -1.90393,-0.63459 -1.58671,-0.9518 -1.26951,-4.59948 0.31721,-3.64767 0.63442,-10.62647 0.95164,-16.65379 0.31722,-6.02732 0.63444,-11.10281 3.6483,-15.38592 3.01386,-4.28312 8.72378,-7.77252 14.91,-9.99307 6.18622,-2.22055 12.84779,-3.17221 18.08211,-3.64798 5.23432,-0.47578 9.04094,-0.47578 11.73705,1.904 z"
       id="path9000-0"
       inkscape:path-effect="#path-effect9030"
       inkscape:original-d="m 170.00549,363.36491 c 1.58712,4.75937 3.17324,9.51773 4.75836,14.27509 -0.63346,0.31824 -1.26789,0.63545 -1.90334,0.95168 -6.02638,0.31823 -12.05353,0.63545 -18.08179,0.95167 -5.70915,1.26992 -11.41907,2.53879 -17.13011,3.80669 -1.26792,5.71115 -2.53679,11.42108 -3.80669,17.13011 -0.95069,5.39392 -1.90234,10.78663 -2.85502,16.17844 -4.12299,-0.95069 -8.24683,-1.90234 -12.37174,-2.85502 0.31823,-0.31623 0.63544,-0.63345 0.95167,-0.95167 0.31823,-6.97807 0.63545,-13.95687 0.95167,-20.9368 0.31823,-5.07469 0.63545,-10.15018 0.95167,-15.22677 5.71116,-3.48854 11.42108,-6.97793 17.13012,-10.4684 6.66284,-0.95069 13.32441,-1.90235 19.98512,-2.85502 3.80777,10e-4 7.61439,10e-4 11.42008,0 z" />
    <path
       style="fill:#000000;stroke:#000000;stroke-width:1px;stroke-linecap:butt;stroke-linejoin:miter;stroke-opacity:1"
       d="m 96.44432,275.50989 c 2.696107,2.37979 4.28223,7.13815 4.75806,9.67525 0.47583,2.53709 -0.15861,2.85431 -3.489252,3.17162 -3.330643,0.3173 -9.357784,0.63452 -15.226592,1.42753 -5.868808,0.79302 -11.578731,2.06189 -15.068664,5.55186 -3.489933,3.48998 -4.758806,9.19991 -5.869088,14.75141 -1.110282,5.55151 -2.061937,10.94422 -4.599117,13.16451 -2.53718,2.2203 -6.661012,1.26864 -8.56494,0.63406 -1.903927,-0.63459 -1.586708,-0.95181 -1.269503,-4.59948 0.317205,-3.64767 0.634423,-10.62647 0.951643,-16.65379 0.317219,-6.02732 0.634437,-11.10281 3.648297,-15.38592 3.01386,-4.28312 8.72378,-7.77252 14.909999,-9.99307 6.186219,-2.22055 12.847796,-3.17221 18.082115,-3.64798 5.234319,-0.47578 9.040934,-0.47578 11.737042,1.904 z"
       id="path9000"
       inkscape:path-effect="#path-effect9002"
       inkscape:original-d="m 97.553903,273.13011 c 1.587122,4.75937 3.173247,9.51773 4.758367,14.27509 -0.63346,0.31824 -1.2679,0.63545 -1.90335,0.95168 -6.02638,0.31823 -12.053521,0.63545 -18.081782,0.95167 -5.709152,1.26992 -11.419075,2.53879 -17.130112,3.80669 -1.267923,5.71115 -2.536794,11.42108 -3.806691,17.13011 -0.950692,5.39392 -1.902346,10.78663 -2.855019,16.17844 -4.122998,-0.95069 -8.246831,-1.90234 -12.371747,-2.85502 0.31823,-0.31623 0.635448,-0.63345 0.951673,-0.95167 0.31823,-6.97807 0.635448,-13.95687 0.951672,-20.9368 0.318231,-5.07469 0.635449,-10.15018 0.951673,-15.22677 5.711152,-3.48854 11.421075,-6.97793 17.130112,-10.4684 6.662843,-0.95069 13.32442,-1.90235 19.98513,-2.85502 3.807768,10e-4 7.614383,10e-4 11.420074,0 z" />
    <path
       style="fill:#000000;stroke:#000000;stroke-width:1px;stroke-linecap:butt;stroke-linejoin:miter;stroke-opacity:1"
       d="m 126.55391,325.77442 c 2.6961,2.37979 4.28222,7.13815 4.75805,9.67525 0.47583,2.5371 -0.15861,2.85433 -3.48925,3.17163 -3.33065,0.3173 -9.35779,0.63452 -15.22659,1.42753 -5.86881,0.79302 -11.57874,2.06189 -15.06867,5.55187 -3.489932,3.48997 -4.758805,9.1999 -5.869087,14.7514 -1.110282,5.55151 -2.061937,10.94422 -4.599117,13.16451 -2.53718,2.2203 -6.661012,1.26864 -8.56494,0.63406 -1.903927,-0.63459 -1.586708,-0.95181 -1.269503,-4.59948 0.317205,-3.64767 0.634423,-10.62647 0.951643,-16.65379 0.317219,-6.02732 0.634437,-11.10281 3.648296,-15.38592 3.013859,-4.28312 8.723782,-7.77252 14.91,-9.99308 6.186218,-2.22055 12.847798,-3.17221 18.082118,-3.64798 5.23432,-0.47578 9.04094,-0.47578 11.73705,1.904 z"
       id="path9000-6"
       inkscape:path-effect="#path-effect9021"
       inkscape:original-d="m 127.66349,323.39464 c 1.58712,4.75937 3.17324,9.51773 4.75836,14.2751 -0.63346,0.31824 -1.2679,0.63545 -1.90334,0.95168 -6.02639,0.31823 -12.05353,0.63545 -18.08179,0.95167 -5.70915,1.26992 -11.41908,2.53879 -17.130115,3.80669 -1.267923,5.71115 -2.536794,11.42108 -3.806691,17.13011 -0.950692,5.39392 -1.902346,10.78663 -2.855019,16.17844 -4.122998,-0.95069 -8.246831,-1.90234 -12.371747,-2.85502 0.31823,-0.31623 0.635448,-0.63345 0.951673,-0.95167 0.31823,-6.97807 0.635448,-13.95687 0.951672,-20.9368 0.318231,-5.07469 0.635449,-10.15018 0.951673,-15.22677 5.711152,-3.48854 11.421075,-6.97794 17.130112,-10.46841 6.662842,-0.95069 13.324422,-1.90235 19.985132,-2.85502 3.80777,0.001 7.61439,0.001 11.42008,0 z" />
    <path
       style="fill:#000000;stroke:#000000;stroke-width:1px;stroke-linecap:butt;stroke-linejoin:miter;stroke-opacity:1"
       d="m 248.47635,92.250723 c 2.06127,-5.868754 8.40575,-16.654381 16.01949,-24.426672 7.61374,-7.772292 16.49585,-12.530564 24.58555,-12.688678 8.08969,-0.158115 15.3857,4.282936 19.0332,7.138111 3.64749,2.855175 3.64749,4.124046 2.3786,5.86827 -1.26888,1.744224 -3.80663,3.964754 -7.13696,3.965083 -3.33034,3.28e-4 -7.45417,-2.220195 -11.41965,-3.172225 -3.96549,-0.952029 -7.7721,-0.634812 -13.48274,4.916858 -5.71064,5.551671 -13.32387,16.33708 -18.24024,21.57126 -4.91637,5.23418 -7.13689,4.91696 -9.35744,4.282682 -2.22055,-0.634281 -4.44107,-1.585934 -2.37981,-7.454689 z"
       id="path8964"
       inkscape:path-effect="#path-effect8966"
       inkscape:original-d="m 244.19331,97.167286 c 6.34548,-10.784626 12.68997,-21.570251 19.03346,-32.356877 8.88345,-4.75746 17.76556,-9.515729 26.64684,-14.275093 7.2973,4.442229 14.59331,8.88328 21.88847,13.32342 10e-4,1.269923 10e-4,2.538794 0,3.806692 -2.53684,2.221614 -5.07459,4.44214 -7.61338,6.66171 -4.123,-2.219615 -8.24683,-4.44014 -12.37175,-6.66171 -3.80577,0.31823 -7.61238,0.635448 -11.42007,0.951672 -7.61254,10.786842 -15.22577,21.572252 -22.84015,32.35688 -2.21962,-0.31623 -4.44014,-0.63345 -6.66171,-0.95167 -2.21962,-0.9507 -4.44014,-1.90235 -6.66171,-2.855024 z" />
    <path
       style="fill:#000000;stroke:#000000;stroke-width:1px;stroke-linecap:butt;stroke-linejoin:miter;stroke-opacity:1"
       d="m 298.01066,121.24999 c 2.06126,-5.86875 8.40575,-16.65438 16.01949,-24.426673 7.61374,-7.772291 16.49585,-12.530563 24.58555,-12.688677 8.08969,-0.158115 15.3857,4.282936 19.0332,7.138111 3.64749,2.855175 3.64749,4.124046 2.3786,5.86827 -1.26888,1.744223 -3.80663,3.964749 -7.13696,3.965079 -3.33034,3.3e-4 -7.45417,-2.220193 -11.41965,-3.172221 -3.96549,-0.952029 -7.7721,-0.634812 -13.48274,4.916861 -5.71064,5.55167 -13.32387,16.33708 -18.24024,21.57126 -4.91637,5.23418 -7.13689,4.91696 -9.35744,4.28268 -2.22055,-0.63428 -4.44107,-1.58594 -2.37981,-7.45469 z"
       id="path8964-1"
       inkscape:path-effect="#path-effect8985"
       inkscape:original-d="m 293.72762,126.16655 c 6.34548,-10.78462 12.68997,-21.57025 19.03346,-32.356874 8.88345,-4.75746 17.76556,-9.515729 26.64684,-14.275093 7.2973,4.442229 14.59331,8.88328 21.88847,13.32342 0.001,1.269923 0.001,2.538794 0,3.806692 -2.53684,2.221614 -5.07459,4.442135 -7.61338,6.661705 -4.123,-2.21961 -8.24683,-4.440135 -12.37175,-6.661705 -3.80577,0.31823 -7.61238,0.635448 -11.42007,0.951672 -7.61254,10.786843 -15.22577,21.572253 -22.84015,32.356883 -2.21962,-0.31623 -4.44014,-0.63345 -6.66171,-0.95167 -2.21962,-0.9507 -4.44014,-1.90235 -6.66171,-2.85503 z" />
    <path
       style="fill:#000000;stroke:#000000;stroke-width:1px;stroke-linecap:butt;stroke-linejoin:miter;stroke-opacity:1"
       d="m 340.83594,178.35036 c 2.06127,-5.86876 8.40575,-16.65438 16.01949,-24.42667 7.61374,-7.77229 16.49585,-12.53057 24.58555,-12.68868 8.0897,-0.15812 15.3857,4.28293 19.0332,7.13811 3.64749,2.85518 3.64749,4.12405 2.3786,5.86827 -1.26888,1.74423 -3.80663,3.96475 -7.13696,3.96508 -3.33034,3.3e-4 -7.45417,-2.22019 -11.41965,-3.17222 -3.96549,-0.95203 -7.7721,-0.63481 -13.48274,4.91686 -5.71064,5.55167 -13.32387,16.33708 -18.24024,21.57125 -4.91637,5.23418 -7.13689,4.91696 -9.35744,4.28268 -2.22055,-0.63428 -4.44107,-1.58593 -2.37981,-7.45468 z"
       id="path8964-3"
       inkscape:path-effect="#path-effect8994"
       inkscape:original-d="m 336.5529,183.26692 c 6.34548,-10.78463 12.68997,-21.57025 19.03346,-32.35687 8.88345,-4.75746 17.76556,-9.51573 26.64684,-14.2751 7.2973,4.44223 14.59331,8.88328 21.88847,13.32342 0.001,1.26993 0.001,2.5388 0,3.8067 -2.53684,2.22161 -5.07459,4.44213 -7.61338,6.6617 -4.123,-2.21961 -8.24683,-4.44013 -12.37175,-6.6617 -3.80577,0.31823 -7.61238,0.63544 -11.42007,0.95167 -7.61254,10.78684 -15.22577,21.57225 -22.84015,32.35687 -2.21962,-0.31623 -4.44014,-0.63345 -6.66171,-0.95167 -2.21962,-0.95069 -4.44014,-1.90235 -6.66171,-2.85502 z" />
    <path
       style="fill:#d40000;stroke:#000000;stroke-width:1px;stroke-linecap:butt;stroke-linejoin:miter;stroke-opacity:1"
       d="m 112.61458,149.5715 c -13.640806,18.87518 -21.254187,40.76365 -24.267659,61.85952 -3.013472,21.09586 -1.427382,41.39781 5.393334,62.96935 6.820715,21.57154 18.874995,44.41124 34.419405,63.60331 15.54441,19.19207 34.57749,34.73575 55.83178,44.88665 21.2543,10.15089 44.72843,14.90916 70.10632,11.73659 25.37789,-3.17258 52.65864,-14.27521 73.59523,-37.11535 20.93659,-22.84015 35.52861,-57.4169 36.7977,-92.6288 1.26908,-35.2119 -10.7852,-71.05753 -26.17044,-97.07022 -15.38524,-26.0127 -34.10109,-42.19081 -52.81744,-53.6112 -18.71636,-11.42039 -37.43222,-18.081963 -57.41774,-19.826941 -19.98553,-1.744978 -41.23913,1.427201 -61.70065,10.944101 -20.46152,9.5169 -40.12904,25.3778 -53.76984,44.25299 z"
       id="path8960"
       inkscape:path-effect="#path-effect8962"
       inkscape:original-d="m 106.58736,146.55762 c -7.612382,21.88948 -15.225765,43.77795 -22.840148,65.66543 1.587153,20.30376 3.173243,40.60571 4.758364,60.90706 12.055764,22.84161 24.110044,45.6813 36.163564,68.52045 19.03484,15.5453 38.06792,31.08898 57.10038,46.63197 23.47606,4.75946 46.95019,9.51773 70.42379,14.27509 27.28283,-11.10207 54.56358,-22.2047 81.84386,-33.30855 14.59361,-34.57714 29.18564,-69.15389 43.77696,-103.73234 -12.05377,-35.84606 -24.10805,-71.69169 -36.16357,-107.53903 -18.71561,-16.17777 -37.43147,-32.35588 -56.1487,-48.53532 -18.71561,-6.66084 -37.43147,-13.322421 -56.1487,-19.985131 -21.25345,3.173306 -42.50705,6.345486 -63.76208,9.516729 -19.6673,15.862532 -39.33481,31.723432 -59.00372,47.583642 z" />
    <path
       style="fill:none;stroke:#000000;stroke-width:2.9;stroke-linecap:butt;stroke-linejoin:miter;stroke-miterlimit:4;stroke-dasharray:none;stroke-opacity:1"
       d="m 149.31599,173.39777 c 57.41854,63.12867 114.83614,126.25632 172.25278,189.3829"
       id="path9032"
       inkscape:path-effect="#path-effect9034"
       inkscape:original-d="m 149.31599,173.39777 c 57.41859,63.12863 114.83619,126.25627 172.25278,189.3829" />
    <path
       style="fill:#000000;stroke:#000000;stroke-width:1px;stroke-linecap:butt;stroke-linejoin:miter;stroke-opacity:1"
       d="m 74.627431,79.14809 c -2.379765,-1.665798 -2.934907,-0.793432 -1.863651,0.912029 1.071256,1.705461 3.767609,4.243204 6.107024,7.019041 2.339414,2.775837 4.322027,5.789408 6.225238,9.715132 1.903211,3.925728 3.727213,8.763298 4.758266,11.141778 1.031054,2.37848 1.268969,2.29917 1.704766,1.70463 0.435798,-0.59455 1.070236,-1.70482 0.991164,-3.80603 -0.07907,-2.10121 -0.872116,-5.19408 -2.180456,-8.128446 -1.308339,-2.934366 -3.132343,-5.710023 -6.145896,-9.199611 -3.013553,-3.489588 -7.21669,-7.692725 -9.596455,-9.358523 z"
       id="path9036"
       inkscape:path-effect="#path-effect9038"
       inkscape:original-d="m 72.802974,76.609666 c -0.554143,0.873367 -1.109285,1.745733 -1.665428,2.6171 2.697461,2.538845 5.393813,5.076589 8.08922,7.613383 1.983691,3.014691 3.966303,6.028262 5.947955,9.040892 1.825076,4.838769 3.649079,9.676339 5.472119,14.513009 0.238923,-0.0783 0.476836,-0.15761 0.713755,-0.23791 0.635461,-1.10931 1.269897,-2.21958 1.903345,-3.33086 -0.792076,-3.092 -1.585121,-6.18487 -2.379182,-9.278811 -1.823076,-2.774768 -3.647079,-5.550425 -5.472119,-8.327138 -4.202306,-4.202306 -8.405443,-8.405443 -12.609665,-12.609665 z" />
    <path
       style="fill:#000000;stroke:#000000;stroke-width:1px;stroke-linecap:butt;stroke-linejoin:miter;stroke-opacity:1"
       d="m 114.59763,86.840614 c 0.95182,1.347532 2.30002,0.792391 2.65677,-0.912034 0.35676,-1.704426 -0.27768,-4.559385 -1.74467,-8.048882 -1.46698,-3.489496 -3.76681,-7.613329 -6.30449,-11.182207 -2.53767,-3.568879 -5.31333,-6.58245 -7.41493,-8.803053 -2.101607,-2.220603 -3.529087,-3.648085 -4.719139,-3.965842 -1.190051,-0.317757 -2.141704,0.475287 -1.26886,2.220589 0.872844,1.745302 3.569195,4.441656 6.027659,7.098473 2.45847,2.656818 4.67899,5.273863 6.42358,7.891054 1.74458,2.617191 3.01345,5.234237 3.92529,8.168562 0.91183,2.934325 1.46696,6.185808 2.41879,7.53334 z"
       id="path9040"
       inkscape:path-effect="#path-effect9042"
       inkscape:original-d="m 114.20075,88.743495 c 1.3492,-0.554143 2.6974,-1.109285 4.04461,-1.665428 -0.63347,-2.854076 -1.2679,-5.709037 -1.90335,-8.565056 -2.29892,-4.122998 -4.59875,-8.246831 -6.89963,-12.371747 -2.77477,-3.012691 -5.55043,-6.026261 -8.32714,-9.040892 -1.426536,-1.426538 -2.854017,-2.854019 -4.282526,-4.282528 -0.950692,0.794077 -1.902346,1.587121 -2.855019,2.379182 2.69746,2.697461 5.393813,5.393813 8.089215,8.08922 2.22162,2.618152 4.44214,5.2352 6.66171,7.851301 1.26993,2.618152 2.5388,5.2352 3.8067,7.851301 0.55615,3.252614 1.11128,6.504098 1.66543,9.754647 z" />
    <ellipse
       style="opacity:0.835484;fill:#000000;stroke:#55d400;stroke-width:0"
       id="path9044"
       cx="235.53903"
       cy="185.10037"
       rx="40.446098"
       ry="38.542751" />
    <ellipse
       style="opacity:0.835484;fill:#000000;stroke:#55d400;stroke-width:0"
       id="path9046"
       cx="321.66544"
       cy="208.8922"
       rx="22.840149"
       ry="21.41264" />
    <ellipse
       style="opacity:0.835484;fill:#000000;stroke:#55d400;stroke-width:0"
       id="path9048"
       cx="312.14871"
       cy="280.7435"
       rx="33.308552"
       ry="31.405205" />
    <ellipse
       style="opacity:0.835484;fill:#000000;stroke:#55d400;stroke-width:0"
       id="path9050"
       cx="138.94424"
       cy="227.92564"
       rx="20.936804"
       ry="19.509295" />
    <ellipse
       style="opacity:0.835484;fill:#000000;stroke:#55d400;stroke-width:0"
       id="path9052"
       cx="172.25279"
       cy="308.81784"
       rx="35.211895"
       ry="34.736061" />
    <ellipse
       style="opacity:0.835484;fill:#000000;stroke:#55d400;stroke-width:0"
       id="path9054"
       cx="254.09665"
       cy="350.21561"
       rx="19.98513"
       ry="21.888475" />
  </g>
</svg>
