<?xml version="1.0" encoding="UTF-8" standalone="no"?>
<svg
   xmlns:dc="http://purl.org/dc/elements/1.1/"
   xmlns:cc="http://creativecommons.org/ns#"
   xmlns:rdf="http://www.w3.org/1999/02/22-rdf-syntax-ns#"
   xmlns:svg="http://www.w3.org/2000/svg"
   xmlns="http://www.w3.org/2000/svg"
   xmlns:sodipodi="http://sodipodi.sourceforge.net/DTD/sodipodi-0.dtd"
   xmlns:inkscape="http://www.inkscape.org/namespaces/inkscape"
   width="210mm"
   height="297mm"
   viewBox="0 0 210 297"
   version="1.1"
   id="svg2905"
   inkscape:version="1.0.1 (3bc2e813f5, 2020-09-07)"
   sodipodi:docname="f1.svg">
  <defs
     id="defs2899">
    <inkscape:path-effect
       effect="bspline"
       id="path-effect2887"
       is_visible="true"
       lpeversion="1"
       weight="33.333333"
       steps="2"
       helper_size="0"
       apply_no_weight="true"
       apply_with_weight="true"
       only_selected="false" />
  </defs>
  <sodipodi:namedview
     id="base"
     pagecolor="#ffffff"
     bordercolor="#666666"
     borderopacity="1.0"
     inkscape:pageopacity="0.0"
     inkscape:pageshadow="2"
     inkscape:zoom="0.49497475"
     inkscape:cx="297.90579"
     inkscape:cy="502.25819"
     inkscape:document-units="mm"
     inkscape:current-layer="layer1"
     inkscape:document-rotation="0"
     showgrid="true"
     inkscape:window-width="1366"
     inkscape:window-height="705"
     inkscape:window-x="-8"
     inkscape:window-y="-8"
     inkscape:window-maximized="1">
    <inkscape:grid
       type="xygrid"
       id="grid4063" />
  </sodipodi:namedview>
  <metadata
     id="metadata2902">
    <rdf:RDF>
      <cc:Work
         rdf:about="">
        <dc:format>image/svg+xml</dc:format>
        <dc:type
           rdf:resource="http://purl.org/dc/dcmitype/StillImage" />
        <dc:title />
      </cc:Work>
    </rdf:RDF>
  </metadata>
  <g
     inkscape:label="Layer 1"
     inkscape:groupmode="layer"
     id="layer1">
    <path
       style="fill:#ffffff;stroke:#000000;stroke-width:0;stroke-linecap:butt;stroke-linejoin:miter;stroke-miterlimit:4;stroke-dasharray:none;stroke-opacity:1"
       d="m 17.594286,82.185731 c -1.585755,0.304045 -4.559194,0.425677 -7.6318362,1.763647 -3.0726426,1.337969 -6.2442484,3.892186 -7.797054,7.328402 -1.5528056,3.436216 -1.48673049,7.75406 0.1652877,11.06854 1.6520182,3.31447 4.8897015,5.62543 8.5569695,6.5376 3.667267,0.91217 7.763924,0.42566 9.878345,0.15198 2.114422,-0.27368 2.24657,-0.3345 3.43601,0.4562 1.189441,0.79069 3.435992,2.43268 6.772898,3.52733 3.336905,1.09464 7.763939,1.64198 11.992837,1.24664 4.228898,-0.39534 8.25948,-1.73326 10.40701,-2.37179 2.147531,-0.63854 2.411819,-0.57773 3.469058,0.12171 1.057238,0.69943 2.90734,2.03735 5.385238,2.88873 2.477898,0.85138 5.583425,1.21627 8.556858,0.91216 2.973433,-0.30411 5.814665,-1.27715 8.259474,-2.73674 2.444808,-1.45959 4.493139,-3.40566 5.484274,-4.31788 0.991136,-0.91222 0.925052,-0.79058 2.345816,-0.42568 1.420764,0.36491 4.328063,0.97305 7.4006,0.42566 3.072537,-0.54739 6.310219,-2.2502 8.622869,-4.43957 2.31265,-2.18936 3.70023,-4.865211 4.39404,-7.693136 0.69381,-2.827924 0.69381,-5.807844 4e-5,-8.605387 -0.69378,-2.797542 -2.08135,-5.412575 -3.76628,-7.358725 -1.68493,-1.946149 -3.667188,-3.223259 -5.385188,-4.105118 -1.718,-0.881859 -3.171649,-1.368375 -3.964615,-1.581274 -0.792967,-0.2129 -0.925123,-0.152082 -1.288561,-1.246697 -0.363437,-1.094615 -0.958112,-3.344759 -2.345703,-5.89906 -1.387591,-2.5543 -3.56807,-5.412589 -6.310249,-7.602013 -2.74218,-2.189424 -6.045935,-3.709791 -9.415878,-4.56125 -3.369943,-0.851459 -6.80585,-1.033903 -10.043674,-0.243296 -3.237824,0.790607 -6.27728,2.554232 -9.08558,4.895689 -2.808301,2.341456 -5.38523,5.260561 -6.706767,6.780977 -1.321538,1.520417 -1.387615,1.64205 -2.742116,1.398778 -1.354502,-0.243272 -3.997506,-0.851419 -6.772778,-0.760219 -2.775271,0.0912 -5.682575,0.881791 -8.391764,2.098126 -2.709188,1.216335 -5.220043,2.858332 -7.103264,4.774086 -1.883221,1.915754 -3.138647,4.105081 -3.865492,5.443049 -0.726845,1.337968 -0.925071,1.824485 -2.510825,2.128531 z"
       id="path2885"
       inkscape:path-effect="#path-effect2887"
       inkscape:original-d="m 18.981836,82.36815 c -2.973299,0.121761 -5.946738,0.243394 -8.920319,0.364896 -3.1715912,2.554448 -6.3431968,5.108665 -9.51500655,7.662803 0.0662185,4.318145 0.13229381,8.635989 0.1982293,12.953791 3.23795105,2.31117 6.47563145,4.62213 9.71323525,6.933 4.096963,-0.4864 8.193619,-0.97292 12.290218,-1.45957 0.132296,-0.0607 0.264446,-0.12151 0.396458,-0.18245 2.246785,1.64219 4.493338,3.28418 6.739796,4.92608 4.42735,0.54749 8.854384,1.09482 13.281364,1.64203 4.030884,-1.33784 8.061466,-2.67576 12.09199,-4.01384 0.264449,0.061 0.528749,0.12176 0.792916,0.18244 1.850317,1.33811 3.700421,2.67603 5.550419,4.01385 3.105798,0.36503 6.211325,0.72992 9.316777,1.09469 2.841483,-0.97294 5.682715,-1.94598 8.523861,-2.91917 2.048549,-1.94601 4.09688,-3.89208 6.145107,-5.83832 -0.0659,0.12176 -0.132011,0.24339 -0.198232,0.3649 2.907569,0.60829 5.814867,1.21644 8.722094,1.82448 3.237949,-1.70275 6.475627,-3.40556 9.713237,-5.10854 1.38777,-2.67583 2.77535,-5.351676 4.16281,-8.027702 1.4e-4,-2.979908 1.4e-4,-5.959828 0,-8.939937 -1.38749,-2.615006 -2.77507,-5.230037 -4.16281,-7.845251 -1.98219,-1.277031 -3.964447,-2.554138 -5.946876,-3.831402 -1.453577,-0.486407 -2.907226,-0.972924 -4.361051,-1.459582 -0.132011,0.06094 -0.264166,0.121761 -0.396457,0.182448 -0.594554,-2.250103 -1.189235,-4.500246 -1.78406,-6.750564 -2.18043,-2.858276 -4.360908,-5.716565 -6.541569,-8.575042 -3.303747,-1.520299 -6.607503,-3.040665 -9.911466,-4.561193 -3.435904,-0.182322 -6.871811,-0.364766 -10.307922,-0.547343 -3.03944,1.763826 -6.078896,3.527452 -9.118554,5.290984 -2.576889,2.919351 -5.153818,5.838456 -7.73094,8.757488 -0.06593,0.121764 -0.132011,0.243395 -0.198229,0.364896 -2.64297,-0.608041 -5.285974,-1.216189 -7.929172,-1.824477 -2.907282,0.790752 -5.814585,1.581344 -8.722089,2.37182 -2.510815,1.642192 -5.021669,3.284189 -7.532715,4.926089 -1.255336,2.189546 -2.510763,4.378873 -3.766356,6.568117 -0.198093,0.486666 -0.396318,0.973184 -0.594688,1.459581 z" />
    <path
       style="fill:#ffffff;stroke:#55d400;stroke-width:0"
       d="m 168.15719,71.326231 c -2.02031,-0.384644 -5.42434,-2.070078 -7.1028,-3.516798 -1.52504,-1.314488 -2.31151,-1.28265 -6.81718,0.27598 -3.01878,1.044267 -4.58051,1.32995 -8.12563,1.48638 -6.25216,0.275871 -10.49365,-1.008726 -14.44584,-4.375144 -1.25512,-1.0691 -1.39022,-1.090303 -6.94863,-1.090303 -5.33762,0 -5.78607,-0.0625 -7.68006,-1.070456 -3.84343,-2.04543 -5.80193,-4.676745 -6.8185,-9.160885 -1.18106,-5.209703 0.34973,-10.887279 3.91102,-14.505611 2.35123,-2.388885 4.22992,-3.393525 8.16158,-4.364446 1.75202,-0.432662 3.42799,-1.014081 3.72437,-1.292041 0.29638,-0.277959 1.06738,-1.64313 1.71334,-3.033713 1.77795,-3.827462 5.31822,-7.62136 9.06514,-9.7146 4.21856,-2.35671 6.89768,-2.849833 11.55624,-2.127049 l 3.57821,0.555165 1.63955,-2.233429 c 7.43004,-10.1213729 13.34647,-13.8633556 20.18608,-12.767165 8.81177,1.412272 16.37115,9.358883 18.65562,19.611267 0.32752,1.469837 0.66654,2.051571 1.38783,2.381426 5.41298,2.475393 8.53064,5.463735 10.48112,10.046345 4.22,9.914849 1.17028,21.349528 -6.87694,25.784454 -2.87374,1.583752 -5.54231,1.934152 -8.82192,1.158357 l -2.51503,-0.594923 -2.60502,2.653659 c -3.08754,3.145195 -6.80258,5.312761 -10.10222,5.89422 -2.63886,0.465014 -2.75433,0.464998 -5.20033,-7.15e-4 z"
       id="path3478" />
  </g>
</svg>
