<?xml version="1.0" encoding="UTF-8" standalone="no"?>
<svg
   xmlns:dc="http://purl.org/dc/elements/1.1/"
   xmlns:cc="http://creativecommons.org/ns#"
   xmlns:rdf="http://www.w3.org/1999/02/22-rdf-syntax-ns#"
   xmlns:svg="http://www.w3.org/2000/svg"
   xmlns="http://www.w3.org/2000/svg"
   xmlns:xlink="http://www.w3.org/1999/xlink"
   xmlns:sodipodi="http://sodipodi.sourceforge.net/DTD/sodipodi-0.dtd"
   xmlns:inkscape="http://www.inkscape.org/namespaces/inkscape"
   width="210mm"
   height="297mm"
   viewBox="0 0 210 297"
   version="1.1"
   id="svg8130"
   sodipodi:docname="garden.svg"
   inkscape:version="1.0.1 (3bc2e813f5, 2020-09-07)">
  <defs
     id="defs8124">
    <linearGradient
       id="linearGradient6923"
       x1="64.801003"
       x2="182.3"
       y1="246.99001"
       y2="246.99001"
       gradientUnits="userSpaceOnUse"
       xlink:href="#linearGradient1610"
       gradientTransform="translate(-2.2950355,31.912845)" />
    <linearGradient
       id="linearGradient1610">
      <stop
         stop-color="#ff0"
         offset="0"
         id="stop1284" />
      <stop
         stop-color="#f95"
         offset="1"
         id="stop1286" />
    </linearGradient>
    <linearGradient
       id="linearGradient7199"
       x1="135.31"
       x2="160.22"
       y1="205.92"
       y2="205.92"
       gradientUnits="userSpaceOnUse"
       xlink:href="#linearGradient1610"
       gradientTransform="translate(-2.2950355,31.912845)" />
    <linearGradient
       id="linearGradient7364"
       x1="172.66"
       x2="197.96001"
       y1="197.36"
       y2="197.36"
       gradientUnits="userSpaceOnUse"
       xlink:href="#linearGradient1610"
       gradientTransform="translate(-2.2950355,31.912845)" />
  </defs>
  <sodipodi:namedview
     id="base"
     pagecolor="#ffffff"
     bordercolor="#666666"
     borderopacity="1.0"
     inkscape:pageopacity="0.0"
     inkscape:pageshadow="2"
     inkscape:zoom="0.35"
     inkscape:cx="400"
     inkscape:cy="560"
     inkscape:document-units="mm"
     inkscape:current-layer="g1348"
     inkscape:document-rotation="0"
     showgrid="false"
     inkscape:window-width="1366"
     inkscape:window-height="705"
     inkscape:window-x="-8"
     inkscape:window-y="-8"
     inkscape:window-maximized="1" />
  <metadata
     id="metadata8127">
    <rdf:RDF>
      <cc:Work
         rdf:about="">
        <dc:format>image/svg+xml</dc:format>
        <dc:type
           rdf:resource="http://purl.org/dc/dcmitype/StillImage" />
      </cc:Work>
    </rdf:RDF>
  </metadata>
  <g
     inkscape:label="Layer 1"
     inkscape:groupmode="layer"
     id="layer1">
    <g
       fill="#ffffff"
       stroke-width="0"
       id="g1348"
       transform="translate(0.50435213,-32.013428)">
      <path
         d="m 13.677956,192.74172 c -0.85388,1.1708 -2.5616,3.5123 -3.4241,4.683 -0.8624902,1.1707 -0.88009,1.1707 -0.8890401,14.718 -0.00895,13.548 -0.00895,40.64199 -0.0264,54.17199 -0.017449,13.53 -0.0527,13.494 -0.052779,13.468 -7.92e-5,-0.0266 0.035123,-0.0442 1.6813001,-0.0529 1.6462,-0.009 4.9031,-0.009 6.5493,-0.009 1.6462,0 1.6813,0 1.6988,-13.486 0.0175,-13.486 0.01747,-40.457 9e-6,-53.951 -0.01746,-13.495 -0.05266,-13.512 -0.67772,-14.507 -0.62506,-0.99464 -1.8398,-2.9664 -2.6056,-4.1636 -0.76582,-1.1972 -1.0827,-1.6197 -1.2413,-1.8311 -0.15856,-0.21141 -0.15858,-0.21144 -1.0125,0.95934 z"
         id="path1298"
         style="fill:#ffffff;stroke-width:0" />
      <rect
         x="4.8078556"
         y="210.41173"
         width="203.73"
         height="7.1815"
         id="rect1300"
         style="fill:#ffffff;stroke-width:0" />
      <path
         d="m 29.930956,194.18172 c -0.85388,1.1708 -2.5616,3.5123 -3.424101,4.683 -0.862489,1.1707 -0.880089,1.1707 -0.889039,14.718 -0.009,13.548 -0.009,40.64199 -0.0264,54.17199 -0.01745,13.53 -0.0527,13.494 -0.05278,13.468 -7.9e-5,-0.0266 0.03512,-0.0442 1.6813,-0.0529 1.6462,-0.009 4.903099,-0.009 6.5493,-0.009 1.6462,0 1.6813,0 1.698799,-13.486 0.01752,-13.486 0.01746,-40.457 1.1e-5,-53.951 -0.01746,-13.495 -0.05266,-13.512 -0.67772,-14.507 -0.625062,-0.99464 -1.839801,-2.9664 -2.6056,-4.1636 -0.765821,-1.1972 -1.0827,-1.6197 -1.2413,-1.8311 -0.158561,-0.21141 -0.15858,-0.21144 -1.012501,0.95934 z"
         id="path1302"
         style="fill:#ffffff;stroke-width:0" />
      <path
         d="m 48.047956,193.40172 c -0.853882,1.1708 -2.561601,3.5123 -3.4241,4.683 -0.862491,1.1707 -0.880091,1.1707 -0.88904,14.718 -0.0089,13.54799 -0.0089,40.64199 -0.0264,54.17199 -0.01746,13.53 -0.0527,13.494 -0.05278,13.468 -7.9e-5,-0.0266 0.03512,-0.0442 1.6813,-0.0529 1.646201,-0.009 4.9031,-0.009 6.5493,-0.009 1.646201,0 1.6813,0 1.6988,-13.486 0.01749,-13.486 0.01746,-40.457 1.1e-5,-53.951 -0.01746,-13.495 -0.05266,-13.512 -0.67772,-14.507 -0.625062,-0.99465 -1.839801,-2.9664 -2.605601,-4.1636 -0.76582,-1.1972 -1.082701,-1.6197 -1.241301,-1.8311 -0.158559,-0.21141 -0.15858,-0.21144 -1.012499,0.95934 z"
         id="path1304"
         style="fill:#ffffff;stroke-width:0" />
      <path
         d="m 66.039956,193.93172 c -0.853882,1.1708 -2.561601,3.5123 -3.4241,4.683 -0.862491,1.1707 -0.880091,1.1707 -0.889042,14.718 -0.0089,13.54799 -0.0089,40.64199 -0.02641,54.17199 -0.01746,13.53 -0.0527,13.494 -0.05278,13.468 -8e-5,-0.0266 0.03512,-0.0442 1.6813,-0.0529 1.6462,-0.009 4.903099,-0.009 6.5493,-0.009 1.6462,0 1.6813,0 1.698799,-13.486 0.01749,-13.486 0.01746,-40.457 1.1e-5,-53.951 -0.01746,-13.495 -0.05266,-13.512 -0.677722,-14.507 -0.62506,-0.99465 -1.839799,-2.9664 -2.605598,-4.1636 -0.765821,-1.1972 -1.082702,-1.6197 -1.241301,-1.8311 -0.15856,-0.21141 -0.158581,-0.21144 -1.0125,0.95934 z"
         id="path1306"
         style="fill:#ffffff;stroke-width:0" />
      <path
         d="m 81.914956,193.93172 c -0.853882,1.1708 -2.561601,3.5123 -3.4241,4.683 -0.862491,1.1707 -0.880091,1.1707 -0.889042,14.718 -0.0089,13.54799 -0.0089,40.64199 -0.02641,54.17199 -0.01744,13.53 -0.0527,13.494 -0.05278,13.468 -7.9e-5,-0.0266 0.03512,-0.0442 1.6813,-0.0529 1.646201,-0.009 4.9031,-0.009 6.5493,-0.009 1.646201,0 1.6813,0 1.6988,-13.486 0.01749,-13.486 0.01746,-40.457 1.1e-5,-53.951 -0.01746,-13.495 -0.05266,-13.512 -0.677723,-14.507 -0.625059,-0.99465 -1.839798,-2.9664 -2.605598,-4.1636 -0.76582,-1.1972 -1.082701,-1.6197 -1.2413,-1.8311 -0.15856,-0.21141 -0.158581,-0.21144 -1.0125,0.95934 z"
         id="path1308"
         style="fill:#ffffff;stroke-width:0" />
      <path
         d="m 97.789953,193.40172 c -0.853879,1.1708 -2.561598,3.5123 -3.4241,4.683 -0.862488,1.1707 -0.880088,1.1707 -0.889039,14.718 -0.0089,13.54799 -0.0089,40.64199 -0.02641,54.17199 -0.01744,13.53 -0.0527,13.494 -0.05278,13.468 -7.9e-5,-0.0266 0.03512,-0.0442 1.6813,-0.0529 1.646201,-0.009 4.9031,-0.009 6.549306,-0.009 1.6462,0 1.6813,0 1.6988,-13.486 0.0175,-13.486 0.0175,-40.457 1e-5,-53.951 -0.0175,-13.495 -0.0527,-13.512 -0.67772,-14.507 -0.62506,-0.99465 -1.8398,-2.9664 -2.60561,-4.1636 -0.765816,-1.1972 -1.082695,-1.6197 -1.241296,-1.8311 -0.15856,-0.21141 -0.158581,-0.21144 -1.0125,0.95934 z"
         id="path1310"
         style="fill:#ffffff;stroke-width:0" />
      <path
         d="m 113.65995,193.93172 c -0.85387,1.1708 -2.5616,3.5123 -3.4241,4.683 -0.86248,1.1707 -0.88008,1.1707 -0.88903,14.718 -0.009,13.54799 -0.009,40.64199 -0.0264,54.17199 -0.0174,13.53 -0.0527,13.494 -0.0528,13.468 -8e-5,-0.0266 0.0351,-0.0442 1.6813,-0.0529 1.6462,-0.009 4.9031,-0.009 6.5492,-0.009 1.6461,0 1.6813,0 1.6988,-13.486 0.0175,-13.486 0.0175,-40.457 10e-6,-53.951 -0.0175,-13.495 -0.0527,-13.512 -0.67772,-14.507 -0.62506,-0.99465 -1.8398,-2.9664 -2.6056,-4.1636 -0.76582,-1.1972 -1.0827,-1.6197 -1.2413,-1.8311 -0.15856,-0.21141 -0.15858,-0.21144 -1.0125,0.95934 z"
         id="path1312"
         style="fill:#ffffff;stroke-width:0" />
      <path
         d="m 130.06996,193.93172 c -0.85388,1.1708 -2.56161,3.5123 -3.4241,4.683 -0.8625,1.1707 -0.8801,1.1707 -0.88904,14.718 -0.009,13.54799 -0.009,40.64199 -0.0264,54.17199 -0.0174,13.53 -0.0527,13.494 -0.0528,13.468 -8e-5,-0.0266 0.0351,-0.0442 1.6813,-0.0529 1.6462,-0.009 4.9031,-0.009 6.5492,-0.009 1.6461,0 1.6813,0 1.6988,-13.486 0.0175,-13.486 0.0175,-40.457 1e-5,-53.951 -0.0175,-13.495 -0.0527,-13.512 -0.67772,-14.507 -0.62506,-0.99465 -1.8398,-2.9664 -2.6056,-4.1636 -0.76582,-1.1972 -1.0827,-1.6197 -1.2413,-1.8311 -0.15856,-0.21141 -0.15858,-0.21144 -1.0125,0.95934 z"
         id="path1314"
         style="fill:#ffffff;stroke-width:0" />
      <path
         d="m 147.52996,193.93172 c -0.85388,1.1708 -2.56161,3.5123 -3.4241,4.683 -0.8625,1.1707 -0.8801,1.1707 -0.88904,14.718 -0.009,13.54799 -0.009,40.64199 -0.0264,54.17199 -0.0174,13.53 -0.0527,13.494 -0.0528,13.468 -8e-5,-0.0266 0.0351,-0.0442 1.6813,-0.0529 1.6462,-0.009 4.9031,-0.009 6.5492,-0.009 1.6461,0 1.6813,0 1.6988,-13.486 0.0175,-13.486 0.0175,-40.457 1e-5,-53.951 -0.0175,-13.495 -0.0527,-13.512 -0.67772,-14.507 -0.62506,-0.99465 -1.8398,-2.9664 -2.6056,-4.1636 -0.76582,-1.1972 -1.0827,-1.6197 -1.2413,-1.8311 -0.15856,-0.21141 -0.15858,-0.21144 -1.0125,0.95934 z"
         id="path1316"
         style="fill:#ffffff;stroke-width:0" />
      <path
         d="m 164.98995,193.93172 c -0.85387,1.1708 -2.5616,3.5123 -3.4241,4.683 -0.86249,1.1707 -0.88009,1.1707 -0.88903,14.718 -0.009,13.54799 -0.009,40.64199 -0.0264,54.17199 -0.0174,13.53 -0.0527,13.494 -0.0528,13.468 -8e-5,-0.0266 0.0351,-0.0442 1.6813,-0.0529 1.6462,-0.009 4.9031,-0.009 6.5492,-0.009 1.6461,0 1.6813,0 1.6988,-13.486 0.0175,-13.486 0.0175,-40.457 1e-5,-53.951 -0.0175,-13.495 -0.0527,-13.512 -0.67772,-14.507 -0.62506,-0.99465 -1.8398,-2.9664 -2.6056,-4.1636 -0.76582,-1.1972 -1.0827,-1.6197 -1.2413,-1.8311 -0.15856,-0.21141 -0.15858,-0.21144 -1.0125,0.95934 z"
         id="path1318"
         style="fill:#ffffff;stroke-width:0" />
      <path
         d="m 183.51995,193.40172 c -0.85388,1.1708 -2.56159,3.5123 -3.4241,4.683 -0.86249,1.1707 -0.88009,1.1707 -0.88904,14.718 -0.009,13.54799 -0.009,40.64199 -0.0264,54.17199 -0.0174,13.53 -0.0527,13.494 -0.0528,13.468 -8e-5,-0.0266 0.0351,-0.0442 1.6813,-0.0529 1.6462,-0.009 4.9031,-0.009 6.5492,-0.009 1.6461,0 1.6813,0 1.6988,-13.486 0.0175,-13.486 0.0175,-40.457 1e-5,-53.951 -0.0175,-13.495 -0.0527,-13.512 -0.67772,-14.507 -0.62506,-0.99465 -1.8398,-2.9664 -2.6056,-4.1636 -0.76582,-1.1972 -1.0827,-1.6197 -1.2413,-1.8311 -0.15856,-0.21141 -0.15858,-0.21144 -1.0125,0.95934 z"
         id="path1320"
         style="fill:#ffffff;stroke-width:0" />
      <path
         d="m 199.38995,193.93172 c -0.85388,1.1708 -2.5616,3.5123 -3.4241,4.683 -0.86249,1.1707 -0.88009,1.1707 -0.88904,14.718 -0.009,13.54799 -0.009,40.64199 -0.0264,54.17199 -0.0174,13.53 -0.0527,13.494 -0.0528,13.468 -8e-5,-0.0266 0.0351,-0.0442 1.6813,-0.0529 1.6462,-0.009 4.9031,-0.009 6.5492,-0.009 1.6461,0 1.6813,0 1.6988,-13.486 0.0175,-13.486 0.0175,-40.457 1e-5,-53.951 -0.0175,-13.495 -0.0527,-13.512 -0.67772,-14.507 -0.62506,-0.99465 -1.8398,-2.9664 -2.6056,-4.1636 -0.76582,-1.1972 -1.0827,-1.6197 -1.2413,-1.8311 -0.15856,-0.21141 -0.15858,-0.21144 -1.0125,0.95934 z"
         id="path1322"
         style="fill:#ffffff;stroke-width:0" />
    </g>
    <path
       d="m 19.115036,240.28716 c 0.12315,0.25946 0.04674,0.64358 0.0085,0.81821 -0.0382,0.17463 -0.0382,0.13973 -0.840509,0.13966 -0.80231,-7e-5 -2.407,0.0349 -3.8589,0.50628 -1.451901,0.47143 -2.751001,1.3794 -3.553301,2.6715 -0.80238,1.2921 -1.1080005,2.9683 -0.70678,4.3128 0.40125,1.3445 1.5092,2.3572 2.6555,3.073 1.1462,0.71585 2.330601,1.1349 2.903701,1.3444 0.5731,0.2095 0.5349,0.2095 0.649479,0.85561 0.114581,0.64611 0.38203,1.9382 1.069801,2.9858 0.68779,1.0476 1.795799,1.8508 3.381399,2.3571 1.5856,0.50631 3.6488,0.71583 5.3108,0.41898 1.662,-0.29685 2.9228,-1.1 3.5341,-1.4841 0.61131,-0.38413 0.57306,-0.34917 1.4519,-0.17456 0.87884,0.17461 2.674599,0.48889 4.412999,0.64603 1.7384,0.15713 3.419501,0.15713 5.463601,-0.17464 2.044099,-0.33176 4.451098,-0.99525 5.692899,-1.327 1.241801,-0.33174 1.318199,-0.33174 1.833999,-0.2095 0.5158,0.12224 1.471001,0.36668 2.521701,0.36665 1.050701,-3e-5 2.196899,-0.24447 3.056499,-0.68097 0.859631,-0.43651 1.4327,-1.0651 1.700202,-1.3269 0.267438,-0.26188 0.229229,-0.15711 0.840639,0.13971 0.61141,0.29682 1.8722,0.7857 3.343198,0.94281 1.471002,0.15711 3.152101,-0.0175 4.5466,-0.64607 1.394503,-0.62858 2.502501,-1.7111 3.037401,-2.8809 0.5349,-1.1698 0.496692,-2.4269 0.07646,-3.5269 -0.420238,-1.1 -1.2226,-2.0428 -1.852999,-2.5667 -0.63041,-0.52386 -1.088901,-0.62862 -1.280001,-0.69848 -0.191091,-0.0699 -0.11465,-0.10479 0.07636,-0.55873 0.191011,-0.45394 0.49666,-1.3269 0.53489,-2.1825 0.03823,-0.85554 -0.191011,-1.6936 -0.51574,-2.3397 -0.324731,-0.6461 -0.745011,-1.1 -0.897879,-1.362 -0.152871,-0.262 -0.03823,-0.33182 0.229187,-1.0302 0.267423,-0.69838 0.687703,-2.0254 0.496703,-3.3698 -0.191,-1.3444 -0.993331,-2.7063 -2.063102,-3.6667 -1.069769,-0.9604 -2.406999,-1.5191 -3.037499,-1.8159 -0.630499,-0.2968 -0.55404,-0.33179 -0.783291,-1.1 -0.229248,-0.76819 -0.76414,-2.2698 -1.700199,-3.3523 -0.936051,-1.0826 -2.2733,-1.7461 -3.763399,-1.9731 -1.490102,-0.22703 -3.133,-0.0175 -4.1837,0.27932 -1.0507,0.29683 -1.509202,0.68095 -2.349701,0.85557 -0.840521,0.17461 -2.063099,0.13969 -2.961,0.2619 -0.897901,0.12221 -1.471001,0.40157 -1.757601,0.48894 -0.286578,0.0874 -0.286578,-0.0174 -0.687718,-0.61105 -0.40114,-0.59366 -1.203502,-1.6762 -2.3115,-2.4445 -1.108001,-0.76831 -2.521601,-1.2223 -4.088202,-1.3096 -1.5665,-0.0873 -3.285799,0.19203 -4.584898,0.75077 -1.2991,0.55875 -2.1779,1.3968 -2.751,2.3398 -0.57312,0.94291 -0.84057,1.9905 -0.80232,2.881 0.03825,0.89052 0.38211,1.6238 0.4394,2.0777 0.05729,0.4539 -0.17195,0.6285 -0.34382,0.69837 -0.17188,0.0699 -0.28649,0.0349 -0.94788,-0.22372 -0.66139,-0.25866 -1.8695,-0.74107 -3.2165,-0.87736 -1.3471,-0.13629 -2.8329,0.0736 -4.1028,0.64771 -1.2698,0.57411 -2.3235,1.5124 -3.012399,2.5681 -0.68894,1.0557 -1.013101,2.2285 -0.82396,3.3212 0.189169,1.0927 0.89159,2.1051 1.6008,2.8644 0.709219,0.75929 1.425099,1.2655 1.9446,1.586 0.5195,0.3205 0.842279,0.45524 0.965429,0.7147 z"
       fill="#5fb707"
       opacity="0.97742"
       stroke-width="0"
       id="path1350" />
    <path
       d="m 15.017037,239.88716 c 0.14844,0.31481 0.05633,0.78087 0.01029,0.99275 -0.04604,0.21189 -0.04604,0.16949 -1.0131,0.16942 -0.96707,-7e-5 -2.9013,0.0423 -4.6514005,0.61429 -1.7501,0.57199 -3.3159,1.6736 -4.283,3.2413 -0.96715,1.5678 -1.3356,3.6014 -0.85192,5.2327 0.48368,1.6313 1.8192,2.86 3.2008,3.7285 1.3816,0.86854 2.8092005,1.377 3.5000005,1.6312 0.69079,0.25419 0.64474,0.25419 0.78285,1.0381 0.13811,0.78392 0.46048,2.3516 1.2895,3.6226 0.82903,1.2711 2.1646,2.2456 4.0758,2.8599 1.9112,0.61432 4.3981,0.86853 6.4013,0.50836 2.0033,-0.36018 3.523,-1.3346 4.2598,-1.8007 0.73684,-0.46606 0.69077,-0.42368 1.7501,-0.21181 1.0593,0.21186 3.223801,0.59318 5.319201,0.78383 2.095399,0.19065 4.1217,0.19065 6.585598,-0.21188 2.4639,-0.40254 5.365202,-1.2075 6.8619,-1.61 1.496801,-0.4025 1.588802,-0.4025 2.210601,-0.25418 0.6218,0.14832 1.7731,0.4449 3.039499,0.44486 1.2665,-4e-5 2.648001,-0.29662 3.684202,-0.82623 1.036198,-0.52961 1.726898,-1.2922 2.049298,-1.61 0.32236,-0.31773 0.276302,-0.19062 1.013301,0.16952 0.737,0.36014 2.2567,0.9533 4.0298,1.1439 1.7731,0.19063 3.799398,-0.0212 5.480299,-0.78388 1.680901,-0.76266 3.016401,-2.0761 3.661201,-3.4954 0.644739,-1.4193 0.598689,-2.9446 0.09215,-4.2792 -0.506539,-1.3346 -1.473599,-2.4786 -2.233499,-3.1142 -0.759859,-0.6356 -1.3125,-0.7627 -1.542801,-0.84746 -0.230338,-0.0848 -0.138179,-0.12715 0.09205,-0.67792 0.23023,-0.55077 0.598639,-1.61 0.644729,-2.648 0.04608,-1.038 -0.23023,-2.0549 -0.621649,-2.8387 -0.391419,-0.78385 -0.898001,-1.3346 -1.082202,-1.6525 -0.184247,-0.31786 -0.0461,-0.40259 0.276252,-1.25 0.322339,-0.84735 0.828918,-2.4574 0.598699,-4.0886 -0.230219,-1.6312 -1.1973,-3.2836 -2.4868,-4.4488 -1.2895,-1.1652 -2.901299,-1.8431 -3.661299,-2.2033 -0.75996,-0.36018 -0.66779,-0.40258 -0.944131,-1.3346 -0.276328,-0.93205 -0.92107,-2.7539 -2.049299,-4.0674 -1.128231,-1.3135 -2.740101,-2.1185 -4.536199,-2.394 -1.7961,-0.27544 -3.776401,-0.0212 -5.0429,0.33891 -1.266502,0.36015 -1.819201,0.82621 -2.832301,1.0381 -1.0131,0.21185 -2.4868,0.16948 -3.5691,0.31776 -1.082299,0.14828 -1.7731,0.48723 -2.1185,0.59324 -0.345429,0.106 -0.345429,-0.0211 -0.828939,-0.7414 -0.483511,-0.72028 -1.4506,-2.0337 -2.7861,-2.9659 -1.3355,-0.93219 -3.039502,-1.483 -4.927701,-1.5889 -1.888199,-0.10596 -3.9606,0.23299 -5.5265,0.91092 -1.5659,0.67793 -2.6251,1.6948 -3.3159,2.8388 -0.6908,1.144 -1.0132,2.4151 -0.96708,3.4956 0.0461,1.0805 0.46058,1.9702 0.52963,2.5209 0.06905,0.55072 -0.20726,0.76256 -0.41443,0.84734 -0.20717,0.0848 -0.34533,0.0424 -1.1425,-0.27144 -0.7972,-0.31384 -2.2534,-0.89913 -3.8771,-1.0645 -1.6237,-0.16537 -3.4147,0.0893 -4.9453,0.78586 -1.5306,0.69658 -2.8006,1.835 -3.631,3.1159 -0.8304205,1.2808 -1.2212005,2.7039 -0.9931605,4.0297 0.22802,1.3258 1.0747005,2.5541 1.9295005,3.4753 0.85485,0.92125 1.7178,1.5354 2.3439,1.9242 0.6261,0.3888 1.0152,0.55234 1.1637,0.86715 z"
       fill="#5fb707"
       opacity="0.729"
       stroke-width="0"
       id="path1352" />
    <g
       fill="#ffffff"
       stroke-width="0"
       id="g1370"
       transform="translate(2.2950355,-31.912835)">
      <path
         d="m 55.519,252.56 a 5.4288,5.4819 0 0 0 -1.0782,3.2788 5.4288,5.4819 0 0 0 0.93252,3.072 5.4288,5.4819 0 0 0 1.0782,-3.2789 A 5.4288,5.4819 0 0 0 55.519,252.56 Z"
         id="path1354" />
      <path
         d="m 55.374,258.91 a 5.4288,5.4819 0 0 0 -1.0782,3.2788 5.4288,5.4819 0 0 0 0.93252,3.072 5.4288,5.4819 0 0 0 1.0782,-3.2789 A 5.4288,5.4819 0 0 0 55.374,258.91 Z"
         id="path1356" />
      <path
         d="m 61.548,258.9 a 5.5853,5.3284 89.411 0 0 -3.2138,-1.0239 5.5853,5.3284 89.411 0 0 -2.9608,1.0387 5.5853,5.3284 89.411 0 0 3.2139,1.0239 5.5853,5.3284 89.411 0 0 2.9607,-1.0387 z"
         id="path1358" />
      <path
         d="m 55.374,258.91 a 5.5853,5.3284 89.411 0 0 -3.2138,-1.0239 5.5853,5.3284 89.411 0 0 -2.9608,1.0387 5.5853,5.3284 89.411 0 0 3.2139,1.0239 5.5853,5.3284 89.411 0 0 2.9607,-1.0387 z"
         id="path1360" />
      <path
         d="m 60.209,253.93 a 6.4379,5.7886 84.949 0 0 -3.2765,1.7214 6.4379,5.7886 84.949 0 0 -1.615,3.2829 6.4379,5.7886 84.949 0 0 3.2765,-1.7215 6.4379,5.7886 84.949 0 0 1.6149,-3.2828 z"
         id="path1362" />
      <path
         d="m 55.374,258.91 a 6.4379,5.7886 84.949 0 0 -3.2765,1.7214 6.4379,5.7886 84.949 0 0 -1.615,3.2829 6.4379,5.7886 84.949 0 0 3.2765,-1.7215 6.4379,5.7886 84.949 0 0 1.6149,-3.2828 z"
         id="path1364" />
      <path
         d="m 55.374,258.91 a 5.9512,6.2619 81.504 0 0 -1.5915,-3.4125 5.9512,6.2619 81.504 0 0 -3.1499,-1.7424 5.9512,6.2619 81.504 0 0 1.5915,3.4126 5.9512,6.2619 81.504 0 0 3.1498,1.7423 z"
         id="path1366" />
      <path
         d="m 60.115,264.07 a 5.9512,6.2619 81.504 0 0 -1.5915,-3.4125 5.9512,6.2619 81.504 0 0 -3.1499,-1.7424 5.9512,6.2619 81.504 0 0 1.5915,3.4126 5.9512,6.2619 81.504 0 0 3.1498,1.7423 z"
         id="path1368" />
    </g>
    <ellipse
       cx="57.578033"
       cy="227.01717"
       rx="1.3195"
       ry="1.3316998"
       fill="#ffff00"
       stroke-width="0"
       id="ellipse1372" />
    <g
       fill="#ffffff"
       stroke-width="0"
       id="g1390"
       transform="translate(2.2950355,-31.912835)">
      <path
         d="m 34.73,257.1 a 5.4288,5.4819 0 0 0 -1.0782,3.2788 5.4288,5.4819 0 0 0 0.93252,3.072 5.4288,5.4819 0 0 0 1.0782,-3.2789 A 5.4288,5.4819 0 0 0 34.73,257.1 Z"
         id="path1374" />
      <path
         d="m 34.585,263.45 a 5.4288,5.4819 0 0 0 -1.0782,3.2788 5.4288,5.4819 0 0 0 0.93252,3.072 5.4288,5.4819 0 0 0 1.0782,-3.2789 A 5.4288,5.4819 0 0 0 34.585,263.45 Z"
         id="path1376" />
      <path
         d="m 40.759,263.43 a 5.5853,5.3284 89.411 0 0 -3.2138,-1.0239 5.5853,5.3284 89.411 0 0 -2.9608,1.0387 5.5853,5.3284 89.411 0 0 3.2139,1.0239 5.5853,5.3284 89.411 0 0 2.9607,-1.0387 z"
         id="path1378" />
      <path
         d="m 34.585,263.45 a 5.5853,5.3284 89.411 0 0 -3.2138,-1.0239 5.5853,5.3284 89.411 0 0 -2.9608,1.0387 5.5853,5.3284 89.411 0 0 3.2139,1.0239 5.5853,5.3284 89.411 0 0 2.9607,-1.0387 z"
         id="path1380" />
      <path
         d="m 39.42,258.47 a 6.4379,5.7886 84.949 0 0 -3.2765,1.7214 6.4379,5.7886 84.949 0 0 -1.615,3.2829 6.4379,5.7886 84.949 0 0 3.2765,-1.7215 6.4379,5.7886 84.949 0 0 1.6149,-3.2828 z"
         id="path1382" />
      <path
         d="m 34.585,263.45 a 6.4379,5.7886 84.949 0 0 -3.2765,1.7214 6.4379,5.7886 84.949 0 0 -1.615,3.2829 6.4379,5.7886 84.949 0 0 3.2765,-1.7215 6.4379,5.7886 84.949 0 0 1.6149,-3.2828 z"
         id="path1384" />
      <path
         d="m 34.585,263.45 a 5.9512,6.2619 81.504 0 0 -1.5915,-3.4125 5.9512,6.2619 81.504 0 0 -3.1499,-1.7424 5.9512,6.2619 81.504 0 0 1.5915,3.4126 5.9512,6.2619 81.504 0 0 3.1498,1.7423 z"
         id="path1386" />
      <path
         d="m 39.326,268.6 a 5.9512,6.2619 81.504 0 0 -1.5915,-3.4125 5.9512,6.2619 81.504 0 0 -3.1499,-1.7424 5.9512,6.2619 81.504 0 0 1.5915,3.4126 5.9512,6.2619 81.504 0 0 3.1498,1.7423 z"
         id="path1388" />
    </g>
    <ellipse
       cx="36.789032"
       cy="231.55717"
       rx="1.3195"
       ry="1.3316998"
       fill="#ffff00"
       stroke-width="0"
       id="ellipse1392" />
    <g
       fill="#ffffff"
       stroke-width="0"
       id="g1410"
       transform="translate(2.2950355,-31.912835)">
      <path
         d="m 21.707,271.01 a 5.4288,5.4819 0 0 0 -1.0782,3.2788 5.4288,5.4819 0 0 0 0.93252,3.072 5.4288,5.4819 0 0 0 1.0782,-3.2789 A 5.4288,5.4819 0 0 0 21.707,271.01 Z"
         id="path1394" />
      <path
         d="m 21.561,277.36 a 5.4288,5.4819 0 0 0 -1.0782,3.2788 5.4288,5.4819 0 0 0 0.93252,3.072 5.4288,5.4819 0 0 0 1.0782,-3.2789 A 5.4288,5.4819 0 0 0 21.561,277.36 Z"
         id="path1396" />
      <path
         d="m 27.736,277.34 a 5.5853,5.3284 89.411 0 0 -3.2138,-1.0239 5.5853,5.3284 89.411 0 0 -2.9608,1.0387 5.5853,5.3284 89.411 0 0 3.2139,1.0239 5.5853,5.3284 89.411 0 0 2.9607,-1.0387 z"
         id="path1398" />
      <path
         d="m 21.561,277.36 a 5.5853,5.3284 89.411 0 0 -3.2138,-1.0239 5.5853,5.3284 89.411 0 0 -2.9608,1.0387 5.5853,5.3284 89.411 0 0 3.2139,1.0239 5.5853,5.3284 89.411 0 0 2.9607,-1.0387 z"
         id="path1400" />
      <path
         d="m 26.397,272.38 a 6.4379,5.7886 84.949 0 0 -3.2765,1.7214 6.4379,5.7886 84.949 0 0 -1.615,3.2829 6.4379,5.7886 84.949 0 0 3.2765,-1.7215 6.4379,5.7886 84.949 0 0 1.6149,-3.2828 z"
         id="path1402" />
      <path
         d="m 21.561,277.36 a 6.4379,5.7886 84.949 0 0 -3.2765,1.7214 6.4379,5.7886 84.949 0 0 -1.615,3.2829 6.4379,5.7886 84.949 0 0 3.2765,-1.7215 6.4379,5.7886 84.949 0 0 1.6149,-3.2828 z"
         id="path1404" />
      <path
         d="m 21.561,277.36 a 5.9512,6.2619 81.504 0 0 -1.5915,-3.4125 5.9512,6.2619 81.504 0 0 -3.1499,-1.7424 5.9512,6.2619 81.504 0 0 1.5915,3.4126 5.9512,6.2619 81.504 0 0 3.1498,1.7423 z"
         id="path1406" />
      <path
         d="m 26.303,282.51 a 5.9512,6.2619 81.504 0 0 -1.5915,-3.4125 5.9512,6.2619 81.504 0 0 -3.1499,-1.7424 5.9512,6.2619 81.504 0 0 1.5915,3.4126 5.9512,6.2619 81.504 0 0 3.1498,1.7423 z"
         id="path1408" />
    </g>
    <ellipse
       cx="23.766035"
       cy="245.46718"
       rx="1.3195"
       ry="1.3316998"
       fill="#ffff00"
       stroke-width="0"
       id="ellipse1412" />
    <g
       fill="#ffffff"
       stroke-width="0"
       id="g1430"
       transform="translate(2.2950355,-31.912835)">
      <path
         d="m 61.395,277.06 a 5.4288,5.4819 0 0 0 -1.0782,3.2788 5.4288,5.4819 0 0 0 0.93252,3.072 5.4288,5.4819 0 0 0 1.0782,-3.2789 A 5.4288,5.4819 0 0 0 61.395,277.06 Z"
         id="path1414" />
      <path
         d="m 61.249,283.41 a 5.4288,5.4819 0 0 0 -1.0782,3.2788 5.4288,5.4819 0 0 0 0.93252,3.072 5.4288,5.4819 0 0 0 1.0782,-3.2789 A 5.4288,5.4819 0 0 0 61.249,283.41 Z"
         id="path1416" />
      <path
         d="m 67.424,283.39 a 5.5853,5.3284 89.411 0 0 -3.2138,-1.0239 5.5853,5.3284 89.411 0 0 -2.9608,1.0387 5.5853,5.3284 89.411 0 0 3.2139,1.0239 5.5853,5.3284 89.411 0 0 2.9607,-1.0387 z"
         id="path1418" />
      <path
         d="m 61.249,283.41 a 5.5853,5.3284 89.411 0 0 -3.2138,-1.0239 5.5853,5.3284 89.411 0 0 -2.9608,1.0387 5.5853,5.3284 89.411 0 0 3.2139,1.0239 5.5853,5.3284 89.411 0 0 2.9607,-1.0387 z"
         id="path1420" />
      <path
         d="m 66.085,278.43 a 6.4379,5.7886 84.949 0 0 -3.2765,1.7214 6.4379,5.7886 84.949 0 0 -1.615,3.2829 6.4379,5.7886 84.949 0 0 3.2765,-1.7215 6.4379,5.7886 84.949 0 0 1.6149,-3.2828 z"
         id="path1422" />
      <path
         d="m 61.249,283.41 a 6.4379,5.7886 84.949 0 0 -3.2765,1.7214 6.4379,5.7886 84.949 0 0 -1.615,3.2829 6.4379,5.7886 84.949 0 0 3.2765,-1.7215 6.4379,5.7886 84.949 0 0 1.6149,-3.2828 z"
         id="path1424" />
      <path
         d="m 61.249,283.41 a 5.9512,6.2619 81.504 0 0 -1.5915,-3.4125 5.9512,6.2619 81.504 0 0 -3.1499,-1.7424 5.9512,6.2619 81.504 0 0 1.5915,3.4126 5.9512,6.2619 81.504 0 0 3.1498,1.7423 z"
         id="path1426" />
      <path
         d="m 65.99,288.56 a 5.9512,6.2619 81.504 0 0 -1.5915,-3.4125 5.9512,6.2619 81.504 0 0 -3.1499,-1.7424 5.9512,6.2619 81.504 0 0 1.5915,3.4126 5.9512,6.2619 81.504 0 0 3.1498,1.7423 z"
         id="path1428" />
    </g>
    <ellipse
       cx="63.453041"
       cy="251.50717"
       rx="1.3195"
       ry="1.3316998"
       fill="#ffff00"
       stroke-width="0"
       id="ellipse1432" />
    <g
       fill="#ffffff"
       stroke-width="0"
       id="g1450"
       transform="translate(2.2950355,-31.912835)">
      <path
         d="m 44.213,272.17 a 5.4288,5.4819 0 0 0 -1.0782,3.2788 5.4288,5.4819 0 0 0 0.93252,3.072 5.4288,5.4819 0 0 0 1.0782,-3.2789 A 5.4288,5.4819 0 0 0 44.213,272.17 Z"
         id="path1434" />
      <path
         d="m 44.068,278.52 a 5.4288,5.4819 0 0 0 -1.0782,3.2788 5.4288,5.4819 0 0 0 0.93252,3.072 5.4288,5.4819 0 0 0 1.0782,-3.2789 A 5.4288,5.4819 0 0 0 44.068,278.52 Z"
         id="path1436" />
      <path
         d="m 50.242,278.51 a 5.5853,5.3284 89.411 0 0 -3.2138,-1.0239 5.5853,5.3284 89.411 0 0 -2.9608,1.0387 5.5853,5.3284 89.411 0 0 3.2139,1.0239 5.5853,5.3284 89.411 0 0 2.9607,-1.0387 z"
         id="path1438" />
      <path
         d="m 44.068,278.52 a 5.5853,5.3284 89.411 0 0 -3.2138,-1.0239 5.5853,5.3284 89.411 0 0 -2.9608,1.0387 5.5853,5.3284 89.411 0 0 3.2139,1.0239 5.5853,5.3284 89.411 0 0 2.9607,-1.0387 z"
         id="path1440" />
      <path
         d="m 48.903,273.54 a 6.4379,5.7886 84.949 0 0 -3.2765,1.7214 6.4379,5.7886 84.949 0 0 -1.615,3.2829 6.4379,5.7886 84.949 0 0 3.2765,-1.7215 6.4379,5.7886 84.949 0 0 1.6149,-3.2828 z"
         id="path1442" />
      <path
         d="m 44.068,278.52 a 6.4379,5.7886 84.949 0 0 -3.2765,1.7214 6.4379,5.7886 84.949 0 0 -1.615,3.2829 6.4379,5.7886 84.949 0 0 3.2765,-1.7215 6.4379,5.7886 84.949 0 0 1.6149,-3.2828 z"
         id="path1444" />
      <path
         d="m 44.068,278.52 a 5.9512,6.2619 81.504 0 0 -1.5915,-3.4125 5.9512,6.2619 81.504 0 0 -3.1499,-1.7424 5.9512,6.2619 81.504 0 0 1.5915,3.4126 5.9512,6.2619 81.504 0 0 3.1498,1.7423 z"
         id="path1446" />
      <path
         d="m 48.809,283.68 a 5.9512,6.2619 81.504 0 0 -1.5915,-3.4125 5.9512,6.2619 81.504 0 0 -3.1499,-1.7424 5.9512,6.2619 81.504 0 0 1.5915,3.4126 5.9512,6.2619 81.504 0 0 3.1498,1.7423 z"
         id="path1448" />
    </g>
    <ellipse
       cx="46.272034"
       cy="246.62717"
       rx="1.3195"
       ry="1.3316998"
       fill="#ffff00"
       stroke-width="0"
       id="ellipse1452" />
    <g
       stroke-width="0"
       id="g1462"
       transform="translate(2.2950355,-31.912835)">
      <path
         d="m 24.396,269.78 c -0.1285,-0.20726 -0.22838,-0.67154 -0.6895,-0.86392 -0.46112,-0.19238 -1.2833,-0.11254 -1.6625,10e-4 -0.37919,0.11365 -0.31562,0.26081 -0.45695,0.48094 -0.14132,0.22013 -0.48717,0.51332 -1.2002,0.92192 -0.71302,0.40861 -1.7932,0.93269 -2.9274,1.8716 -1.1342,0.93888 -2.3225,2.2924 -3.1801,3.0201 -0.85756,0.72778 -1.3845,0.83007 -1.8228,0.53575 -0.43828,-0.29431 -0.78817,-0.98545 -0.21419,-2.1199 0.57398,-1.13445 2.0721,-2.7122 3.6762,-3.6691 1.6041,-0.95694 3.3141,-1.2929 4.4492,-1.5778 1.1352,-0.28489 1.6957,-0.51876 2.3011,-0.52756 0.60544,-0.009 1.2556,0.20751 1.6248,0.5844 0.3692,0.37689 0.45738,0.914 0.4227,1.2072 -0.03468,0.2932 -0.19204,0.34263 -0.32055,0.13537 z"
         fill="#c87137"
         id="path1454" />
      <path
         d="m 11.664,274.44 c -0.27814,0.0788 -0.83422,0.23638 -1.4867,0.13695 -0.65244,-0.0994 -1.4015,-0.45585 -2.028,-1.2443 -0.62654,-0.78842 -1.1306,-2.009 -0.92775,-3.0414 0.20287,-1.0324 1.113,-1.8763 2.0209,-2.2089 0.90785,-0.33262 1.8132,-0.15368 2.288,-0.0778 0.47478,0.0759 0.51928,0.0486 0.55193,-0.4302 0.03264,-0.47883 0.05328,-1.4094 0.31385,-2.4975 0.26057,-1.0881 0.76119,-2.3335 1.2754,-3.1081 0.51418,-0.77455 1.042,-1.078 1.6845,-0.96206 0.6425,0.11594 1.3992,0.65117 1.9919,1.634 0.59268,0.98284 1.0213,2.413 1.2419,3.4709 0.22063,1.058 0.23336,1.7437 -0.48424,2.4694 -0.71761,0.72564 -2.1653,1.4914 -3.3142,2.4616 -1.149,0.97017 -1.9992,2.1445 -2.4242,2.7316 -0.425,0.5871 -0.42501,0.58702 -0.70315,0.66583 z"
         fill="#e5ff80"
         id="path1456" />
      <path
         d="m 17.03,267.88 c -0.2146,-0.56372 -0.69516,-1.1389 -1.3031,-1.1928 -0.60792,-0.0539 -1.3428,0.4135 -1.6823,1.0565 -0.33955,0.64296 -0.28398,1.4612 0.02351,1.9898 0.30749,0.52853 0.86683,0.76764 1.421,0.68849 0.55421,-0.0792 1.1036,-0.47668 1.4039,-0.95141 0.30036,-0.47472 0.35154,-1.0268 0.13694,-1.5906 z"
         fill="#ffaaaa"
         id="path1458" />
      <path
         d="m 13.685,271.05 c -0.35921,-0.24435 -1.0777,-0.73312 -1.7245,-0.85547 -0.64672,-0.12236 -1.2213,0.1217 -1.46,0.56295 -0.23871,0.44124 -0.14181,1.0794 0.19653,1.5319 0.33834,0.45256 0.91806,0.71984 1.3637,0.83906 0.44564,0.11923 0.75735,0.0904 1.0656,-0.23977 0.3082,-0.3302 0.61295,-0.96209 0.76541,-1.2782 0.15246,-0.31611 0.15246,-0.31614 -0.20675,-0.56048 z"
         fill="#ffaaaa"
         id="path1460" />
    </g>
    <g
       id="g1516"
       transform="translate(2.2950355,-31.912835)">
      <g
         stroke-width="0"
         id="g1472">
        <ellipse
           transform="rotate(54.11)"
           cx="230.5"
           cy="140.64999"
           rx="0.36884001"
           ry="0.29506999"
           opacity="0.83548"
           id="ellipse1464" />
        <ellipse
           transform="rotate(54.11)"
           cx="221.42"
           cy="141.35001"
           rx="0.59015"
           ry="0.7008"
           fill="#ffaaaa"
           opacity="0.83548"
           id="ellipse1466" />
        <ellipse
           transform="rotate(54.11)"
           cx="221.67999"
           cy="143.09"
           rx="0.40573001"
           ry="0.36884001"
           fill="#ffaaaa"
           opacity="0.83548"
           id="ellipse1468" />
        <path
           d="m 133.73,294.47 c 0.61258,-0.056 1.8376,-0.16796 2.45,-0.21588 0.61242,-0.0479 0.61242,-0.0319 0.19136,-0.79169 -0.42107,-0.75977 -1.2632,-2.2953 -2.8839,-8.4855 -1.6206,-6.1902 -4.0195,-17.035 -5.219,-22.489 -1.1995,-5.4544 -1.1995,-5.5183 -1.2555,-6.023 -0.056,-0.50462 -0.16797,-1.4499 -0.22848,-2.5163 -0.0605,-1.0664 -0.0695,-2.254 -0.065,-4.0467 0.005,-1.7927 0.0226,-4.1904 -0.0135,-5.7852 -0.0361,-1.5948 -0.1263,-2.3864 -0.21201,-3.0085 -0.0857,-0.62207 -0.16692,-1.0745 -0.34738,-1.9369 -0.18046,-0.8624 -0.46017,-2.1348 -0.75341,-3.2065 -0.29324,-1.0716 -0.60001,-1.9425 -0.91582,-2.8134 -0.3158,-0.8709 -0.64062,-1.7418 -1.0421,-2.8389 -0.40153,-1.0971 -0.87974,-2.4204 -1.1278,-3.0821 -0.24808,-0.66172 -0.26618,-0.66172 -0.48726,-0.62214 -0.22108,0.0396 -0.64514,0.11874 -0.87072,0.16961 -0.22558,0.0509 -0.25271,0.0735 -0.13992,0.37903 0.11279,0.30549 0.36543,0.89361 0.6722,1.6797 0.30678,0.78608 0.66769,1.77 0.99703,2.6579 0.32935,0.88786 0.6271,1.6796 0.84816,2.3667 0.22105,0.6871 0.36542,1.2696 0.5143,1.869 0.14888,0.5994 0.30226,1.2158 0.43309,1.8351 0.13083,0.61923 0.2391,1.2413 0.3203,1.968 0.0812,0.72668 0.13534,1.558 0.18497,2.3214 0.0496,0.76345 0.0947,1.459 0.10826,2.1744 0.0135,0.71538 -0.005,1.4505 -0.0136,2.2055 -0.009,0.75497 -0.009,1.5297 -0.0181,2.279 -0.009,0.74932 -0.0271,1.4732 -0.0406,2.4091 -0.0136,0.93594 -0.0226,2.0839 0.009,2.9322 0.0316,0.84828 0.10376,1.3968 0.18948,1.9708 0.0857,0.57401 0.18498,1.1734 0.37898,2.2451 0.194,1.0717 0.48273,2.6155 0.76695,4.0717 0.28423,1.4562 0.56393,2.8247 0.75793,3.7663 0.194,0.94159 0.30227,1.4562 0.43762,2.0924 0.13535,0.63622 0.29776,1.394 0.45115,2.132 0.15339,0.73801 0.29775,1.4562 0.45115,2.1998 0.15339,0.74366 0.3158,1.5128 0.60003,2.8332 0.28423,1.3205 0.69025,3.1923 1.0015,4.5863 0.3113,1.394 0.52785,2.3101 0.71733,3.1273 0.18948,0.81718 0.35189,1.5354 0.50528,2.2338 0.15339,0.69842 0.29776,1.377 0.47823,2.1829 0.18046,0.80587 0.39701,1.739 0.591,2.6353 0.19399,0.89635 0.36542,1.7559 0.51431,2.4119 0.14888,0.656 0.2752,1.1084 0.34286,1.3855 0.0677,0.27709 0.0767,0.37889 0.0851,0.48249 0.008,0.10361 0.0161,0.209 0.02,0.26165 0.004,0.0527 0.004,0.0526 0.61655,-0.003 z"
           fill="#3d9526"
           id="path1470" />
      </g>
      <path
         d="m 120.04,210.31 a 10.45,11.151 85.648 0 0 -2.6486,7.6762 10.45,11.151 85.648 0 0 0.0199,0.20421 10.498,11.1 39.908 0 0 -0.7124,-0.56947 10.498,11.1 39.908 0 0 -7.2879,-1.8474 10.498,11.1 39.908 0 0 3.4441,6.5226 11.069,10.527 82.12 0 0 -6.487,3.5762 11.069,10.527 82.12 0 0 7.3683,2.4107 11.122,10.477 34.49 0 0 -0.16007,0.198 11.122,10.477 34.49 0 0 -2.0885,7.172 11.122,10.477 34.49 0 0 6.6586,-3.1933 10.45,11.151 85.648 0 0 3.3789,6.53 10.45,11.151 85.648 0 0 2.6487,-7.6762 10.45,11.151 85.648 0 0 -0.0199,-0.2041 10.498,11.1 39.908 0 0 0.71238,0.56936 10.498,11.1 39.908 0 0 7.2879,1.8474 10.498,11.1 39.908 0 0 -3.4441,-6.5226 11.069,10.527 82.12 0 0 6.4869,-3.5762 11.069,10.527 82.12 0 0 -7.3683,-2.4107 11.122,10.477 34.49 0 0 0.16007,-0.19799 11.122,10.477 34.49 0 0 2.0885,-7.172 11.122,10.477 34.49 0 0 -6.6586,3.1933 10.45,11.151 85.648 0 0 -3.3789,-6.53 z"
         fill="#ff6600"
         stroke-width="0.061441"
         id="path1474" />
      <path
         d="m 126.19,210.85 a 11.119,9.7815 7.9192 0 0 -5.5377,5.5703 11.119,9.7815 7.9192 0 0 -0.0646,0.18182 9.8341,11.059 77.456 0 0 -0.42189,-0.75153 9.8341,11.059 77.456 0 0 -5.9283,-4.2903 9.8341,11.059 77.456 0 0 0.51187,6.8527 10.203,10.659 66.567 0 0 -7.3925,0.64003 10.203,10.659 66.567 0 0 5.7736,4.8014 10.782,10.088 23.074 0 0 -0.22689,0.10952 10.782,10.088 23.074 0 0 -4.8201,5.3482 10.782,10.088 23.074 0 0 7.3946,-0.24915 11.119,9.7815 7.9192 0 0 0.44909,6.8348 11.119,9.7815 7.9192 0 0 5.5377,-5.5703 11.119,9.7815 7.9192 0 0 0.0646,-0.18169 9.8341,11.059 77.456 0 0 0.42191,0.75142 9.8341,11.059 77.456 0 0 5.9283,4.2903 9.8341,11.059 77.456 0 0 -0.51187,-6.8527 10.203,10.659 66.567 0 0 7.3925,-0.64003 10.203,10.659 66.567 0 0 -5.7736,-4.8014 10.782,10.088 23.074 0 0 0.22689,-0.10952 10.782,10.088 23.074 0 0 4.8201,-5.3482 10.782,10.088 23.074 0 0 -7.3946,0.24914 11.119,9.7815 7.9192 0 0 -0.4491,-6.8348 z"
         fill="url(#linearGradient6923)"
         stroke-width="0.059358"
         id="path1476"
         style="fill:url(#linearGradient6923)" />
      <path
         transform="matrix(0.18873,0,0,0.12768,112.32,199.56)"
         d="m 78.137,217.71 -6.9767,-1.3479 0.14465,6.6412 -6.6102,-2.6069 -1.0781,6.5547 -6.0186,-3.7772 -2.2642,6.245 -5.2221,-4.8188 -3.3732,5.7226 -4.2477,-5.6963 -4.3673,5.0054 -3.1287,-6.3798 -5.2126,4.1177 -1.9031,-6.8461 -5.8805,3.0897 -0.61278,-7.0792 -6.3481,1.9566 0.69846,-7.0713 -6.5996,0.75681 1.9859,-6.8225 -6.6263,-0.46874 3.2057,-6.3414 -6.4273,-1.6783 4.3164,-5.6444 -6.0095,-2.8308 5.28,-4.7552 -5.387,-3.8868 6.0639,-3.704 -4.5811,-4.8105 6.6413,-2.5267 -3.6191,-5.5703 6.9925,-1.2634 -2.534,-6.1405 7.1055,0.043 -1.3625,-6.5016 6.9767,1.3479 -0.14465,-6.6412 6.6102,2.6069 1.0781,-6.5547 6.0186,3.7772 2.2642,-6.245 5.2221,4.8188 3.3732,-5.7226 4.2477,5.6963 4.3673,-5.0054 3.1287,6.3798 5.2126,-4.1177 1.9031,6.8461 5.8805,-3.0898 0.61278,7.0792 6.3481,-1.9566 -0.69846,7.0713 6.5996,-0.75681 -1.9859,6.8225 6.6263,0.46874 -3.2057,6.3414 6.4273,1.6783 -4.3164,5.6444 6.0095,2.8308 -5.28,4.7552 5.387,3.8868 -6.0639,3.704 4.5811,4.8105 -6.6413,2.5267 3.6191,5.5703 -6.9925,1.2634 2.534,6.1405 -7.1055,-0.043 z"
         fill="#502d16"
         stroke-width="0.26458"
         id="path1478" />
      <g
         stroke-width="0"
         id="g1494">
        <path
           d="m 128.85,264.37 c 0.0253,-0.14746 0.076,-0.44248 0.36985,-0.92269 0.29381,-0.48021 0.83068,-1.1455 1.4127,-1.7573 0.58202,-0.6118 1.2092,-1.17 1.5031,-1.4355 0.2939,-0.2655 0.25453,-0.23825 0.32981,0.0658 0.0753,0.304 0.26527,0.88452 0.45628,1.3626 0.19101,0.47808 0.38299,0.85384 0.71449,1.1952 0.3315,0.34136 0.80239,0.64841 1.49,0.80551 0.68759,0.15709 1.5918,0.16433 2.5307,-0.0389 0.93887,-0.20325 1.9124,-0.61693 3.0223,-1.1871 1.1098,-0.57016 2.356,-1.2968 3.4399,-1.8829 1.0839,-0.58611 2.0056,-1.0317 2.65,-1.3476 0.64435,-0.31588 1.0114,-0.50201 1.0331,-0.61308 0.0218,-0.11106 -0.30177,-0.14713 -0.68006,-0.25549 -0.37829,-0.10836 -0.81129,-0.28906 -1.4292,-0.67802 -0.61795,-0.38895 -1.4208,-0.98618 -2.2267,-1.4909 -0.8059,-0.50472 -1.6149,-0.91686 -2.5375,-1.2787 -0.92254,-0.36188 -1.9586,-0.67344 -2.8909,-0.81385 -0.9323,-0.14041 -1.7608,-0.10961 -2.565,0.0907 -0.80413,0.20035 -1.5838,0.57028 -2.1465,0.97939 -0.5627,0.4091 -0.90835,0.85733 -1.0953,1.4162 -0.18695,0.55886 -0.21518,1.2282 -0.16984,1.7111 0.0453,0.48289 0.16419,0.77925 0.2246,0.93236 0.0604,0.1531 0.0624,0.1632 -0.18692,0.31857 -0.24938,0.15537 -0.75011,0.45662 -1.3589,0.91459 -0.60881,0.45797 -1.3256,1.0726 -1.7986,1.5326 -0.47295,0.46003 -0.702,0.76543 -0.78509,1.0406 -0.0831,0.27513 -0.0203,0.51983 0.0906,0.75114 0.11083,0.23131 0.26957,0.44921 0.37384,0.56915 0.10427,0.11995 0.15408,0.14203 0.1789,0.15303 0.0248,0.011 0.025,0.0109 0.0503,-0.13656 z"
           fill="#3d9526"
           id="path1480" />
        <path
           d="m 126.21,244.59 c -0.005,-0.12644 -0.0153,-0.37938 0.14749,-0.82829 0.16284,-0.4489 0.49872,-1.0937 0.88264,-1.7021 0.38392,-0.60845 0.81583,-1.1805 1.0176,-1.4518 0.20172,-0.27131 0.1732,-0.24183 0.29208,-0.004 0.11888,0.23823 0.38518,0.68499 0.63385,1.0469 0.24867,0.36191 0.47966,0.63888 0.82297,0.86293 0.34331,0.22405 0.79883,0.39518 1.4114,0.40415 0.61253,0.009 1.382,-0.14413 2.1429,-0.47742 0.76089,-0.3333 1.5132,-0.84675 2.3531,-1.5136 0.83986,-0.66686 1.7672,-1.4871 2.5822,-2.1626 0.81495,-0.67552 1.5174,-1.2062 2.0078,-1.5809 0.49034,-0.37465 0.76849,-0.59317 0.76692,-0.68887 -0.002,-0.0957 -0.28295,-0.0686 -0.6239,-0.0917 -0.34096,-0.0231 -0.74148,-0.0964 -1.3367,-0.30938 -0.59525,-0.21301 -1.3852,-0.56577 -2.1611,-0.84147 -0.77588,-0.27569 -1.5376,-0.47428 -2.3868,-0.61131 -0.8492,-0.13703 -1.7856,-0.21247 -2.603,-0.16459 -0.81742,0.0479 -1.5157,0.21912 -2.1627,0.52632 -0.64694,0.30719 -1.2424,0.75035 -1.6466,1.1877 -0.4042,0.43735 -0.61678,0.86896 -0.67462,1.3641 -0.0578,0.49516 0.0391,1.0538 0.1649,1.4453 0.12577,0.39146 0.28029,0.61569 0.35925,0.73165 0.0789,0.11595 0.0826,0.12416 -0.10121,0.29648 -0.18382,0.17232 -0.55478,0.50961 -0.98924,0.99553 -0.43446,0.48591 -0.93236,1.1204 -1.251,1.5842 -0.31867,0.46374 -0.45808,0.75664 -0.47895,0.99885 -0.0209,0.24221 0.0767,0.43356 0.21268,0.60538 0.13595,0.17183 0.31018,0.32414 0.4204,0.405 0.11021,0.0809 0.1566,0.0904 0.17967,0.0951 0.0231,0.005 0.0232,0.005 0.0181,-0.12185 z"
           fill="#3d9526"
           id="path1482" />
        <path
           d="m 127.09,252.35 c -0.0634,-0.065 -0.19033,-0.19511 -0.30094,-0.49746 -0.1106,-0.30236 -0.2048,-0.77694 -0.0926,-1.1891 0.11218,-0.41211 0.43074,-0.76162 0.65335,-1.005 0.22262,-0.24334 0.34928,-0.38047 0.8495,-0.58067 0.50021,-0.2002 1.3738,-0.46341 2.2616,-0.60347 0.88776,-0.14005 1.7895,-0.15695 2.59,-0.0872 0.8005,0.0697 1.4997,0.22604 1.9355,0.3469 0.43586,0.12087 0.60836,0.20623 1.0499,0.36477 0.44154,0.15854 1.1519,0.39026 1.676,0.5471 0.5241,0.15684 0.86159,0.2388 0.72401,0.26089 -0.13758,0.0221 -0.7503,-0.0156 -1.4156,-0.003 -0.66528,0.0122 -1.3831,0.0744 -1.9613,0.18374 -0.57816,0.10931 -1.0166,0.26573 -1.3401,0.49835 -0.3235,0.23261 -0.53197,0.54135 -0.6588,0.79401 -0.12682,0.25267 -0.17198,0.44915 -0.32409,0.69453 -0.1521,0.24538 -0.41114,0.53967 -0.77418,0.81511 -0.36303,0.27543 -0.83005,0.53199 -1.3336,0.64823 -0.5035,0.11623 -1.0435,0.0921 -1.5685,-0.0613 -0.52497,-0.15343 -1.0349,-0.43622 -1.2938,-0.58222 -0.25895,-0.146 -0.2674,-0.15587 -0.36179,-0.0745 -0.0944,0.0813 -0.27485,0.25363 -0.46075,0.46413 -0.1859,0.2105 -0.37721,0.45915 -0.46663,0.46613 -0.0894,0.007 -0.0769,-0.22776 -0.0577,-0.41003 0.0193,-0.18226 0.0454,-0.31202 0.14136,-0.41827 0.096,-0.10625 0.26175,-0.18886 0.39656,-0.2587 0.1348,-0.0698 0.23856,-0.12684 0.26616,-0.16585 0.0276,-0.039 -0.0211,-0.0601 -0.0455,-0.0707 -0.0244,-0.0105 -0.0247,-0.011 -0.0882,-0.076 z"
           fill="#347820"
           id="path1484" />
        <path
           d="m 129.3,275.09 c -0.0207,-0.11557 -0.0621,-0.34675 -0.30205,-0.72307 -0.23996,-0.37631 -0.67843,-0.89767 -1.1538,-1.3771 -0.47535,-0.47943 -0.98753,-0.91688 -1.2276,-1.1249 -0.24003,-0.20805 -0.20787,-0.18669 -0.26936,0.0515 -0.0615,0.23822 -0.21666,0.69314 -0.37267,1.0678 -0.156,0.37468 -0.31279,0.6691 -0.58352,0.93661 -0.27074,0.26752 -0.65532,0.50813 -1.2169,0.63123 -0.56155,0.12311 -1.3,0.12877 -2.0668,-0.0305 -0.76679,-0.15928 -1.5619,-0.48345 -2.4683,-0.93025 -0.9064,-0.4468 -1.9241,-1.0162 -2.8094,-1.4755 -0.88526,-0.45931 -1.638,-0.8085 -2.1642,-1.056 -0.52625,-0.24753 -0.82599,-0.39339 -0.84377,-0.48043 -0.0178,-0.087 0.24646,-0.11531 0.55541,-0.20023 0.30896,-0.0849 0.66259,-0.22652 1.1673,-0.53133 0.50468,-0.3048 1.1604,-0.77281 1.8186,-1.1683 0.6582,-0.39551 1.3189,-0.71849 2.0724,-1.0021 0.7535,-0.28361 1.5996,-0.52773 2.361,-0.63777 0.76142,-0.11003 1.4381,-0.0859 2.0948,0.0711 0.6567,0.157 1.2935,0.4469 1.753,0.76748 0.45956,0.32059 0.74185,0.67185 0.89454,1.1098 0.15269,0.43795 0.17576,0.9625 0.13873,1.3409 -0.037,0.37842 -0.13409,0.61065 -0.18347,0.73074 -0.0494,0.1201 -0.051,0.12777 0.15262,0.24953 0.20365,0.12176 0.61259,0.35784 1.1098,0.71672 0.49722,0.35888 1.0826,0.84053 1.4689,1.201 0.38627,0.3605 0.57333,0.59982 0.64119,0.81544 0.0679,0.21561 0.0165,0.40736 -0.074,0.58862 -0.0905,0.18126 -0.22016,0.35202 -0.30529,0.446 -0.0851,0.094 -0.12583,0.1113 -0.14611,0.11994 -0.0203,0.009 -0.0203,0.009 -0.041,-0.10698 z"
           fill="#3d9526"
           id="path1486" />
        <path
           d="m 124.45,256.13 c 0.0465,-0.078 0.1395,-0.23417 0.17644,-0.554 0.0369,-0.31982 0.0177,-0.80329 -0.18761,-1.1778 -0.20531,-0.37451 -0.59669,-0.63996 -0.86998,-0.82457 -0.2733,-0.1846 -0.42848,-0.28836 -0.96162,-0.3662 -0.53313,-0.0778 -1.4441,-0.12973 -2.34,-0.0586 -0.89591,0.0712 -1.7767,0.26534 -2.5388,0.52009 -0.76207,0.25476 -1.4054,0.57005 -1.801,0.78936 -0.39557,0.21932 -0.54337,0.34261 -0.93563,0.59987 -0.39226,0.25727 -1.0289,0.64852 -1.5018,0.9234 -0.47289,0.27489 -0.78198,0.43342 -0.64305,0.42277 0.13894,-0.0106 0.72589,-0.19045 1.3756,-0.33394 0.64973,-0.14349 1.3622,-0.25065 1.9499,-0.2794 0.5877,-0.0287 1.0506,0.0209 1.4194,0.17158 0.36889,0.15063 0.6437,0.40213 0.82603,0.6182 0.18233,0.21606 0.27213,0.39655 0.47734,0.59962 0.2052,0.20307 0.52581,0.42872 0.94314,0.61175 0.41732,0.18302 0.93135,0.32342 1.4481,0.31884 0.51672,-0.005 1.0362,-0.15415 1.5108,-0.42596 0.47462,-0.2718 0.90438,-0.66586 1.1221,-0.86836 0.21772,-0.20249 0.22358,-0.21395 0.33434,-0.1569 0.11077,0.0571 0.32647,0.18246 0.55639,0.34373 0.22992,0.16126 0.47402,0.35835 0.56259,0.34425 0.0886,-0.0141 0.0216,-0.23944 -0.0397,-0.41217 -0.0613,-0.17273 -0.117,-0.29279 -0.23514,-0.37368 -0.11815,-0.0809 -0.29861,-0.1225 -0.446,-0.15892 -0.14738,-0.0364 -0.2616,-0.0676 -0.29755,-0.0991 -0.0359,-0.0315 0.006,-0.0634 0.0277,-0.0793 0.0212,-0.016 0.0215,-0.0165 0.0679,-0.0945 z"
           fill="#347820"
           id="path1488" />
        <path
           d="m 125.21,249.14 c 0.004,-0.1017 0.0128,-0.30521 -0.12265,-0.66634 -0.13544,-0.36112 -0.41485,-0.87982 -0.73421,-1.3693 -0.31936,-0.48948 -0.67865,-0.9497 -0.84644,-1.168 -0.16778,-0.21825 -0.14408,-0.19455 -0.24297,-0.003 -0.0989,0.19164 -0.32042,0.55105 -0.52727,0.84218 -0.20686,0.29112 -0.399,0.51395 -0.68459,0.69419 -0.28558,0.18025 -0.6645,0.31791 -1.174,0.32513 -0.50953,0.007 -1.1496,-0.11595 -1.7826,-0.38408 -0.633,-0.26813 -1.2588,-0.68117 -1.9574,-1.2176 -0.69863,-0.53647 -1.4701,-1.1963 -2.148,-1.7398 -0.67792,-0.54343 -1.2623,-0.97039 -1.6702,-1.2718 -0.40788,-0.30139 -0.63927,-0.47718 -0.63796,-0.55417 0.001,-0.077 0.23538,-0.0552 0.519,-0.0737 0.28362,-0.0186 0.61679,-0.0775 1.112,-0.24889 0.49516,-0.17136 1.1523,-0.45514 1.7977,-0.67693 0.6454,-0.22179 1.2791,-0.38155 1.9854,-0.49178 0.70634,-0.11024 1.4854,-0.17092 2.1653,-0.13241 0.67997,0.0385 1.2608,0.17628 1.799,0.4234 0.53816,0.24713 1.0335,0.60363 1.3697,0.9555 0.3362,0.35187 0.51306,0.69905 0.56118,1.0974 0.0481,0.39835 -0.0326,0.84776 -0.13717,1.1627 -0.10463,0.31492 -0.23317,0.49531 -0.29885,0.58848 -0.0657,0.0932 -0.069,0.10002 0.0839,0.23862 0.15286,0.1386 0.46144,0.40994 0.82284,0.80084 0.36141,0.39091 0.77559,0.90135 1.0407,1.2744 0.26509,0.37305 0.38106,0.60869 0.39842,0.80353 0.0174,0.19484 -0.0638,0.34879 -0.17691,0.48702 -0.11309,0.13823 -0.25804,0.26076 -0.34979,0.32582 -0.0918,0.0651 -0.13019,0.0727 -0.14938,0.0765 -0.0192,0.004 -0.019,0.004 -0.0148,-0.098 z"
           fill="#3d9526"
           id="path1490" />
        <path
           d="m 152.75,295.1 c 0.39294,-0.0635 1.1787,-0.19056 1.5529,-0.25408 0.3742,-0.0635 0.3368,-0.0635 0.0748,-0.97392 -0.26198,-0.91041 -0.7484,-2.7313 -1.16,-5.5898 -0.41162,-2.8585 -0.74838,-6.7543 -1.3658,-14.038 -0.61741,-7.2838 -1.5154,-17.955 -1.9832,-24.455 -0.46773,-6.5003 -0.50515,-8.8294 -0.46773,-10.65 0.0374,-1.821 0.14966,-3.1337 0.26192,-4.9758 0.11226,-1.8421 0.22451,-4.2135 0.24641,-6.1657 0.0219,-1.9522 -0.0465,-3.485 -0.15354,-5.0449 -0.10699,-1.56 -0.25251,-3.1469 -0.42449,-4.6442 -0.17198,-1.4973 -0.37042,-2.9046 -0.68793,-4.9183 -0.3175,-2.0137 -0.75406,-4.6338 -0.99881,-6.1609 -0.24474,-1.5272 -0.29766,-1.9613 -0.33075,-2.171 -0.0331,-0.20967 -0.0464,-0.19466 -0.2183,-0.1423 -0.17193,0.0524 -0.50265,0.14219 -0.66805,0.17967 -0.1654,0.0375 -0.1654,0.0226 -0.086,0.42682 0.0794,0.40426 0.23814,1.2277 0.45643,2.5677 0.21828,1.34 0.49609,3.1965 0.72099,4.7611 0.2249,1.5646 0.39687,2.8372 0.5424,4.0724 0.14552,1.2352 0.26458,2.4329 0.35057,3.9077 0.086,1.4748 0.1389,3.2264 0.0992,5.3674 -0.0397,2.141 -0.17198,4.6712 -0.29766,7.0892 -0.12568,2.418 -0.24474,4.7236 -0.30427,6.161 -0.0595,1.4373 -0.0595,2.0062 -0.0132,3.1741 0.0463,1.1679 0.13891,2.9345 0.25136,4.7012 0.11246,1.7667 0.24475,3.5334 0.38366,5.3749 0.1389,1.8416 0.28442,3.7579 0.43656,5.6744 0.15214,1.9165 0.31089,3.8328 0.45641,5.4648 0.14553,1.632 0.27782,2.9794 0.38365,4.297 0.10584,1.3176 0.18521,2.6051 0.30428,4.2595 0.11907,1.6544 0.27782,3.6756 0.42334,5.3674 0.14553,1.6918 0.27782,3.0543 0.41673,4.7012 0.1389,1.6469 0.28442,3.5783 0.44979,5.6669 0.16537,2.0886 0.35058,4.3344 0.4498,5.5471 0.0992,1.2127 0.11246,1.3924 0.18242,1.468 0.07,0.0756 0.19659,0.0472 0.25986,0.033 0.0633,-0.0142 0.0633,-0.0142 0.45623,-0.0777 z"
           fill="#3d9526"
           id="path1492" />
      </g>
      <path
         d="m 145.21,194.36 a 9.0494,9.6754 73.801 0 0 -0.86875,6.9794 9.0494,9.6754 73.801 0 0 0.0536,0.16939 9.1017,9.6198 28.952 0 0 -0.70702,-0.35411 9.1017,9.6198 28.952 0 0 -6.518,-0.25263 9.1017,9.6198 28.952 0 0 4.0955,4.9052 9.5859,9.1339 69.821 0 0 -4.8635,4.1975 9.5859,9.1339 69.821 0 0 6.6875,0.71536 9.6445,9.0783 21.627 0 0 -0.10029,0.19653 9.6445,9.0783 21.627 0 0 -0.48388,6.4515 9.6445,9.0783 21.627 0 0 5.078,-3.904 9.0494,9.6754 73.801 0 0 4.0414,4.9232 9.0494,9.6754 73.801 0 0 0.86875,-6.9794 9.0494,9.6754 73.801 0 0 -0.0536,-0.16929 9.1017,9.6198 28.952 0 0 0.70699,0.35402 9.1017,9.6198 28.952 0 0 6.518,0.25264 9.1017,9.6198 28.952 0 0 -4.0955,-4.9052 9.5859,9.1339 69.821 0 0 4.8635,-4.1975 9.5859,9.1339 69.821 0 0 -6.6875,-0.71534 9.6445,9.0783 21.627 0 0 0.10028,-0.19654 9.6445,9.0783 21.627 0 0 0.48388,-6.4515 9.6445,9.0783 21.627 0 0 -5.078,3.904 9.0494,9.6754 73.801 0 0 -4.0414,-4.9232 z"
         fill="#ff6600"
         stroke-width="0.053258"
         id="path1496" />
      <path
         d="m 149.7,193.63 a 9.6677,9.0566 4.2547 0 0 -3.6245,6.0552 9.6677,9.0566 4.2547 0 0 -0.0198,0.17674 9.0681,9.6555 51.719 0 0 -0.50267,-0.60656 9.0681,9.6555 51.719 0 0 -5.8555,-2.8294 9.0681,9.6555 51.719 0 0 1.7544,6.1312 9.1268,9.5933 7.9098 0 0 -6.1478,1.9116 9.1268,9.5933 7.9098 0 0 5.8228,3.3213 9.6077,9.1132 45.398 0 0 -0.17136,0.1403 9.6077,9.1132 45.398 0 0 -3.0586,5.7244 9.6077,9.1132 45.398 0 0 6.2248,-1.557 9.6677,9.0566 4.2547 0 0 1.6977,6.1261 9.6677,9.0566 4.2547 0 0 3.6245,-6.0552 9.6677,9.0566 4.2547 0 0 0.0198,-0.17662 9.0681,9.6555 51.719 0 0 0.50266,0.60647 9.0681,9.6555 51.719 0 0 5.8555,2.8294 9.0681,9.6555 51.719 0 0 -1.7544,-6.1312 9.1268,9.5933 7.9098 0 0 6.1478,-1.9116 9.1268,9.5933 7.9098 0 0 -5.8228,-3.3213 9.6077,9.1132 45.398 0 0 0.17138,-0.14029 9.6077,9.1132 45.398 0 0 3.0586,-5.7244 9.6077,9.1132 45.398 0 0 -6.2249,1.557 9.6677,9.0566 4.2547 0 0 -1.6977,-6.1261 z"
         fill="url(#linearGradient7199)"
         stroke-width="0.053258"
         id="path1498"
         style="fill:url(#linearGradient7199)" />
      <path
         transform="matrix(0.13877,-0.029438,0.027517,0.12971,136.61,183.45)"
         d="m 78.137,217.71 -6.9767,-1.3479 0.14465,6.6412 -6.6102,-2.6069 -1.0781,6.5547 -6.0186,-3.7772 -2.2642,6.245 -5.2221,-4.8188 -3.3732,5.7226 -4.2477,-5.6963 -4.3673,5.0054 -3.1287,-6.3798 -5.2126,4.1177 -1.9031,-6.8461 -5.8805,3.0897 -0.61278,-7.0792 -6.3481,1.9566 0.69846,-7.0713 -6.5996,0.75681 1.9859,-6.8225 -6.6263,-0.46874 3.2057,-6.3414 -6.4273,-1.6783 4.3164,-5.6444 -6.0095,-2.8308 5.28,-4.7552 -5.387,-3.8868 6.0639,-3.704 -4.5811,-4.8105 6.6413,-2.5267 -3.6191,-5.5703 6.9925,-1.2634 -2.534,-6.1405 7.1055,0.043 -1.3625,-6.5016 6.9767,1.3479 -0.14465,-6.6412 6.6102,2.6069 1.0781,-6.5547 6.0186,3.7772 2.2642,-6.245 5.2221,4.8188 3.3732,-5.7226 4.2477,5.6963 4.3673,-5.0054 3.1287,6.3798 5.2126,-4.1177 1.9031,6.8461 5.8805,-3.0898 0.61278,7.0792 6.3481,-1.9566 -0.69846,7.0713 6.5996,-0.75681 -1.9859,6.8225 6.6263,0.46874 -3.2057,6.3414 6.4273,1.6783 -4.3164,5.6444 6.0095,2.8308 -5.28,4.7552 5.387,3.8868 -6.0639,3.704 4.5811,4.8105 -6.6413,2.5267 3.6191,5.5703 -6.9925,1.2634 2.534,6.1405 -7.1055,-0.043 z"
         fill="#502d16"
         stroke-width="0.26458"
         id="path1500" />
      <g
         stroke-width="0"
         id="g1514">
        <path
           d="m 149.75,229.52 c -0.005,-0.12643 -0.0153,-0.37938 0.14749,-0.82829 0.16284,-0.4489 0.49872,-1.0937 0.88264,-1.7021 0.38392,-0.60845 0.81583,-1.1805 1.0176,-1.4518 0.20172,-0.27131 0.1732,-0.24183 0.29208,-0.004 0.11888,0.23823 0.38518,0.68499 0.63385,1.0469 0.24867,0.36191 0.47966,0.63888 0.82297,0.86293 0.34331,0.22405 0.79883,0.39518 1.4114,0.40415 0.61253,0.009 1.382,-0.14413 2.1429,-0.47742 0.76089,-0.3333 1.5132,-0.84675 2.3531,-1.5136 0.83986,-0.66686 1.7672,-1.4871 2.5822,-2.1626 0.81495,-0.67552 1.5174,-1.2062 2.0078,-1.5809 0.49034,-0.37465 0.76849,-0.59317 0.76692,-0.68887 -0.002,-0.0957 -0.28295,-0.0686 -0.6239,-0.0917 -0.34096,-0.0231 -0.74148,-0.0964 -1.3367,-0.30938 -0.59525,-0.21301 -1.3852,-0.56577 -2.1611,-0.84147 -0.77588,-0.27569 -1.5376,-0.47428 -2.3868,-0.61131 -0.8492,-0.13703 -1.7856,-0.21247 -2.603,-0.16459 -0.81742,0.0479 -1.5157,0.21912 -2.1627,0.52632 -0.64694,0.30719 -1.2424,0.75035 -1.6466,1.1877 -0.4042,0.43735 -0.61678,0.86896 -0.67462,1.3641 -0.0579,0.49516 0.0391,1.0538 0.1649,1.4453 0.12577,0.39146 0.28029,0.61569 0.35925,0.73165 0.0789,0.11595 0.0826,0.12416 -0.10121,0.29648 -0.18382,0.17232 -0.55478,0.50961 -0.98924,0.99553 -0.43446,0.48591 -0.93236,1.1204 -1.251,1.5842 -0.31867,0.46374 -0.45808,0.75664 -0.47895,0.99885 -0.0209,0.24221 0.0767,0.43356 0.21268,0.60538 0.13595,0.17183 0.31018,0.32414 0.4204,0.405 0.11021,0.0809 0.1566,0.0904 0.17967,0.0951 0.0231,0.005 0.0232,0.005 0.0181,-0.12185 z"
           fill="#3d9526"
           id="path1502" />
        <path
           d="m 151.64,271.1 c -0.005,-0.12644 -0.0153,-0.37938 0.14749,-0.82829 0.16284,-0.4489 0.49872,-1.0937 0.88264,-1.7021 0.38392,-0.60845 0.81583,-1.1805 1.0176,-1.4518 0.20172,-0.27131 0.1732,-0.24183 0.29208,-0.004 0.11888,0.23823 0.38518,0.68499 0.63385,1.0469 0.24867,0.36191 0.47966,0.63888 0.82297,0.86293 0.34331,0.22405 0.79883,0.39518 1.4114,0.40415 0.61253,0.009 1.382,-0.14413 2.1429,-0.47742 0.76089,-0.3333 1.5132,-0.84675 2.3531,-1.5136 0.83986,-0.66686 1.7672,-1.4871 2.5822,-2.1626 0.81495,-0.67552 1.5174,-1.2062 2.0078,-1.5809 0.49034,-0.37465 0.76849,-0.59317 0.76692,-0.68887 -0.002,-0.0957 -0.28295,-0.0686 -0.6239,-0.0917 -0.34096,-0.0231 -0.74148,-0.0964 -1.3367,-0.30938 -0.59525,-0.21301 -1.3852,-0.56577 -2.1611,-0.84147 -0.77588,-0.27569 -1.5376,-0.47428 -2.3868,-0.61131 -0.8492,-0.13703 -1.7856,-0.21247 -2.603,-0.16459 -0.81742,0.0479 -1.5157,0.21912 -2.1627,0.52632 -0.64694,0.30719 -1.2424,0.75035 -1.6466,1.1877 -0.4042,0.43735 -0.61678,0.86896 -0.67462,1.3641 -0.0579,0.49516 0.0391,1.0538 0.1649,1.4453 0.12577,0.39146 0.28029,0.61569 0.35925,0.73165 0.0789,0.11595 0.0826,0.12416 -0.10121,0.29648 -0.18382,0.17232 -0.55478,0.50961 -0.98924,0.99553 -0.43446,0.48591 -0.93236,1.1204 -1.251,1.5842 -0.31867,0.46374 -0.45808,0.75664 -0.47895,0.99885 -0.0209,0.24221 0.0767,0.43356 0.21268,0.60538 0.13595,0.17183 0.31018,0.32414 0.4204,0.405 0.11021,0.0809 0.1566,0.0904 0.17967,0.0951 0.0231,0.005 0.0232,0.005 0.0181,-0.12185 z"
           fill="#3d9526"
           id="path1504" />
        <path
           d="m 149.39,240.26 c -0.0634,-0.065 -0.19033,-0.19511 -0.30094,-0.49746 -0.1106,-0.30236 -0.2048,-0.77694 -0.0926,-1.1891 0.11218,-0.41211 0.43074,-0.76162 0.65335,-1.005 0.22262,-0.24334 0.34928,-0.38047 0.8495,-0.58067 0.50021,-0.2002 1.3738,-0.46341 2.2616,-0.60347 0.88776,-0.14005 1.7895,-0.15695 2.59,-0.0872 0.8005,0.0697 1.4997,0.22604 1.9355,0.3469 0.43586,0.12087 0.60836,0.20623 1.0499,0.36477 0.44154,0.15854 1.1519,0.39026 1.676,0.5471 0.5241,0.15684 0.86159,0.2388 0.72401,0.26089 -0.13758,0.0221 -0.7503,-0.0156 -1.4156,-0.003 -0.66528,0.0122 -1.3831,0.0744 -1.9613,0.18374 -0.57816,0.10931 -1.0166,0.26573 -1.3401,0.49835 -0.3235,0.23261 -0.53197,0.54135 -0.6588,0.79401 -0.12682,0.25267 -0.17198,0.44915 -0.32409,0.69453 -0.1521,0.24538 -0.41114,0.53967 -0.77418,0.81511 -0.36303,0.27543 -0.83005,0.53199 -1.3336,0.64823 -0.5035,0.11623 -1.0435,0.0921 -1.5685,-0.0613 -0.52497,-0.15343 -1.0349,-0.43622 -1.2938,-0.58222 -0.25895,-0.146 -0.2674,-0.15587 -0.36179,-0.0745 -0.0944,0.0813 -0.27485,0.25363 -0.46075,0.46413 -0.1859,0.2105 -0.37721,0.45915 -0.46663,0.46613 -0.0894,0.007 -0.077,-0.22776 -0.0577,-0.41003 0.0193,-0.18226 0.0454,-0.31202 0.14136,-0.41827 0.096,-0.10625 0.26175,-0.18886 0.39656,-0.2587 0.1348,-0.0698 0.23856,-0.12684 0.26616,-0.16585 0.0276,-0.039 -0.0211,-0.0601 -0.0455,-0.0707 -0.0244,-0.0105 -0.0248,-0.011 -0.0882,-0.076 z"
           fill="#347820"
           id="path1506" />
        <path
           d="m 150.4,257.06 c -0.005,-0.12644 -0.0153,-0.37938 0.14749,-0.82829 0.16284,-0.4489 0.49872,-1.0937 0.88264,-1.7021 0.38392,-0.60845 0.81583,-1.1805 1.0176,-1.4518 0.20172,-0.27131 0.1732,-0.24183 0.29208,-0.004 0.11888,0.23823 0.38518,0.68499 0.63385,1.0469 0.24867,0.36191 0.47966,0.63888 0.82297,0.86293 0.34331,0.22405 0.79883,0.39518 1.4114,0.40415 0.61253,0.009 1.382,-0.14413 2.1429,-0.47742 0.76089,-0.3333 1.5132,-0.84675 2.3531,-1.5136 0.83986,-0.66686 1.7672,-1.4871 2.5822,-2.1626 0.81495,-0.67552 1.5174,-1.2062 2.0078,-1.5809 0.49034,-0.37465 0.76849,-0.59317 0.76692,-0.68887 -0.002,-0.0957 -0.28295,-0.0686 -0.6239,-0.0917 -0.34096,-0.0231 -0.74148,-0.0964 -1.3367,-0.30938 -0.59525,-0.21301 -1.3852,-0.56577 -2.1611,-0.84147 -0.77588,-0.27569 -1.5376,-0.47428 -2.3868,-0.61131 -0.8492,-0.13703 -1.7856,-0.21247 -2.603,-0.16459 -0.81742,0.0479 -1.5157,0.21912 -2.1627,0.52632 -0.64694,0.30719 -1.2424,0.75035 -1.6466,1.1877 -0.4042,0.43735 -0.61678,0.86896 -0.67462,1.3641 -0.0578,0.49516 0.0391,1.0538 0.1649,1.4453 0.12577,0.39146 0.28029,0.61569 0.35925,0.73165 0.0789,0.11595 0.0826,0.12416 -0.10121,0.29648 -0.18382,0.17232 -0.55478,0.50961 -0.98924,0.99553 -0.43446,0.48591 -0.93236,1.1204 -1.251,1.5842 -0.31867,0.46374 -0.45808,0.75664 -0.47895,0.99885 -0.0209,0.24221 0.0767,0.43356 0.21268,0.60538 0.13595,0.17183 0.31018,0.32414 0.4204,0.405 0.11021,0.0809 0.1566,0.0904 0.17967,0.0951 0.0231,0.005 0.0232,0.005 0.0181,-0.12185 z"
           fill="#3d9526"
           id="path1508" />
        <path
           d="m 150.58,271.1 c -0.0207,-0.11557 -0.0621,-0.34675 -0.30205,-0.72307 -0.23996,-0.37631 -0.67843,-0.89767 -1.1538,-1.3771 -0.47535,-0.47943 -0.98753,-0.91688 -1.2276,-1.1249 -0.24003,-0.20805 -0.20787,-0.18669 -0.26936,0.0515 -0.0615,0.23822 -0.21666,0.69314 -0.37267,1.0678 -0.156,0.37468 -0.31279,0.6691 -0.58352,0.93661 -0.27074,0.26752 -0.65532,0.50813 -1.2169,0.63123 -0.56155,0.12311 -1.3,0.12877 -2.0668,-0.0305 -0.76679,-0.15928 -1.5619,-0.48345 -2.4683,-0.93025 -0.9064,-0.4468 -1.9241,-1.0162 -2.8094,-1.4755 -0.88526,-0.45931 -1.638,-0.8085 -2.1642,-1.056 -0.52625,-0.24753 -0.82599,-0.39339 -0.84377,-0.48043 -0.0178,-0.087 0.24646,-0.11531 0.55541,-0.20023 0.30896,-0.0849 0.66259,-0.22652 1.1673,-0.53133 0.50468,-0.3048 1.1604,-0.77281 1.8186,-1.1683 0.6582,-0.39551 1.3189,-0.71849 2.0724,-1.0021 0.7535,-0.28361 1.5996,-0.52773 2.361,-0.63777 0.76142,-0.11003 1.4381,-0.0859 2.0948,0.0711 0.6567,0.157 1.2935,0.4469 1.753,0.76748 0.45956,0.32059 0.74185,0.67185 0.89454,1.1098 0.15269,0.43795 0.17576,0.9625 0.13873,1.3409 -0.037,0.37842 -0.13409,0.61065 -0.18347,0.73074 -0.0494,0.1201 -0.051,0.12777 0.15262,0.24953 0.20365,0.12176 0.61259,0.35784 1.1098,0.71672 0.49722,0.35888 1.0826,0.84053 1.4689,1.201 0.38627,0.3605 0.57333,0.59982 0.64119,0.81544 0.0679,0.21561 0.0165,0.40736 -0.074,0.58862 -0.0905,0.18126 -0.22016,0.35202 -0.30529,0.446 -0.0851,0.094 -0.12583,0.1113 -0.14611,0.11994 -0.0203,0.009 -0.0203,0.009 -0.041,-0.10698 z"
           fill="#3d9526"
           id="path1510" />
        <path
           d="m 147.27,245.55 c 0.0465,-0.078 0.1395,-0.23417 0.17644,-0.554 0.0369,-0.31982 0.0177,-0.80329 -0.18761,-1.1778 -0.20531,-0.37451 -0.59669,-0.63996 -0.86998,-0.82457 -0.2733,-0.1846 -0.42848,-0.28836 -0.96162,-0.3662 -0.53313,-0.0778 -1.4441,-0.12973 -2.34,-0.0586 -0.89591,0.0712 -1.7767,0.26534 -2.5388,0.52009 -0.76207,0.25476 -1.4054,0.57005 -1.801,0.78936 -0.39557,0.21932 -0.54337,0.34261 -0.93563,0.59987 -0.39226,0.25727 -1.0289,0.64852 -1.5018,0.9234 -0.47289,0.27489 -0.78198,0.43342 -0.64305,0.42277 0.13894,-0.0106 0.72589,-0.19045 1.3756,-0.33394 0.64973,-0.14349 1.3622,-0.25065 1.9499,-0.2794 0.5877,-0.0287 1.0506,0.0209 1.4194,0.17158 0.36889,0.15063 0.6437,0.40213 0.82603,0.6182 0.18233,0.21606 0.27213,0.39655 0.47734,0.59962 0.2052,0.20307 0.52581,0.42872 0.94314,0.61175 0.41732,0.18302 0.93135,0.32342 1.4481,0.31884 0.51672,-0.005 1.0362,-0.15415 1.5108,-0.42596 0.47462,-0.2718 0.90438,-0.66586 1.1221,-0.86836 0.21772,-0.20249 0.22358,-0.21395 0.33434,-0.1569 0.11077,0.0571 0.32647,0.18246 0.55639,0.34373 0.22992,0.16126 0.47402,0.35835 0.56259,0.34425 0.0886,-0.0141 0.0216,-0.23944 -0.0397,-0.41217 -0.0613,-0.17273 -0.117,-0.29279 -0.23514,-0.37368 -0.11815,-0.0809 -0.29861,-0.1225 -0.446,-0.15892 -0.14738,-0.0364 -0.2616,-0.0676 -0.29755,-0.0991 -0.036,-0.0315 0.006,-0.0634 0.0277,-0.0793 0.0212,-0.016 0.0215,-0.0165 0.0679,-0.0945 z"
           fill="#347820"
           id="path1512" />
      </g>
    </g>
    <g
       fill="#3d9526"
       stroke-width="0"
       id="g1528"
       transform="translate(2.2950355,-31.912835)">
      <path
         d="m 148.33,234.44 c 0.004,-0.1017 0.0128,-0.30521 -0.12265,-0.66634 -0.13544,-0.36112 -0.41485,-0.87982 -0.73421,-1.3693 -0.31936,-0.48948 -0.67865,-0.9497 -0.84644,-1.168 -0.16778,-0.21825 -0.14408,-0.19455 -0.24297,-0.003 -0.0989,0.19164 -0.32042,0.55105 -0.52727,0.84218 -0.20686,0.29112 -0.399,0.51395 -0.68459,0.69419 -0.28558,0.18025 -0.6645,0.31791 -1.174,0.32513 -0.50953,0.007 -1.1496,-0.11595 -1.7826,-0.38408 -0.633,-0.26813 -1.2588,-0.68117 -1.9574,-1.2176 -0.69863,-0.53647 -1.4701,-1.1963 -2.148,-1.7398 -0.67792,-0.54343 -1.2623,-0.97039 -1.6702,-1.2718 -0.40788,-0.30139 -0.63927,-0.47718 -0.63796,-0.55417 10e-4,-0.077 0.23538,-0.0552 0.519,-0.0738 0.28362,-0.0186 0.61679,-0.0775 1.112,-0.24889 0.49516,-0.17136 1.1523,-0.45514 1.7977,-0.67693 0.6454,-0.22179 1.2791,-0.38155 1.9854,-0.49178 0.70634,-0.11024 1.4854,-0.17092 2.1653,-0.13241 0.67997,0.0385 1.2608,0.17628 1.799,0.4234 0.53816,0.24713 1.0335,0.60363 1.3697,0.9555 0.3362,0.35187 0.51306,0.69905 0.56118,1.0974 0.0481,0.39835 -0.0325,0.84776 -0.13717,1.1627 -0.10463,0.31492 -0.23317,0.49531 -0.29885,0.58848 -0.0657,0.0932 -0.069,0.10002 0.0839,0.23862 0.15286,0.1386 0.46144,0.40994 0.82284,0.80084 0.36141,0.39091 0.77559,0.90135 1.0407,1.2744 0.26509,0.37305 0.38106,0.60869 0.39842,0.80353 0.0174,0.19484 -0.0638,0.34879 -0.17691,0.48702 -0.11309,0.13823 -0.25804,0.26076 -0.34979,0.32582 -0.0918,0.0651 -0.13019,0.0727 -0.14938,0.0765 -0.0192,0.004 -0.019,0.004 -0.0148,-0.098 z"
         id="path1518" />
      <path
         d="m 170.47,294.79 c 0.75285,0.0744 2.2584,0.22325 2.9861,0.27646 0.72769,0.0532 0.6775,0.0107 0.5896,-0.42516 -0.0879,-0.43585 -0.21335,-1.265 -0.31373,-2.7001 -0.10038,-1.4351 -0.17566,-3.4761 -0.0126,-6.3783 0.1631,-2.9022 0.56457,-6.6652 1.2797,-12.119 0.71515,-5.4535 1.7439,-12.597 2.5971,-17.944 0.85316,-5.3471 1.5306,-8.8976 2.6096,-13.192 1.079,-4.2947 2.5594,-9.3334 3.4251,-12.756 0.8657,-3.423 1.1166,-5.2301 1.3299,-7.8133 0.2133,-2.5832 0.38894,-5.9424 0.46422,-9.3441 0.0753,-3.4018 0.0502,-6.8459 0.0376,-8.5999 -0.0125,-1.754 -0.0125,-1.8178 -0.2885,-1.8285 -0.27596,-0.0107 -0.82799,0.0318 -1.0789,0.0424 -0.25091,0.0106 -0.20084,-0.0106 -0.17576,0.7017 0.0251,0.71232 0.0251,2.158 0.0125,3.8589 -0.0126,1.7009 -0.0377,3.6568 -0.11294,5.5597 -0.0753,1.9028 -0.20075,3.7525 -0.35131,5.5278 -0.15056,1.7753 -0.3262,3.4761 -0.63987,5.379 -0.31367,1.9028 -0.76532,4.0076 -1.2546,6.0274 -0.48932,2.0198 -1.0162,3.9545 -1.7941,6.6334 -0.7779,2.6789 -1.8067,6.1018 -2.434,8.1641 -0.62732,2.0623 -0.85315,2.7639 -1.2044,4.5073 -0.35125,1.7434 -0.82805,4.5285 -1.3299,7.622 -0.50185,3.0935 -1.0288,6.4951 -1.4177,9.1846 -0.38893,2.6895 -0.63985,4.6667 -0.92842,6.6971 -0.28856,2.0304 -0.61476,4.1139 -1.0664,7.6858 -0.45164,3.5719 -1.0288,8.6318 -1.3424,11.3 -0.3136,2.6682 -0.36384,2.9446 -0.37637,3.1891 -0.0125,0.24453 0.0126,0.45713 0.0251,0.56337 0.0125,0.10623 0.0126,0.10624 0.76542,0.18066 z"
         id="path1520" />
      <path
         d="m 173.56,279.41 c -0.005,-0.12644 -0.0153,-0.37938 0.14749,-0.82829 0.16284,-0.4489 0.49872,-1.0937 0.88264,-1.7021 0.38392,-0.60845 0.81583,-1.1805 1.0176,-1.4518 0.20172,-0.27131 0.1732,-0.24183 0.29208,-0.004 0.11888,0.23823 0.38518,0.68499 0.63385,1.0469 0.24867,0.36191 0.47966,0.63888 0.82297,0.86293 0.34331,0.22405 0.79883,0.39518 1.4114,0.40415 0.61253,0.009 1.382,-0.14413 2.1429,-0.47742 0.76089,-0.3333 1.5132,-0.84675 2.3531,-1.5136 0.83986,-0.66686 1.7672,-1.4871 2.5822,-2.1626 0.81495,-0.67552 1.5174,-1.2062 2.0078,-1.5809 0.49034,-0.37465 0.76849,-0.59317 0.76692,-0.68887 -0.002,-0.0957 -0.28295,-0.0686 -0.6239,-0.0917 -0.34096,-0.0231 -0.74148,-0.0964 -1.3367,-0.30938 -0.59525,-0.21301 -1.3852,-0.56577 -2.1611,-0.84147 -0.77588,-0.27569 -1.5376,-0.47428 -2.3868,-0.61131 -0.8492,-0.13703 -1.7856,-0.21247 -2.603,-0.16459 -0.81742,0.0479 -1.5157,0.21912 -2.1627,0.52632 -0.64694,0.30719 -1.2424,0.75035 -1.6466,1.1877 -0.4042,0.43735 -0.61678,0.86896 -0.67462,1.3641 -0.0579,0.49516 0.0391,1.0538 0.1649,1.4453 0.12577,0.39146 0.28029,0.61569 0.35925,0.73165 0.0789,0.11595 0.0826,0.12416 -0.10121,0.29648 -0.18382,0.17232 -0.55478,0.50961 -0.98924,0.99553 -0.43446,0.48591 -0.93236,1.1204 -1.251,1.5842 -0.31867,0.46374 -0.45808,0.75664 -0.47895,0.99885 -0.0209,0.24221 0.0767,0.43356 0.21268,0.60538 0.13595,0.17183 0.31018,0.32414 0.4204,0.405 0.11021,0.0809 0.1566,0.0904 0.17967,0.0951 0.0231,0.005 0.0232,0.005 0.0181,-0.12185 z"
         id="path1522" />
      <path
         d="m 178.37,250.63 c -0.005,-0.12644 -0.0153,-0.37938 0.14749,-0.82829 0.16284,-0.4489 0.49872,-1.0937 0.88264,-1.7021 0.38392,-0.60845 0.81583,-1.1805 1.0176,-1.4518 0.20172,-0.27131 0.1732,-0.24183 0.29208,-0.004 0.11888,0.23823 0.38518,0.68499 0.63385,1.0469 0.24867,0.36191 0.47966,0.63888 0.82297,0.86293 0.34331,0.22405 0.79883,0.39518 1.4114,0.40415 0.61253,0.009 1.382,-0.14413 2.1429,-0.47742 0.76089,-0.3333 1.5132,-0.84675 2.3531,-1.5136 0.83986,-0.66686 1.7672,-1.4871 2.5822,-2.1626 0.81495,-0.67552 1.5174,-1.2062 2.0078,-1.5809 0.49034,-0.37465 0.76849,-0.59317 0.76692,-0.68887 -0.002,-0.0957 -0.28295,-0.0686 -0.6239,-0.0917 -0.34096,-0.0231 -0.74148,-0.0964 -1.3367,-0.30938 -0.59525,-0.21301 -1.3852,-0.56577 -2.1611,-0.84147 -0.77588,-0.27569 -1.5376,-0.47428 -2.3868,-0.61131 -0.8492,-0.13703 -1.7856,-0.21247 -2.603,-0.16459 -0.81742,0.0479 -1.5157,0.21912 -2.1627,0.52632 -0.64694,0.30719 -1.2424,0.75035 -1.6466,1.1877 -0.4042,0.43735 -0.61678,0.86896 -0.67462,1.3641 -0.0579,0.49516 0.0391,1.0538 0.1649,1.4453 0.12577,0.39146 0.28029,0.61569 0.35925,0.73165 0.0789,0.11595 0.0826,0.12416 -0.10121,0.29648 -0.18382,0.17232 -0.55478,0.50961 -0.98924,0.99553 -0.43446,0.48591 -0.93236,1.1204 -1.251,1.5842 -0.31867,0.46374 -0.45808,0.75664 -0.47895,0.99885 -0.0209,0.24221 0.0767,0.43356 0.21268,0.60538 0.13595,0.17183 0.31018,0.32414 0.4204,0.405 0.11021,0.0809 0.1566,0.0904 0.17967,0.0951 0.0231,0.005 0.0232,0.005 0.0181,-0.12185 z"
         id="path1524" />
      <path
         d="m 184.14,227.25 c -0.005,-0.12643 -0.0153,-0.37938 0.14749,-0.82829 0.16284,-0.4489 0.49872,-1.0937 0.88264,-1.7021 0.38392,-0.60845 0.81583,-1.1805 1.0176,-1.4518 0.20172,-0.27131 0.1732,-0.24183 0.29208,-0.004 0.11888,0.23823 0.38518,0.68499 0.63385,1.0469 0.24867,0.36191 0.47966,0.63888 0.82297,0.86293 0.34331,0.22405 0.79883,0.39518 1.4114,0.40415 0.61253,0.009 1.382,-0.14413 2.1429,-0.47742 0.76089,-0.3333 1.5132,-0.84675 2.3531,-1.5136 0.83986,-0.66686 1.7672,-1.4871 2.5822,-2.1626 0.81495,-0.67552 1.5174,-1.2062 2.0078,-1.5809 0.49034,-0.37465 0.76849,-0.59317 0.76692,-0.68887 -0.002,-0.0957 -0.28295,-0.0686 -0.6239,-0.0917 -0.34096,-0.0231 -0.74148,-0.0964 -1.3367,-0.30938 -0.59525,-0.21301 -1.3852,-0.56577 -2.1611,-0.84147 -0.77588,-0.27569 -1.5376,-0.47428 -2.3868,-0.61131 -0.8492,-0.13703 -1.7856,-0.21247 -2.603,-0.16459 -0.81742,0.0479 -1.5157,0.21912 -2.1627,0.52632 -0.64694,0.30719 -1.2424,0.75035 -1.6466,1.1877 -0.4042,0.43735 -0.61678,0.86896 -0.67462,1.3641 -0.0579,0.49516 0.0391,1.0538 0.1649,1.4453 0.12577,0.39146 0.28029,0.61569 0.35925,0.73165 0.079,0.11595 0.0826,0.12416 -0.10121,0.29648 -0.18382,0.17232 -0.55478,0.50961 -0.98924,0.99553 -0.43446,0.48591 -0.93236,1.1204 -1.251,1.5842 -0.31867,0.46374 -0.45808,0.75664 -0.47895,0.99885 -0.0209,0.24221 0.0767,0.43356 0.21268,0.60538 0.13595,0.17183 0.31018,0.32414 0.4204,0.405 0.11021,0.0809 0.1566,0.0904 0.17967,0.0951 0.0231,0.005 0.0232,0.005 0.0181,-0.12185 z"
         id="path1526" />
    </g>
    <g
       fill="#347820"
       stroke-width="0"
       id="g1536"
       transform="translate(2.2950355,-31.912835)">
      <path
         d="m 182.68,235.34 c -0.0547,-0.0725 -0.1642,-0.21756 -0.23579,-0.53145 -0.0716,-0.31388 -0.10517,-0.79657 0.0581,-1.1912 0.16326,-0.39468 0.52335,-0.70122 0.77488,-0.91453 0.25154,-0.21331 0.39448,-0.33337 0.91595,-0.46888 0.52147,-0.13551 1.4213,-0.28644 2.3197,-0.31341 0.89833,-0.027 1.795,0.07 2.5803,0.24013 0.7853,0.17012 1.4592,0.41338 1.8763,0.58824 0.41713,0.17487 0.57749,0.28131 0.99546,0.49426 0.41798,0.21296 1.0935,0.53244 1.5936,0.75412 0.50005,0.22167 0.82459,0.34556 0.68532,0.35012 -0.13927,0.005 -0.74233,-0.11016 -1.4038,-0.18194 -0.66151,-0.0718 -1.3814,-0.10062 -1.9688,-0.0651 -0.58733,0.0355 -1.042,0.13538 -1.3923,0.32534 -0.35026,0.18995 -0.59601,0.46993 -0.75369,0.70458 -0.15767,0.23465 -0.22725,0.42387 -0.4091,0.64811 -0.18184,0.22424 -0.47592,0.48351 -0.8708,0.71095 -0.39488,0.22745 -0.89052,0.42306 -1.4047,0.47486 -0.51413,0.0518 -1.0468,-0.0402 -1.5482,-0.25866 -0.50143,-0.21842 -0.97161,-0.56326 -1.2101,-0.74082 -0.23851,-0.17756 -0.24557,-0.18829 -0.34947,-0.11953 -0.10391,0.0688 -0.30465,0.21694 -0.51561,0.40231 -0.21097,0.18538 -0.43211,0.40791 -0.5217,0.40356 -0.0896,-0.004 -0.0476,-0.23565 -0.006,-0.41402 0.0421,-0.17837 0.0844,-0.30382 0.19299,-0.39711 0.10862,-0.0933 0.28348,-0.15435 0.42602,-0.20662 0.14253,-0.0523 0.25265,-0.0957 0.28493,-0.13098 0.0323,-0.0352 -0.0133,-0.0622 -0.0361,-0.0758 -0.0229,-0.0136 -0.0232,-0.014 -0.0779,-0.0865 z"
         id="path1530" />
      <path
         d="m 173.65,260.11 c 0.0647,-0.0637 0.19426,-0.19121 0.311,-0.49125 0.11673,-0.30004 0.22057,-0.77262 0.1168,-1.1869 -0.10378,-0.41431 -0.41517,-0.77021 -0.6328,-1.018 -0.21763,-0.24779 -0.34148,-0.38748 -0.83753,-0.5978 -0.49604,-0.21032 -1.3642,-0.49123 -2.2489,-0.64929 -0.8847,-0.15806 -1.786,-0.19327 -2.5877,-0.13982 -0.80174,0.0534 -1.504,0.19553 -1.9422,0.30752 -0.4382,0.11199 -0.61242,0.19382 -1.057,0.34336 -0.44462,0.14953 -1.1596,0.36678 -1.6867,0.51294 -0.52709,0.14617 -0.86626,0.22125 -0.72916,0.24613 0.1371,0.0249 0.75045,-4.2e-4 1.4154,0.0253 0.6649,0.0257 1.3813,0.1025 1.9571,0.22354 0.57582,0.12103 1.011,0.28632 1.3297,0.52546 0.31871,0.23914 0.52087,0.55205 0.64254,0.80725 0.12167,0.25519 0.16283,0.45254 0.30992,0.70095 0.14709,0.24842 0.40009,0.54792 0.75746,0.83067 0.35736,0.28275 0.81908,0.54875 1.3201,0.67518 0.50103,0.12644 1.0414,0.11327 1.5694,-0.0295 0.52798,-0.14274 1.0435,-0.41512 1.3054,-0.55584 0.26185,-0.14071 0.27051,-0.15045 0.36319,-0.0672 0.0927,0.0833 0.2696,0.25919 0.45119,0.47343 0.18158,0.21423 0.36781,0.46671 0.45706,0.4755 0.0893,0.009 0.0816,-0.22614 0.066,-0.40877 -0.0156,-0.18264 -0.039,-0.31287 -0.13286,-0.42105 -0.0938,-0.10818 -0.25784,-0.19414 -0.39121,-0.2667 -0.13337,-0.0726 -0.23594,-0.13166 -0.26275,-0.17123 -0.0268,-0.0396 0.0223,-0.0597 0.0469,-0.0697 0.0246,-0.0101 0.025,-0.0104 0.0898,-0.0741 z"
         id="path1532" />
      <path
         d="m 180.97,227.25 c 0.0465,-0.078 0.1395,-0.23417 0.17644,-0.554 0.0369,-0.31982 0.0177,-0.80329 -0.18761,-1.1778 -0.20531,-0.37451 -0.59669,-0.63996 -0.86998,-0.82457 -0.2733,-0.1846 -0.42848,-0.28836 -0.96162,-0.3662 -0.53313,-0.0778 -1.4441,-0.12973 -2.34,-0.0586 -0.89591,0.0712 -1.7767,0.26534 -2.5388,0.52009 -0.76207,0.25476 -1.4054,0.57005 -1.801,0.78936 -0.39557,0.21932 -0.54337,0.34261 -0.93563,0.59987 -0.39226,0.25727 -1.0289,0.64852 -1.5018,0.9234 -0.47289,0.27489 -0.78198,0.43342 -0.64305,0.42277 0.13894,-0.0106 0.72589,-0.19045 1.3756,-0.33394 0.64973,-0.14349 1.3622,-0.25065 1.9499,-0.2794 0.5877,-0.0287 1.0506,0.021 1.4194,0.17158 0.36889,0.15063 0.6437,0.40213 0.82603,0.6182 0.18233,0.21606 0.27213,0.39655 0.47734,0.59962 0.2052,0.20307 0.52581,0.42872 0.94314,0.61175 0.41732,0.18302 0.93135,0.32342 1.4481,0.31884 0.51672,-0.005 1.0362,-0.15415 1.5108,-0.42596 0.47462,-0.2718 0.90438,-0.66586 1.1221,-0.86836 0.21772,-0.20249 0.22358,-0.21395 0.33434,-0.1569 0.11077,0.0571 0.32647,0.18246 0.55639,0.34373 0.22992,0.16126 0.47402,0.35835 0.56259,0.34425 0.0886,-0.0141 0.0216,-0.23944 -0.0397,-0.41217 -0.0613,-0.17273 -0.117,-0.29279 -0.23514,-0.37368 -0.11815,-0.0809 -0.29861,-0.1225 -0.446,-0.15892 -0.14738,-0.0364 -0.2616,-0.0676 -0.29755,-0.0991 -0.036,-0.0315 0.006,-0.0634 0.0277,-0.0793 0.0212,-0.016 0.0215,-0.0165 0.0679,-0.0945 z"
         id="path1534" />
    </g>
    <g
       fill="#3d9526"
       stroke-width="0"
       id="g1546"
       transform="translate(2.2950355,-31.912835)">
      <path
         d="m 175.94,254.4 c 0.0141,-0.11655 0.0423,-0.3497 -0.0767,-0.77985 -0.11903,-0.43015 -0.38531,-1.0572 -0.69915,-1.6549 -0.31384,-0.59775 -0.6752,-1.1662 -0.84367,-1.4355 -0.16846,-0.26931 -0.14402,-0.23946 -0.27267,-0.0297 -0.12865,0.20973 -0.41042,0.59914 -0.66945,0.9116 -0.25902,0.31246 -0.49527,0.54794 -0.83255,0.72429 -0.33729,0.17635 -0.77552,0.29359 -1.3485,0.24659 -0.57298,-0.047 -1.2806,-0.25817 -1.967,-0.63532 -0.68636,-0.37716 -1.3514,-0.92025 -2.0869,-1.6132 -0.7355,-0.69295 -1.5415,-1.5358 -2.2531,-2.2346 -0.7116,-0.6988 -1.3288,-1.2533 -1.7594,-1.6443 -0.43051,-0.39098 -0.6743,-0.61834 -0.66577,-0.70677 0.009,-0.0884 0.26943,-0.038 0.58971,-0.0285 0.32028,0.009 0.69989,-0.0222 1.2718,-0.16563 0.57189,-0.14339 1.336,-0.39853 2.0813,-0.58361 0.74526,-0.18509 1.4716,-0.30009 2.2751,-0.35024 0.80348,-0.0502 1.684,-0.0354 2.4442,0.0827 0.76021,0.11811 1.4,0.33963 1.9818,0.68234 0.58181,0.34271 1.1055,0.8066 1.4509,1.2479 0.34532,0.44127 0.51219,0.85987 0.52972,1.3233 0.0175,0.46347 -0.11425,0.97172 -0.26063,1.3226 -0.14638,0.35088 -0.30729,0.54447 -0.38967,0.64472 -0.0824,0.10025 -0.0862,0.10706 0.0727,0.28329 0.15893,0.17623 0.48065,0.52185 0.85075,1.0108 0.37009,0.48892 0.78852,1.1211 1.0521,1.579 0.26355,0.45793 0.3722,0.7416 0.37384,0.96763 0.002,0.22603 -0.10366,0.39429 -0.24335,0.54104 -0.1397,0.14674 -0.31373,0.27196 -0.42271,0.33684 -0.10898,0.0649 -0.15292,0.0695 -0.17483,0.0718 -0.0219,0.002 -0.0219,0.002 -0.008,-0.11424 z"
         id="path1538" />
      <path
         d="m 173.18,272.59 c 0.0112,-0.0919 0.0336,-0.27582 -0.0609,-0.6151 -0.0946,-0.33929 -0.30623,-0.83386 -0.55566,-1.3053 -0.24942,-0.47149 -0.53661,-0.91984 -0.6705,-1.1322 -0.13389,-0.2124 -0.11447,-0.18884 -0.21673,-0.0234 -0.10226,0.16542 -0.32619,0.47257 -0.53205,0.71902 -0.20586,0.24645 -0.39362,0.43219 -0.66167,0.57129 -0.26806,0.1391 -0.61635,0.23157 -1.0717,0.1945 -0.45537,-0.0371 -1.0178,-0.20364 -1.5633,-0.50112 -0.54548,-0.29748 -1.074,-0.72585 -1.6586,-1.2724 -0.58456,-0.54659 -1.2251,-1.2114 -1.7907,-1.7625 -0.56557,-0.55114 -1.0561,-0.98858 -1.3982,-1.297 -0.3421,-0.30842 -0.5359,-0.48772 -0.52912,-0.55746 0.007,-0.0697 0.21413,-0.0299 0.46867,-0.0225 0.25455,0.007 0.55624,-0.0175 1.0107,-0.13062 0.45451,-0.11309 1.0618,-0.31434 1.6541,-0.46032 0.59229,-0.14599 1.1696,-0.2367 1.8081,-0.27625 0.63857,-0.0396 1.3384,-0.0279 1.9426,0.0652 0.60418,0.0932 1.1127,0.26789 1.5751,0.5382 0.4624,0.27031 0.87863,0.63621 1.1531,0.98426 0.27445,0.34806 0.40707,0.67823 0.421,1.0438 0.0139,0.36556 -0.0908,0.76645 -0.20713,1.0432 -0.11634,0.27679 -0.24422,0.42946 -0.30975,0.50869 -0.0655,0.0792 -0.0683,0.0842 0.0581,0.22322 0.12632,0.13903 0.38201,0.41165 0.67614,0.79728 0.29413,0.38564 0.62667,0.88427 0.83613,1.2455 0.20945,0.36119 0.29581,0.58495 0.29711,0.76324 0.001,0.1783 -0.0824,0.31099 -0.1934,0.42673 -0.11103,0.11575 -0.24934,0.21452 -0.33597,0.2657 -0.0866,0.0512 -0.12146,0.0548 -0.1389,0.0566 -0.0174,0.002 -0.0176,0.002 -0.006,-0.0902 z"
         id="path1540" />
      <path
         d="m 178.53,241.49 c 0.005,-0.12972 0.0154,-0.38928 -0.14742,-0.84988 -0.16281,-0.4606 -0.4987,-1.1222 -0.88262,-1.7465 -0.38392,-0.62431 -0.81584,-1.2113 -1.0176,-1.4897 -0.2017,-0.27838 -0.17317,-0.24811 -0.29206,-0.004 -0.1189,0.24442 -0.3852,0.70283 -0.63388,1.0742 -0.24867,0.37133 -0.47966,0.65553 -0.82297,0.88543 -0.34332,0.2299 -0.79884,0.40548 -1.4114,0.41469 -0.61253,0.009 -1.382,-0.14789 -2.1429,-0.48988 -0.7609,-0.34198 -1.5132,-0.86882 -2.3531,-1.5531 -0.83986,-0.68426 -1.7672,-1.5259 -2.5822,-2.219 -0.81495,-0.69312 -1.5175,-1.2377 -2.0078,-1.6221 -0.49034,-0.38441 -0.7685,-0.60863 -0.76693,-0.70683 0.002,-0.0982 0.28296,-0.0704 0.62391,-0.0941 0.34096,-0.0237 0.74147,-0.0989 1.3367,-0.31745 0.59527,-0.21857 1.3852,-0.58053 2.1611,-0.86341 0.77588,-0.28288 1.5376,-0.48665 2.3868,-0.62725 0.8492,-0.1406 1.7856,-0.218 2.603,-0.16888 0.81741,0.0491 1.5157,0.22483 2.1627,0.54004 0.64694,0.3152 1.2424,0.76992 1.6466,1.2187 0.40412,0.4488 0.61677,0.89162 0.67462,1.3997 0.0578,0.50807 -0.0391,1.0813 -0.1649,1.483 -0.12577,0.40166 -0.28029,0.63175 -0.35935,0.7508 -0.0791,0.11906 -0.0827,0.12713 0.10102,0.30404 0.18371,0.17691 0.55467,0.52299 0.98913,1.0216 0.43447,0.49859 0.93237,1.1496 1.251,1.6255 0.31868,0.47582 0.45809,0.77637 0.47897,1.0249 0.0209,0.2485 -0.0767,0.44486 -0.21268,0.62117 -0.13595,0.17631 -0.31021,0.33261 -0.42051,0.41559 -0.11031,0.083 -0.15652,0.0927 -0.17958,0.0975 -0.0231,0.005 -0.0229,0.005 -0.0178,-0.12498 z"
         id="path1542" />
      <path
         d="m 184.01,218.1 c 0.005,-0.12972 0.0154,-0.38928 -0.14742,-0.84988 -0.16281,-0.4606 -0.4987,-1.1222 -0.88262,-1.7465 -0.38392,-0.62431 -0.81584,-1.2113 -1.0176,-1.4897 -0.2017,-0.27838 -0.17317,-0.24811 -0.29206,-0.004 -0.1189,0.24442 -0.3852,0.70283 -0.63388,1.0742 -0.24867,0.37133 -0.47966,0.65553 -0.82297,0.88543 -0.34332,0.2299 -0.79884,0.40548 -1.4114,0.41469 -0.61253,0.009 -1.382,-0.14789 -2.1429,-0.48988 -0.7609,-0.34198 -1.5132,-0.86882 -2.3531,-1.5531 -0.83986,-0.68426 -1.7672,-1.5259 -2.5822,-2.219 -0.81495,-0.69312 -1.5175,-1.2377 -2.0078,-1.6221 -0.49034,-0.38441 -0.7685,-0.60863 -0.76693,-0.70683 0.002,-0.0982 0.28296,-0.0704 0.62391,-0.0941 0.34096,-0.0237 0.74147,-0.0989 1.3367,-0.31745 0.59527,-0.21857 1.3852,-0.58053 2.1611,-0.86341 0.77588,-0.28288 1.5376,-0.48665 2.3868,-0.62725 0.8492,-0.1406 1.7856,-0.218 2.603,-0.16888 0.81741,0.0491 1.5157,0.22483 2.1627,0.54004 0.64694,0.3152 1.2424,0.76992 1.6466,1.2187 0.40412,0.4488 0.61677,0.89162 0.67462,1.3997 0.0578,0.50807 -0.0391,1.0813 -0.1649,1.483 -0.12577,0.40166 -0.28029,0.63175 -0.35935,0.7508 -0.0791,0.11906 -0.0827,0.12713 0.10102,0.30404 0.18371,0.17691 0.55467,0.52299 0.98913,1.0216 0.43447,0.49859 0.93237,1.1496 1.251,1.6255 0.31868,0.47582 0.45809,0.77637 0.47897,1.0249 0.0209,0.2485 -0.0767,0.44486 -0.21268,0.62117 -0.13595,0.17631 -0.31021,0.33261 -0.42051,0.41559 -0.11031,0.083 -0.15652,0.0927 -0.17958,0.0975 -0.0231,0.005 -0.0229,0.005 -0.0178,-0.12498 z"
         id="path1544" />
    </g>
    <g
       id="g1554"
       transform="translate(2.2950355,-31.912835)">
      <path
         d="m 183.53,187.72 a 7.4896,9.9843 79.174 0 0 -1.3954,5.8249 7.4896,9.9843 79.174 0 0 0.0426,0.1411 7.7452,9.6547 72.996 0 0 -0.69849,-0.29274 7.7452,9.6547 72.996 0 0 -6.6576,-0.18635 7.7452,9.6547 72.996 0 0 3.8394,4.0762 7.9214,9.44 82.36 0 0 -5.2854,3.5193 7.9214,9.44 82.36 0 0 6.7977,0.5717 7.6276,9.8037 86.496 0 0 -0.11695,0.16431 7.6276,9.8037 86.496 0 0 -0.96299,5.3831 7.6276,9.8037 86.496 0 0 5.4838,-3.2754 7.4896,9.9843 79.174 0 0 3.7827,4.0914 7.4896,9.9843 79.174 0 0 1.3954,-5.8249 7.4896,9.9843 79.174 0 0 -0.0426,-0.14102 7.7452,9.6547 72.996 0 0 0.69848,0.29265 7.7452,9.6547 72.996 0 0 6.6576,0.18636 7.7452,9.6547 72.996 0 0 -3.8394,-4.0762 7.9214,9.44 82.36 0 0 5.2854,-3.5193 7.9214,9.44 82.36 0 0 -6.7977,-0.57168 7.6276,9.8037 86.496 0 0 0.11696,-0.16432 7.6276,9.8037 86.496 0 0 0.96298,-5.3831 7.6276,9.8037 86.496 0 0 -5.4838,3.2754 7.4896,9.9843 79.174 0 0 -3.7827,-4.0914 z"
         fill="#ff6600"
         stroke-width="0.049219"
         id="path1548" />
      <path
         d="m 188.19,187.1 a 7.5233,9.9395 83.711 0 0 -4.151,5.0643 7.5233,9.9395 83.711 0 0 -0.033,0.1475 7.5777,9.8682 74.758 0 0 -0.47091,-0.50408 7.5777,9.8682 74.758 0 0 -5.7924,-2.3381 7.5777,9.8682 74.758 0 0 1.3528,5.1075 7.8808,9.4886 75.222 0 0 -6.4352,1.6175 7.8808,9.4886 75.222 0 0 5.7232,2.7486 7.8056,9.58 86.87 0 0 -0.18569,0.11763 7.8056,9.58 86.87 0 0 -3.5474,4.7862 7.8056,9.58 86.87 0 0 6.4885,-1.322 7.5233,9.9395 83.711 0 0 1.295,5.1035 7.5233,9.9395 83.711 0 0 4.151,-5.0643 7.5233,9.9395 83.711 0 0 0.0332,-0.1474 7.5777,9.8682 74.758 0 0 0.4709,0.50399 7.5777,9.8682 74.758 0 0 5.7924,2.3381 7.5777,9.8682 74.758 0 0 -1.3528,-5.1075 7.8808,9.4886 75.222 0 0 6.4352,-1.6174 7.8808,9.4886 75.222 0 0 -5.7232,-2.7486 7.8056,9.58 86.87 0 0 0.18569,-0.11764 7.8056,9.58 86.87 0 0 3.5474,-4.7862 7.8056,9.58 86.87 0 0 -6.4885,1.322 7.5233,9.9395 83.711 0 0 -1.295,-5.1036 z"
         fill="url(#linearGradient7364)"
         stroke-width="0.049219"
         id="path1550"
         style="fill:url(#linearGradient7364)" />
      <path
         transform="matrix(0.14426,-0.025073,0.018787,0.10809,175.51,178.65)"
         d="m 78.137,217.71 -6.9767,-1.3479 0.14465,6.6412 -6.6102,-2.6069 -1.0781,6.5547 -6.0186,-3.7772 -2.2642,6.245 -5.2221,-4.8188 -3.3732,5.7226 -4.2477,-5.6963 -4.3673,5.0054 -3.1287,-6.3798 -5.2126,4.1177 -1.9031,-6.8461 -5.8805,3.0897 -0.61278,-7.0792 -6.3481,1.9566 0.69846,-7.0713 -6.5996,0.75681 1.9859,-6.8225 -6.6263,-0.46874 3.2057,-6.3414 -6.4273,-1.6783 4.3164,-5.6444 -6.0095,-2.8308 5.28,-4.7552 -5.387,-3.8868 6.0639,-3.704 -4.5811,-4.8105 6.6413,-2.5267 -3.6191,-5.5703 6.9925,-1.2634 -2.534,-6.1405 7.1055,0.043 -1.3625,-6.5016 6.9767,1.3479 -0.14465,-6.6412 6.6102,2.6069 1.0781,-6.5547 6.0186,3.7772 2.2642,-6.245 5.2221,4.8188 3.3732,-5.7226 4.2477,5.6963 4.3673,-5.0054 3.1287,6.3798 5.2126,-4.1177 1.9031,6.8461 5.8805,-3.0898 0.61278,7.0792 6.3481,-1.9566 -0.69846,7.0713 6.5996,-0.75681 -1.9859,6.8225 6.6263,0.46874 -3.2057,6.3414 6.4273,1.6783 -4.3164,5.6444 6.0095,2.8308 -5.28,4.7552 5.387,3.8868 -6.0639,3.704 4.5811,4.8105 -6.6413,2.5267 3.6191,5.5703 -6.9925,1.2634 2.534,6.1405 -7.1055,-0.043 z"
         fill="#502d16"
         stroke-width="0.26458"
         id="path1552" />
    </g>
    <g
       fill="#b3ff80"
       stroke-width="0"
       id="g1612"
       transform="translate(2.2950355,-31.912835)">
      <path
         d="m 77.012,274.99 c -0.41224,-0.0632 -1.3055,-0.70578 -1.8699,-1.5959 -0.5644,-0.89012 -0.79999,-2.0278 -0.82944,-2.6651 -0.02945,-0.63734 0.14723,-0.77428 0.44663,-0.48983 0.2994,0.28445 0.72146,0.99022 0.94721,1.5064 0.22575,0.51617 0.25519,0.84271 0.48588,1.1903 0.23069,0.34762 0.66257,0.71631 0.91286,1.1587 0.25028,0.44244 0.31899,0.9586 -0.09325,0.89539 z"
         id="path1596" />
      <path
         d="m 79.017,280.99 c -0.19139,-0.62676 -0.7607,-1.4379 -1.5607,-2.0015 -0.8,-0.5636 -1.8306,-0.87961 -2.3018,-0.73738 -0.4712,0.14223 -0.38283,0.74266 0.32393,1.5274 0.70676,0.78474 2.0319,1.7539 2.7876,2.0172 0.75578,0.26334 0.94228,-0.17908 0.75089,-0.80584 z"
         id="path1598" />
      <path
         d="m 81.645,287.08 c -0.62819,-0.81113 -1.4134,-1.2641 -2.2036,-1.459 -0.7902,-0.1949 -1.5852,-0.13169 -1.649,0.29497 -0.06379,0.42666 0.60366,1.2167 1.6294,1.9962 1.0258,0.77952 2.4097,1.5485 2.8662,1.3483 0.45641,-0.20014 -0.01473,-1.3694 -0.64292,-2.1805 z"
         id="path1600" />
      <path
         d="m 84.907,290.67 c -0.04419,-1.0323 0.09323,-2.7178 0.40734,-4.3611 0.3141,-1.6433 0.80488,-3.2445 1.1828,-4.024 0.37793,-0.77954 0.64295,-0.7374 0.72145,0.0738 0.0785,0.81116 -0.02947,2.3912 -0.21106,3.8239 -0.18159,1.4326 -0.4368,2.7178 -0.71655,3.7396 -0.27975,1.0218 -0.58404,1.7802 -0.84904,1.9699 -0.26501,0.18962 -0.49076,-0.1896 -0.53495,-1.2219 z"
         id="path1602" />
      <path
         d="m 86.546,295.35 c -0.10308,-0.61624 0.49567,-1.8171 1.0552,-2.8073 0.5595,-0.99022 1.0797,-1.7697 1.4724,-2.0857 0.39266,-0.31602 0.65767,-0.16854 0.83434,0.20544 0.17667,0.37398 0.265,0.97439 0.15211,1.638 -0.11289,0.66361 -0.42699,1.3905 -0.76072,2.0225 -0.33373,0.632 -0.6871,1.1693 -1.2662,1.4221 -0.57911,0.25281 -1.384,0.22121 -1.4871,-0.39502 z"
         id="path1604" />
      <path
         d="m 85.089,294.39 c -0.638,-0.50035 -1.914,-1.5011 -3.0429,-2.2332 -1.1289,-0.7321 -2.1104,-1.1956 -2.6502,-1.1693 -0.53989,0.0263 -0.63804,0.5425 -0.20612,1.2641 0.43192,0.72159 1.3938,1.6486 2.1153,2.2806 0.7215,0.632 1.2024,0.96912 1.9926,1.1271 0.79017,0.15799 1.8895,0.13693 2.3459,-0.0211 0.45642,-0.15799 0.26993,-0.45293 0.17667,-0.60043 -0.09327,-0.1475 -0.09327,-0.14751 -0.73126,-0.64786 z"
         id="path1606" />
      <path
         d="m 77.907,273.21 c -0.06842,-0.71052 0.32897,-2.0952 0.70031,-3.2369 0.37134,-1.1417 0.71661,-2.0405 0.97722,-2.4049 0.26061,-0.36437 0.4365,-0.19433 0.55375,0.23686 0.11725,0.43119 0.17588,1.1235 0.10095,1.8887 -0.07493,0.76519 -0.2834,1.6032 -0.5049,2.332 -0.2215,0.7288 -0.45602,1.3482 -0.84038,1.6397 -0.38435,0.29149 -0.91854,0.25505 -0.98697,-0.45547 z"
         id="path1608" />
      <path
         d="m 80.198,282.62 c 0.25787,-0.52994 0.77361,-1.5898 1.2555,-2.4638 0.48193,-0.87396 0.93002,-1.562 1.2682,-1.8409 0.33818,-0.2789 0.56649,-0.14876 0.71866,0.18132 0.15217,0.33007 0.22826,0.86 0.13102,1.4457 -0.09724,0.58573 -0.36779,1.2272 -0.65525,1.7851 -0.28746,0.5579 -0.59183,1.032 -1.0907,1.2551 -0.49882,0.22313 -1.1921,0.19523 -1.5388,0.18128 -0.34666,-0.0139 -0.34666,-0.0139 -0.08879,-0.54386 z"
         id="path1610" />
    </g>
    <path
       d="m 79.590036,234.65716 c -0.127352,0.51208 -0.499829,4.0223 -0.27405,7.172 0.22578,3.1497 1.049801,5.9388 2.4139,9.0189 1.364099,3.0801 3.2684,6.4509 4.426601,8.6736 1.158293,2.2227 1.570493,3.2971 1.835503,3.9081 0.26503,0.61097 0.38282,0.75844 0.6282,0.81109 0.2454,0.0526 0.61839,0.0105 0.30426,-1.1377 -0.31411,-1.1482 -1.3153,-3.4024 -2.542295,-5.8464 -1.227,-2.444 -2.6797,-5.0774 -3.867399,-8.1323 -1.187701,-3.0549 -2.110401,-6.5311 -2.5128,-9.5122 -0.4024,-2.9811 -0.28466,-5.4672 -0.41201,-4.9551 z"
       fill="#8dd35f"
       stroke-width="0"
       id="path1614" />
    <g
       fill="#b3ff80"
       stroke-width="0"
       id="g1632"
       transform="translate(2.2950355,-31.912835)">
      <path
         d="m 77.071,266.25 c 0.15254,-1.0204 0.60676,-2.6405 1.226,-4.1808 0.61922,-1.5403 1.4034,-3.0007 1.9213,-3.6814 0.51787,-0.68064 0.76935,-0.5815 0.69236,0.22981 -0.07699,0.81132 -0.4824,2.3347 -0.93192,3.6977 -0.44952,1.363 -0.94313,2.5654 -1.4108,3.5048 -0.46767,0.9394 -0.90946,1.6154 -1.2049,1.7432 -0.29542,0.12775 -0.44453,-0.29284 -0.29198,-1.3132 z"
         id="path1616" />
      <path
         d="m 201.2,287.01 c 0.1914,-0.34171 0.76071,-0.78395 1.5607,-1.0912 0.79999,-0.30728 1.8306,-0.47957 2.3018,-0.40202 0.47117,0.0775 0.38283,0.40491 -0.32393,0.83278 -0.70676,0.42788 -2.0318,0.95625 -2.7876,1.0998 -0.7558,0.14355 -0.94229,-0.0976 -0.7509,-0.43935 z"
         id="path1618" />
      <path
         d="m 198.57,290.33 c 0.6282,-0.44225 1.4135,-0.68921 2.2036,-0.79547 0.7901,-0.10626 1.5852,-0.0718 1.649,0.16082 0.0638,0.23262 -0.60366,0.66337 -1.6294,1.0884 -1.0258,0.425 -2.4097,0.84426 -2.8662,0.73514 -0.4565,-0.10912 0.0147,-0.74662 0.64292,-1.1889 z"
         id="path1620" />
      <path
         d="m 195.42,292.19 c -0.0687,-0.45945 -0.20613,-1.3784 -0.52023,-2.2744 -0.31411,-0.89597 -0.80488,-1.7689 -1.1828,-2.194 -0.37792,-0.42501 -0.64295,-0.40204 -0.72145,0.0402 -0.0785,0.44225 0.0295,1.3037 0.21106,2.0848 0.18159,0.78109 0.43679,1.4818 0.71654,2.0389 0.27975,0.55711 0.58403,0.97061 0.84904,1.074 0.26501,0.10339 0.49077,-0.10336 0.60366,-0.20676 0.1129,-0.10339 0.1129,-0.10337 0.0442,-0.56283 z"
         id="path1622" />
      <path
         d="m 194.07,294.83 c -0.29939,-0.32737 -0.89814,-0.98211 -1.4576,-1.522 -0.5595,-0.53987 -1.0797,-0.96487 -1.4724,-1.1372 -0.39264,-0.17228 -0.65766,-0.0919 -0.83433,0.11203 -0.17667,0.2039 -0.26501,0.53126 -0.15212,0.89307 0.11288,0.36181 0.42697,0.75809 0.76071,1.1027 0.33373,0.3446 0.6871,0.63751 1.2662,0.77535 0.57912,0.13784 1.384,0.1206 1.7864,0.11199 0.40247,-0.009 0.40247,-0.009 0.10309,-0.33598 z"
         id="path1624" />
      <path
         d="m 195.12,294.32 c 0.63801,-0.2728 1.914,-0.81841 3.0429,-1.2176 1.1288,-0.39916 2.1104,-0.65187 2.6502,-0.63751 0.53989,0.0143 0.63804,0.29577 0.20612,0.68921 -0.43192,0.39343 -1.3938,0.89883 -2.1153,1.2434 -0.7215,0.34457 -1.2024,0.52838 -1.9926,0.61451 -0.79017,0.0861 -1.8895,0.0746 -2.3459,-0.0115 -0.45642,-0.0861 -0.26993,-0.24695 -0.17666,-0.32737 0.0933,-0.0804 0.0933,-0.0804 0.73126,-0.35319 z"
         id="path1626" />
      <path
         d="m 202.3,282.77 c 0.0684,-0.3874 -0.32897,-1.1423 -0.70031,-1.7648 -0.37134,-0.6225 -0.71661,-1.1125 -0.97723,-1.3112 -0.26062,-0.19866 -0.43649,-0.10596 -0.55375,0.12914 -0.11725,0.2351 -0.17588,0.61255 -0.10095,1.0297 0.0749,0.4172 0.2834,0.87411 0.50489,1.2714 0.2215,0.39733 0.45603,0.73505 0.84038,0.89398 0.38436,0.15893 0.91855,0.13907 0.98697,-0.24832 z"
         id="path1628" />
      <path
         d="m 200.01,287.9 c -0.25788,-0.28894 -0.77362,-0.86681 -1.2556,-1.3433 -0.48193,-0.47649 -0.93003,-0.8516 -1.2682,-1.0037 -0.33817,-0.1521 -0.56647,-0.0811 -0.71865,0.0989 -0.15217,0.17996 -0.22827,0.4689 -0.13103,0.78823 0.0972,0.31934 0.36779,0.6691 0.65525,0.97324 0.28746,0.30414 0.59182,0.56265 1.0906,0.68432 0.49878,0.12167 1.1921,0.10647 1.5388,0.0989 0.34666,-0.008 0.34666,-0.008 0.0888,-0.29656 z"
         id="path1630" />
    </g>
    <path
       d="m 205.15503,246.55716 c 0.18624,0.95691 0.55872,2.8707 0.33294,4.588 -0.22577,1.7173 -1.0498,3.2379 -2.4139,4.9172 -1.3641,1.6793 -3.2684,3.5171 -4.4266,4.729 -1.1582,1.2118 -1.5705,1.7976 -1.8355,2.1308 -0.26502,0.3331 -0.38283,0.41352 -0.62822,0.44222 -0.2454,0.0287 -0.61839,0.006 -0.30427,-0.62027 0.31412,-0.62602 1.3153,-1.8551 2.5423,-3.1875 1.227,-1.3325 2.6797,-2.7683 3.8674,-4.4338 1.1877,-1.6656 2.1104,-3.5608 2.5128,-5.1862 0.4024,-1.6254 0.28467,-2.9808 0.22577,-3.6585 -0.0589,-0.6777 -0.0589,-0.67774 0.12735,0.27917 z"
       fill="#8dd35f"
       id="path1634"
       style="stroke-width:0" />
    <path
       d="m 205.43503,247.06716 c -0.15254,-0.55633 -0.60676,-1.4397 -1.226,-2.2795 -0.61922,-0.83981 -1.4034,-1.636 -1.9213,-2.0071 -0.51786,-0.37108 -0.76933,-0.31703 -0.69235,0.12531 0.077,0.44233 0.48239,1.2729 0.93191,2.016 0.44952,0.7431 0.94313,1.3987 1.4108,1.9108 0.46769,0.51212 0.90946,0.88074 1.2049,0.9504 0.29543,0.0697 0.44453,-0.15965 0.29199,-0.71598 z"
       fill="#b3ff80"
       id="path1636"
       style="stroke-width:0" />
  </g>
</svg>
