<?xml version="1.0" encoding="UTF-8" standalone="no"?>
<svg
   xmlns:dc="http://purl.org/dc/elements/1.1/"
   xmlns:cc="http://creativecommons.org/ns#"
   xmlns:rdf="http://www.w3.org/1999/02/22-rdf-syntax-ns#"
   xmlns:svg="http://www.w3.org/2000/svg"
   xmlns="http://www.w3.org/2000/svg"
   xmlns:sodipodi="http://sodipodi.sourceforge.net/DTD/sodipodi-0.dtd"
   xmlns:inkscape="http://www.inkscape.org/namespaces/inkscape"
   width="210mm"
   height="297mm"
   viewBox="0 0 210 297"
   version="1.1"
   id="svg6611"
   inkscape:version="1.0.1 (3bc2e813f5, 2020-09-07)"
   sodipodi:docname="text.svg">
  <defs
     id="defs6605">
    <inkscape:path-effect
       effect="bspline"
       id="path-effect6549"
       is_visible="true"
       lpeversion="1"
       weight="33.333333"
       steps="2"
       helper_size="0"
       apply_no_weight="true"
       apply_with_weight="true"
       only_selected="false" />
    <inkscape:path-effect
       effect="bspline"
       id="path-effect5894"
       is_visible="true"
       lpeversion="1"
       weight="33.333333"
       steps="2"
       helper_size="0"
       apply_no_weight="true"
       apply_with_weight="true"
       only_selected="false" />
    <inkscape:path-effect
       effect="bspline"
       id="path-effect5890"
       is_visible="true"
       lpeversion="1"
       weight="33.333333"
       steps="2"
       helper_size="0"
       apply_no_weight="true"
       apply_with_weight="true"
       only_selected="false" />
    <inkscape:path-effect
       effect="bspline"
       id="path-effect5886"
       is_visible="true"
       lpeversion="1"
       weight="33.333333"
       steps="2"
       helper_size="0"
       apply_no_weight="true"
       apply_with_weight="true"
       only_selected="false" />
    <inkscape:path-effect
       effect="bspline"
       id="path-effect5291"
       is_visible="true"
       lpeversion="1"
       weight="33.333333"
       steps="2"
       helper_size="0"
       apply_no_weight="true"
       apply_with_weight="true"
       only_selected="false" />
  </defs>
  <sodipodi:namedview
     id="base"
     pagecolor="#ffffff"
     bordercolor="#666666"
     borderopacity="1.0"
     inkscape:pageopacity="0.0"
     inkscape:pageshadow="2"
     inkscape:zoom="0.7"
     inkscape:cx="321.3054"
     inkscape:cy="313.23016"
     inkscape:document-units="mm"
     inkscape:current-layer="layer1"
     inkscape:document-rotation="0"
     showgrid="true"
     inkscape:window-width="1366"
     inkscape:window-height="705"
     inkscape:window-x="-8"
     inkscape:window-y="-8"
     inkscape:window-maximized="1">
    <inkscape:grid
       type="xygrid"
       id="grid7528" />
  </sodipodi:namedview>
  <metadata
     id="metadata6608">
    <rdf:RDF>
      <cc:Work
         rdf:about="">
        <dc:format>image/svg+xml</dc:format>
        <dc:type
           rdf:resource="http://purl.org/dc/dcmitype/StillImage" />
        <dc:title></dc:title>
      </cc:Work>
    </rdf:RDF>
  </metadata>
  <g
     inkscape:label="Layer 1"
     inkscape:groupmode="layer"
     id="layer1">
    <rect
       x="26.341669"
       y="58.208332"
       width="169.45"
       height="135.03525"
       fill="#ffffcc"
       id="rect1638"
       style="stroke-width:0" />
    <g
       font-family="Arial"
       text-anchor="middle"
       id="g1728"
       transform="translate(-2.1779834,16.084559)">
      <text
         transform="scale(0.89798,1.1136)"
         x="59.295033"
         y="79.414963"
         font-size="3.1679px"
         stroke-width="0.23759"
         style="line-height:3.95983px"
         xml:space="preserve"
         id="text1680"><tspan
           x="59.295033"
           y="79.414963"
           text-align="center"
           id="tspan1642">We’re FloomX and we’re on a </tspan><tspan
           x="59.295033"
           y="83.374794"
           text-align="center"
           id="tspan1644">mission to completely </tspan><tspan
           x="59.295033"
           y="87.334625"
           text-align="center"
           id="tspan1646">transform the way that florists </tspan><tspan
           x="59.295033"
           y="91.294456"
           text-align="center"
           id="tspan1648">run their business' for the better.</tspan><tspan
           x="59.295033"
           y="95.25428"
           text-align="center"
           id="tspan1650">Using simple technology </tspan><tspan
           x="59.295033"
           y="99.214111"
           text-align="center"
           id="tspan1652">alongside daily guidance </tspan><tspan
           x="59.295033"
           y="103.17394"
           text-align="center"
           id="tspan1654">and support, </tspan><tspan
           x="59.295033"
           y="107.13377"
           text-align="center"
           id="tspan1656">we will empower you with</tspan><tspan
           x="59.295033"
           y="111.09361"
           text-align="center"
           id="tspan1658"> anything and everything</tspan><tspan
           x="59.295033"
           y="115.05344"
           text-align="center"
           id="tspan1660"> you need to run things </tspan><tspan
           x="59.295033"
           y="119.01326"
           text-align="center"
           id="tspan1662">efficiently and </tspan><tspan
           x="59.295033"
           y="122.97309"
           text-align="center"
           id="tspan1664">effectively so you can</tspan><tspan
           x="59.295033"
           y="126.93292"
           text-align="center"
           id="tspan1666"> focus on being creative.</tspan><tspan
           x="59.295033"
           y="130.89275"
           text-align="center"
           id="tspan1668">From farm to the customer </tspan><tspan
           x="59.295033"
           y="134.85257"
           text-align="center"
           id="tspan1670">and everything in between, </tspan><tspan
           x="59.295033"
           y="138.81241"
           text-align="center"
           id="tspan1672">we’re here to help you grow. </tspan><tspan
           x="59.295033"
           y="142.77223"
           text-align="center"
           id="tspan1674">Our platform makes it easy to manage </tspan><tspan
           x="59.295033"
           y="146.73207"
           text-align="center"
           id="tspan1676">everyday tasks and</tspan><tspan
           x="59.295033"
           y="150.69189"
           text-align="center"
           id="tspan1678"> long-term goals from anywhere.</tspan></text>
      <text
         transform="scale(0.89798,1.1136)"
         x="118.19421"
         y="77.264114"
         font-size="3.1679px"
         stroke-width="0.23759"
         style="line-height:3.95983px"
         xml:space="preserve"
         id="text1692"><tspan
           x="118.19421"
           y="77.264114"
           text-align="center"
           id="tspan1682">We provide our members with daily </tspan><tspan
           x="118.19421"
           y="81.223946"
           text-align="center"
           id="tspan1684">guidance, support and inspiration </tspan><tspan
           x="118.19421"
           y="85.183777"
           text-align="center"
           id="tspan1686">to run their business. </tspan><tspan
           x="118.19421"
           y="89.143608"
           text-align="center"
           id="tspan1688">You’ll also be joining a network </tspan><tspan
           x="118.19421"
           y="93.103432"
           text-align="center"
           id="tspan1690">of like-minded florists.</tspan></text>
      <text
         transform="scale(0.77929,1.2832)"
         x="203.26018"
         y="68.452591"
         font-size="2.7554px"
         stroke-width="0.20619"
         style="font-size:2.91044px;line-height:3.63798px"
         xml:space="preserve"
         id="text1726"><tspan
           x="203.26018"
           y="68.452591"
           text-align="center"
           id="tspan1694">Three years ago in London, </tspan><tspan
           x="203.26018"
           y="71.896782"
           text-align="center"
           id="tspan1696">Lana Elie founded Floom, </tspan><tspan
           x="203.26018"
           y="75.340973"
           text-align="center"
           id="tspan1698">an online marketplace that provides </tspan><tspan
           x="203.26018"
           y="78.785164"
           text-align="center"
           id="tspan1700">independent florists from the UK and </tspan><tspan
           x="203.26018"
           y="82.229355"
           text-align="center"
           id="tspan1702">US a platform to sell beautifully </tspan><tspan
           x="203.26018"
           y="85.673538"
           text-align="center"
           id="tspan1704">crafted bouquets, </tspan><tspan
           x="203.26018"
           y="89.117729"
           text-align="center"
           id="tspan1706">and customers a way to buy them.</tspan><tspan
           x="203.26018"
           y="92.56192"
           text-align="center"
           id="tspan1708" /><tspan
           x="203.26018"
           y="96.006111"
           text-align="center"
           id="tspan1710">Frustrated with the underwhelming arrangements big</tspan><tspan
           x="203.26018"
           y="99.450302"
           text-align="center"
           id="tspan1712"> floral companies offered online, Lana knew there had to </tspan><tspan
           x="203.26018"
           y="102.89449"
           text-align="center"
           id="tspan1714">be a better way to find and send</tspan><tspan
           x="203.26018"
           y="106.33868"
           text-align="center"
           id="tspan1716"> arrangements that didn’t </tspan><tspan
           x="203.26018"
           y="109.78287"
           text-align="center"
           id="tspan1718">feel prepackaged and impersonal. </tspan><tspan
           x="203.26018"
           y="113.22706"
           text-align="center"
           id="tspan1720">The answer laid in handpicking local</tspan><tspan
           x="203.26018"
           y="116.67125"
           text-align="center"
           id="tspan1722"> independent florists who were experts at creating thoughtful, </tspan><tspan
           x="203.26018"
           y="120.11544"
           text-align="center"
           id="tspan1724">unique bouquets. (The rest is botanic history!)</tspan></text>
    </g>
    <g
       fill="#000000"
       font-family="sans-serif"
       font-size="6.35px"
       stroke-width="0.26458"
       id="g1742"
       transform="translate(-1.7265604,16.187247)">
      <text
         x="37.131634"
         y="80.039795"
         style="line-height:1.25"
         xml:space="preserve"
         id="text1732"><tspan
           x="37.131634"
           y="80.039795"
           font-family="'Script MT Bold'"
           font-size="6.35px"
           stroke-width="0.26458"
           id="tspan1730">Our Mission</tspan></text>
      <text
         x="91.388702"
         y="79.029846"
         style="line-height:1.25"
         xml:space="preserve"
         id="text1736"><tspan
           x="91.388702"
           y="79.029846"
           font-family="'Script MT Bold'"
           font-size="6.35px"
           stroke-width="0.26458"
           id="tspan1734">Community</tspan></text>
      <text
         x="145.8714"
         y="78.896484"
         style="line-height:1.25"
         xml:space="preserve"
         id="text1740"><tspan
           x="145.8714"
           y="78.896484"
           font-family="'Script MT Bold'"
           font-size="6.35px"
           stroke-width="0.26458"
           id="tspan1738">Our Story</tspan></text>
    </g>
    <ellipse
       style="fill:#ff9999;fill-opacity:1;stroke:#55d400;stroke-width:0;stroke-miterlimit:4;stroke-dasharray:none"
       id="path4057"
       cx="50.709888"
       cy="75.670151"
       rx="18.864243"
       ry="12.697054" />
    <ellipse
       style="fill:#ff9999;fill-opacity:1;stroke:#55d400;stroke-width:0;stroke-miterlimit:4;stroke-dasharray:none"
       id="ellipse4059"
       cx="102.73058"
       cy="75.949768"
       rx="18.864243"
       ry="12.697054" />
    <ellipse
       style="fill:#ff9999;fill-opacity:1;stroke:#55d400;stroke-width:0;stroke-miterlimit:4;stroke-dasharray:none"
       id="ellipse4061"
       cx="157.88844"
       cy="76.017151"
       rx="18.864243"
       ry="12.697054" />
    <ellipse
       style="fill:#ffb3ec;fill-opacity:1;stroke:#55d400;stroke-width:0;stroke-miterlimit:4;stroke-dasharray:none"
       id="path4065"
       cx="50.742016"
       cy="75.374283"
       rx="13.193236"
       ry="8.468749" />
    <ellipse
       style="fill:#ff9999;fill-opacity:1;stroke:#55d400;stroke-width:0;stroke-miterlimit:4;stroke-dasharray:none"
       id="path4065-4"
       cx="50.383373"
       cy="75.240868"
       rx="10.631283"
       ry="6.9709635" />
    <ellipse
       style="fill:#ffb3ec;fill-opacity:1;stroke:#55d400;stroke-width:0;stroke-miterlimit:4;stroke-dasharray:none"
       id="path4065-5"
       cx="50.448666"
       cy="75.264801"
       rx="8.2523232"
       ry="6.017827" />
    <ellipse
       style="fill:#ff9999;fill-opacity:1;stroke:#55d400;stroke-width:0;stroke-miterlimit:4;stroke-dasharray:none"
       id="path4065-4-9"
       cx="50.163593"
       cy="75.431061"
       rx="4.9583821"
       ry="3.7030663" />
    <path
       style="fill:#ffb3ec;fill-opacity:1;stroke:#000000;stroke-width:0;stroke-linecap:butt;stroke-linejoin:miter;stroke-miterlimit:4;stroke-dasharray:none;stroke-opacity:1"
       d="m 50.280725,75.146134 c 0.09048,0.214018 0.27136,0.641875 0.360599,0.834984 0.08924,0.193108 0.08691,0.151511 2.794767,-0.608024 2.707862,-0.759535 8.125672,-2.236761 10.846092,-2.971554 2.720419,-0.734793 2.743317,-0.727145 3.364983,-0.529738 0.621667,0.197407 1.842154,0.584594 2.440965,0.77437 0.598811,0.189775 0.576021,0.182163 1.728837,-0.137148 1.152815,-0.319311 3.481269,-0.950235 4.622761,-1.273288 1.141492,-0.323053 1.095711,-0.33834 0.541382,-0.533669 -0.55433,-0.195328 -1.617321,-0.570738 -2.137415,-0.754636 -0.520094,-0.183898 -0.497196,-0.17625 -0.342085,-0.206121 0.155112,-0.02987 0.442611,-0.09716 0.580088,-0.143029 0.137476,-0.04587 0.124879,-0.07048 -9.91e-4,-0.31665 -0.12587,-0.246174 -0.365003,-0.71389 -0.512521,-0.946977 -0.147518,-0.233086 -0.203471,-0.231352 -0.368922,-0.184532 -0.16545,0.04682 -0.440362,0.138727 -0.600618,0.177083 -0.160256,0.03835 -0.205948,0.0231 -0.04509,-0.402846 0.16086,-0.425946 0.528389,-1.262637 0.705928,-1.693273 0.177538,-0.430636 0.164957,-0.455216 -0.94856,-0.133096 -1.113517,0.322119 -3.327797,0.99117 -4.45149,1.33038 -1.123692,0.33921 -1.156801,0.348578 -1.362246,0.780169 -0.205445,0.43159 -0.583223,1.285277 -0.761872,1.695132 -0.178649,0.409855 -0.158137,0.375852 -2.678846,1.075247 -2.520708,0.699394 -7.582521,2.132212 -10.257232,2.882281 -2.67471,0.75007 -2.962208,0.81736 -3.165863,0.882051 -0.203655,0.06469 -0.323403,0.126768 -0.383277,0.157806 -0.05987,0.03104 -0.05985,0.03106 0.03062,0.245078 z"
       id="path5289"
       inkscape:path-effect="#path-effect5291"
       inkscape:original-d="m 50.190247,74.932116 c 0.18097,0.42803 0.36185,0.855888 0.54264,1.283562 -0.002,-0.04147 -0.005,-0.08303 -0.007,-0.124822 5.41812,-1.4771 10.83593,-2.954327 16.25377,-4.431773 0.0229,0.0078 0.0458,0.01544 0.0685,0.02288 1.22063,0.387391 2.44111,0.774599 3.66155,1.161588 -0.0228,-0.0075 -0.0456,-0.01508 -0.0685,-0.02288 2.32863,-0.630759 4.65708,-1.261696 6.98548,-1.892806 -0.0455,-0.01508 -0.0913,-0.03031 -0.13701,-0.04575 -1.06294,-0.375251 -2.12594,-0.750635 -3.18902,-1.126246 0.0229,0.0078 0.0458,0.01544 0.0685,0.02288 0.28761,-0.06712 0.57511,-0.13441 0.86253,-0.201889 -0.0125,-0.02445 -0.0251,-0.04906 -0.0378,-0.07385 -0.23905,-0.467553 -0.47818,-0.93527 -0.71741,-1.403172 -0.0558,0.002 -0.11176,0.0035 -0.16776,0.0052 -0.27484,0.09209 -0.54975,0.184001 -0.82477,0.275733 -0.0456,-0.01508 -0.0913,-0.03031 -0.13702,-0.04575 0.36764,-0.836543 0.73516,-1.673238 1.10261,-2.510127 -0.0125,-0.02445 -0.0251,-0.04902 -0.0378,-0.07385 -2.21427,0.669254 -4.42855,1.338305 -6.64295,2.007186 -0.033,0.0095 -0.0661,0.0189 -0.0992,0.02807 -0.3777,0.853891 -0.75548,1.707578 -1.13335,2.561097 0.0206,-0.03377 0.0411,-0.06778 0.0615,-0.101947 -5.06192,1.433046 -10.12373,2.865875 -15.18573,4.298534 -0.28743,0.06748 -0.57493,0.134762 -0.86253,0.201878 -0.11966,0.06226 -0.23941,0.124333 -0.35925,0.186232 z" />
    <path
       style="fill:#ffb3ec;fill-opacity:1;stroke:#000000;stroke-width:0;stroke-linecap:butt;stroke-linejoin:miter;stroke-miterlimit:4;stroke-dasharray:none;stroke-opacity:1"
       d="m 90.437293,74.634008 c 0.298298,0.207857 0.894849,0.623541 1.536152,0.852871 0.641303,0.229331 1.327322,0.272332 1.961161,0.229324 0.633839,-0.04301 1.215468,-0.17201 1.506269,-0.229324 0.2908,-0.05731 0.2908,-0.04295 0.111833,0.19353 -0.178967,0.236483 -0.536892,0.695167 -0.857541,1.247034 -0.320648,0.551867 -0.604007,1.196881 -0.835175,1.81325 -0.231168,0.616368 -0.410135,1.204049 -0.529445,1.798918 -0.11931,0.594869 -0.178962,1.196885 -0.178956,1.684248 5e-6,0.487362 0.05966,0.860036 0.06712,1.05352 0.0075,0.193483 -0.03724,0.207807 -0.387732,0.222149 -0.350488,0.01434 -1.006688,0.02868 -1.69273,-0.01432 -0.686043,-0.043 -1.401892,-0.143335 -1.990991,-0.315335 -0.589098,-0.172 -1.051419,-0.415672 -1.394456,-0.874356 -0.343037,-0.458684 -0.566738,-1.132363 -0.611489,-1.86341 -0.04475,-0.731047 0.08947,-1.519398 0.298265,-2.228941 0.208794,-0.709543 0.492152,-1.340225 0.872464,-1.906428 0.380311,-0.566203 0.857548,-1.067883 1.178206,-1.3689 0.320657,-0.301018 0.484697,-0.40135 0.566721,-0.451517 0.08202,-0.05017 0.08202,-0.05016 0.380321,0.157692 z"
       id="path5884"
       inkscape:path-effect="#path-effect5886"
       inkscape:original-d="m 90.138995,74.426151 c 0.59659,0.415722 1.19314,0.831408 1.78966,1.247054 0.68609,0.04305 1.37211,0.08604 2.05811,0.129005 0.58169,-0.128969 1.16332,-0.257969 1.74491,-0.387014 4e-5,0.01437 4e-5,0.02873 0,0.043 -0.35789,0.45873 -0.71582,0.917411 -1.07378,1.376059 -0.28333,0.645075 -0.56669,1.290089 -0.85009,1.935076 -0.17893,0.587746 -0.3579,1.175426 -0.53691,1.763079 -0.0596,0.602076 -0.11926,1.204091 -0.17896,1.806077 0.0597,0.372728 0.11935,0.745402 0.17896,1.11805 -0.0447,0.01437 -0.0894,0.02873 -0.13422,0.043 -0.65618,0.01437 -1.31238,0.02873 -1.96863,0.043 -0.71584,-0.100302 -1.43169,-0.200634 -2.14759,-0.301012 -0.4623,-0.243643 -0.92462,-0.487317 -1.38699,-0.731031 -0.22367,-0.673675 -0.44738,-1.347351 -0.67112,-2.021087 0.13426,-0.788345 0.26849,-1.576695 0.40267,-2.365104 0.28341,-0.630663 0.56677,-1.261344 0.85009,-1.892078 0.47729,-0.501658 0.95453,-1.003335 1.43173,-1.505059 0.1641,-0.100307 0.32814,-0.200639 0.49216,-0.301018 z" />
    <path
       style="fill:#ffb3ec;fill-opacity:1;stroke:#000000;stroke-width:0;stroke-linecap:butt;stroke-linejoin:miter;stroke-miterlimit:4;stroke-dasharray:none;stroke-opacity:1"
       d="m 98.707009,74.985194 c 0.380323,0.258025 1.140921,0.774043 2.087961,1.082211 0.94703,0.308168 2.08046,0.408503 3.0275,0.286656 0.94703,-0.121847 1.70761,-0.465849 2.28179,-0.788366 0.57419,-0.322516 0.96194,-0.623524 1.15581,-0.759663 0.19388,-0.13614 0.19388,-0.1075 0.48473,0.179191 0.29085,0.286691 0.87246,0.831359 1.42428,1.548071 0.55182,0.716713 1.07379,1.605395 1.43918,2.651785 0.36538,1.046389 0.57417,2.250414 0.55179,3.275292 -0.0224,1.024879 -0.27591,1.870561 -0.76807,2.494079 -0.49215,0.623518 -1.22291,1.024856 -1.97607,1.254203 -0.75315,0.229346 -1.52864,0.286679 -2.40857,0.315349 -0.87993,0.02867 -1.86422,0.02867 -2.82618,0.02867 -0.96196,0 -1.9015,0 -2.95294,-0.0645 -1.05143,-0.0645 -2.21469,-0.193506 -3.161723,-0.508847 -0.947033,-0.315341 -1.677786,-0.817013 -2.125217,-1.397537 -0.447431,-0.580524 -0.61148,-1.239869 -0.618945,-2.056922 -0.0075,-0.817054 0.141668,-1.791737 0.335548,-2.587285 0.19388,-0.795547 0.432496,-1.411895 0.760603,-2.0211 0.328108,-0.609205 0.745684,-1.211222 1.155819,-1.698582 0.410135,-0.487359 0.812802,-0.860031 1.103632,-1.089378 0.29083,-0.229347 0.469799,-0.315351 0.559274,-0.358348 0.08947,-0.043 0.08947,-0.043 0.469798,0.215024 z"
       id="path5888"
       inkscape:path-effect="#path-effect5890"
       inkscape:original-d="m 98.326686,74.727168 c 0.76064,0.51606 1.521237,1.032079 2.281804,1.548062 1.13351,0.100384 2.26694,0.200711 3.40037,0.301013 0.76066,-0.343985 1.52124,-0.687987 2.28181,-1.032038 0.38781,-0.300982 0.77556,-0.60199 1.16328,-0.903043 4e-5,0.02873 4e-5,0.05737 0,0.08601 0.5817,0.544737 1.16331,1.089413 1.74492,1.634069 0.52204,0.888758 1.04401,1.777444 1.56597,2.666111 0.20883,1.204112 0.41761,2.408138 0.62638,3.612159 -0.25351,0.84575 -0.50704,1.691433 -0.76061,2.537107 -0.73076,0.40139 -1.46152,0.802731 -2.19234,1.204046 -0.77551,0.05737 -1.551,0.114713 -2.32657,0.172007 -0.98429,4.1e-5 -1.96858,4.1e-5 -2.95295,0 -0.93955,4.1e-5 -1.87909,4.1e-5 -2.81871,0 -1.163254,-0.128969 -2.326514,-0.257968 -3.489825,-0.387018 -0.73076,-0.501659 -1.46151,-1.003336 -2.19232,-1.50506 -0.16402,-0.659339 -0.32807,-1.318683 -0.49216,-1.978084 0.14918,-0.974693 0.29831,-1.949377 0.44741,-2.924127 0.23867,-0.616331 0.47728,-1.232681 0.71586,-1.849073 0.41764,-0.602001 0.83521,-1.204022 1.25275,-1.806083 0.40272,-0.372652 0.80539,-0.74532 1.208031,-1.118045 0.179,-0.08597 0.35797,-0.171972 0.5369,-0.258009 z" />
    <path
       style="fill:#ffb3ec;fill-opacity:1;stroke:#000000;stroke-width:0;stroke-linecap:butt;stroke-linejoin:miter;stroke-miterlimit:4;stroke-dasharray:none;stroke-opacity:1"
       d="m 115.35833,74.6125 c -0.34304,0.171995 -0.87995,0.573346 -1.53615,0.817024 -0.65621,0.243677 -1.4317,0.32968 -2.00589,0.344019 -0.57419,0.01434 -0.94702,-0.043 -1.23784,-0.128992 -0.29082,-0.086 -0.49961,-0.200665 -0.41013,0.01436 0.0895,0.215026 0.47723,0.759706 0.83516,1.397571 0.35793,0.637866 0.68603,1.368886 0.92464,2.071255 0.23862,0.702368 0.38776,1.37605 0.46978,2.021082 0.082,0.645031 0.0969,1.261383 0.11183,1.641234 0.0149,0.37985 0.0298,0.523182 0.0299,0.594834 6e-5,0.07165 -0.0149,0.07165 0.35043,0.08599 0.36536,0.01433 1.11104,0.043 1.93131,-0.03584 0.82027,-0.07884 1.71508,-0.265179 2.34891,-0.645026 0.63382,-0.379848 1.00665,-0.953194 1.20054,-1.598215 0.19389,-0.645021 0.20883,-1.361707 0.0746,-2.099907 -0.13421,-0.7382 -0.41756,-1.497882 -0.75312,-2.150083 -0.33556,-0.652201 -0.72332,-1.196879 -1.01414,-1.576733 -0.29082,-0.379854 -0.48468,-0.594856 -0.65619,-0.731042 -0.17151,-0.136187 -0.32064,-0.19352 -0.66368,-0.02152 z"
       id="path5892"
       inkscape:path-effect="#path-effect5894"
       inkscape:original-d="m 115.55218,74.383152 c -0.53686,0.401387 -1.07376,0.802742 -1.6107,1.204046 -0.7755,0.08605 -1.551,0.172049 -2.32656,0.258015 -0.37282,-0.0573 -0.74566,-0.114633 -1.11854,-0.172008 -0.20876,-0.114633 -0.41755,-0.229302 -0.62638,-0.344017 0.38781,0.544743 0.77556,1.089424 1.16328,1.634073 0.32814,0.731082 0.65625,1.462097 0.98431,2.193092 0.14918,0.673746 0.29832,1.347427 0.44742,2.021088 0.015,0.616407 0.0299,1.232759 0.0447,1.849075 0.015,0.143381 0.0299,0.286716 0.0448,0.430023 -0.0148,3.4e-5 -0.0298,3.4e-5 -0.0448,0 0.74573,0.02873 1.49141,0.05737 2.23707,0.086 0.89489,-0.186308 1.7897,-0.372643 2.6845,-0.559023 0.37289,-0.573327 0.74572,-1.146675 1.11852,-1.72007 0.0149,-0.716678 0.0299,-1.433362 0.0448,-2.150098 -0.28332,-0.759676 -0.56667,-1.519359 -0.85008,-2.279091 -0.38773,-0.544666 -0.77548,-1.089347 -1.16329,-1.634069 -0.19384,-0.21498 -0.38771,-0.429981 -0.58163,-0.645029 -0.14911,-0.0573 -0.29824,-0.114638 -0.44742,-0.172007 z" />
    <ellipse
       style="fill:#ffb3ec;fill-opacity:1;stroke:#55d400;stroke-width:0;stroke-miterlimit:4;stroke-dasharray:none"
       id="path5942"
       cx="102.83292"
       cy="71.812973"
       rx="5.4347267"
       ry="4.0438161" />
    <ellipse
       style="fill:#ffb3ec;fill-opacity:1;stroke:#55d400;stroke-width:0;stroke-miterlimit:4;stroke-dasharray:none"
       id="path5942-9"
       cx="93.675713"
       cy="72.575546"
       rx="3.4217622"
       ry="2.6141114" />
    <ellipse
       style="fill:#ffb3ec;fill-opacity:1;stroke:#55d400;stroke-width:0;stroke-miterlimit:4;stroke-dasharray:none"
       id="path5942-9-3"
       cx="112.14002"
       cy="72.698029"
       rx="3.4217622"
       ry="2.6141114" />
    <path
       style="fill:none;stroke:#ffb3ec;stroke-width:1.77183;stroke-linecap:butt;stroke-linejoin:miter;stroke-miterlimit:4;stroke-dasharray:none;stroke-opacity:1"
       d="m 150.81248,70.379168 c -0.36708,0.119349 -1.10125,0.358053 -1.66658,0.816376 -0.56532,0.458324 -0.96177,1.136225 -1.09392,2.157902 -0.13215,1.021677 0,2.387039 0.0661,3.289344 0.0661,0.902306 0.0661,1.341515 0.30836,1.742539 0.24229,0.401023 0.72684,0.76385 1.439,1.012097 0.71216,0.248247 1.65188,0.381918 2.37871,0.410557 0.72684,0.02864 1.24076,-0.04774 1.49771,-0.07638 0.25695,-0.02864 0.25695,-0.0095 0.2129,0.152785 -0.0441,0.16232 -0.13215,0.467853 -0.32304,0.830682 -0.19089,0.362829 -0.48455,0.782939 -0.82228,1.164866 -0.33772,0.381927 -0.71949,0.72566 -0.97644,0.930943 -0.25696,0.205284 -0.3891,0.272116 -0.2129,0.210052 0.17621,-0.06206 0.66076,-0.253024 1.1967,-0.520373 0.53595,-0.267349 1.12328,-0.611076 1.75467,-1.078944 0.6314,-0.467868 1.30683,-1.059846 1.6299,-1.360601 0.32306,-0.300756 0.29374,-0.310304 0.76357,-0.319886 0.46983,-0.0096 1.43892,-0.01914 2.69438,-0.0096 1.25545,0.0095 2.79718,0.03818 3.99389,0.04296 1.19671,0.0048 2.04834,-0.01433 2.78251,-0.253044 0.73417,-0.238715 1.35086,-0.697012 1.69592,-1.408347 0.34506,-0.711336 0.41848,-1.675686 0.41113,-2.69735 -0.007,-1.021664 -0.0954,-2.10058 -0.20556,-2.854887 -0.11012,-0.754307 -0.24227,-1.183966 -0.59468,-1.52771 -0.3524,-0.343743 -0.92504,-0.601537 -1.52706,-0.749538 -0.60203,-0.148002 -1.23341,-0.186194 -2.28329,-0.186195 -1.04989,0 -2.5182,0.03819 -4.66936,0.04774 -2.15115,0.0095 -4.98501,-0.0095 -6.44602,0.0048 -1.46102,0.01432 -1.54912,0.06206 -1.59317,0.08593 -0.044,0.02387 -0.044,0.02396 -0.41113,0.143312 z"
       id="path6547"
       inkscape:path-effect="#path-effect6549"
       inkscape:original-d="m 151.17956,70.259818 c -0.73415,0.238722 -1.46832,0.477428 -2.20252,0.716113 -0.39644,0.677951 -0.79288,1.355854 -1.18936,2.033758 0.13217,1.365432 0.26433,2.730793 0.39645,4.096163 3e-5,0.439244 3e-5,0.878453 0,1.317645 0.48458,0.362861 0.96913,0.725682 1.45366,1.088496 0.93979,0.133692 1.87951,0.267363 2.81922,0.401019 0.51396,-0.07636 1.02788,-0.152755 1.54178,-0.229153 2e-5,0.01911 2e-5,0.03821 0,0.05729 -0.0881,0.305562 -0.17618,0.611099 -0.2643,0.916626 -0.29365,0.420144 -0.58732,0.840252 -0.88102,1.260356 -0.38175,0.343755 -0.76352,0.687486 -1.14531,1.031202 -0.13213,0.06685 -0.26427,0.133692 -0.39646,0.200512 0.4846,-0.190951 0.96915,-0.38191 1.45367,-0.57289 0.58737,-0.343726 1.1747,-0.687451 1.76202,-1.031201 0.67548,-0.591986 1.35091,-1.18396 2.02631,-1.775958 -0.0293,-0.0095 -0.0586,-0.01911 -0.0881,-0.02869 0.96915,-0.0095 1.93824,-0.01911 2.90732,-0.02868 1.54183,0.02868 3.08356,0.0573 4.6253,0.08593 0.85168,-0.01911 1.70331,-0.03816 2.55491,-0.0573 0.61676,-0.458303 1.23345,-0.916605 1.85014,-1.374934 0.0734,-0.964366 0.14686,-1.928712 0.22024,-2.893094 -0.0881,-1.078949 -0.17617,-2.157867 -0.2643,-3.236831 -0.13212,-0.429656 -0.26428,-0.859311 -0.39645,-1.288997 -0.57265,-0.257792 -1.14529,-0.515587 -1.71797,-0.773403 -0.63137,-0.03816 -1.26275,-0.07637 -1.89417,-0.114577 -1.46835,0.03821 -2.93666,0.07639 -4.40503,0.114577 -2.83394,-0.01911 -5.6678,-0.03816 -8.50173,-0.05729 -0.0881,0.04774 -0.17619,0.0955 -0.2643,0.143219 z" />
    <ellipse
       style="fill:#ffb3ec;fill-opacity:1;stroke:#55d400;stroke-width:0;stroke-miterlimit:4;stroke-dasharray:none"
       id="path5942-9-6"
       cx="152.48615"
       cy="74.519112"
       rx="1.7747916"
       ry="1.252488" />
    <ellipse
       style="fill:#ffb3ec;fill-opacity:1;stroke:#55d400;stroke-width:0;stroke-miterlimit:4;stroke-dasharray:none"
       id="path5942-9-6-8"
       cx="158.87265"
       cy="74.505417"
       rx="1.7747916"
       ry="1.252488" />
    <ellipse
       style="fill:#ffb3ec;fill-opacity:1;stroke:#55d400;stroke-width:0;stroke-miterlimit:4;stroke-dasharray:none"
       id="path5942-9-6-7"
       cx="164.85637"
       cy="74.369255"
       rx="1.7747916"
       ry="1.252488" />
  </g>
</svg>
